G75*
%MOIN*%
%OFA0B0*%
%FSLAX25Y25*%
%IPPOS*%
%LPD*%
%AMOC8*
5,1,8,0,0,1.08239X$1,22.5*
%
%ADD10C,0.01000*%
%ADD11C,0.00000*%
%ADD12C,0.12998*%
%ADD13C,0.07800*%
%ADD14R,0.07800X0.07800*%
%ADD15C,0.08697*%
%ADD16C,0.09258*%
%ADD17C,0.03746*%
%ADD18OC8,0.06000*%
%ADD19C,0.07000*%
%ADD20OC8,0.07000*%
%ADD21OC8,0.05600*%
%ADD22OC8,0.07900*%
%ADD23OC8,0.06400*%
%ADD24C,0.09770*%
%ADD25C,0.05600*%
%ADD26C,0.05600*%
D10*
X0006695Y0005737D02*
X0006695Y0207863D01*
X0006697Y0207987D01*
X0006703Y0208110D01*
X0006712Y0208234D01*
X0006726Y0208356D01*
X0006743Y0208479D01*
X0006765Y0208601D01*
X0006790Y0208722D01*
X0006819Y0208842D01*
X0006851Y0208961D01*
X0006888Y0209080D01*
X0006928Y0209197D01*
X0006971Y0209312D01*
X0007019Y0209427D01*
X0007070Y0209539D01*
X0007124Y0209650D01*
X0007182Y0209760D01*
X0007243Y0209867D01*
X0007308Y0209973D01*
X0007376Y0210076D01*
X0007447Y0210177D01*
X0007521Y0210276D01*
X0007598Y0210373D01*
X0007679Y0210467D01*
X0007762Y0210558D01*
X0007848Y0210647D01*
X0007937Y0210733D01*
X0008028Y0210816D01*
X0008122Y0210897D01*
X0008219Y0210974D01*
X0008318Y0211048D01*
X0008419Y0211119D01*
X0008522Y0211187D01*
X0008628Y0211252D01*
X0008735Y0211313D01*
X0008845Y0211371D01*
X0008956Y0211425D01*
X0009068Y0211476D01*
X0009183Y0211524D01*
X0009298Y0211567D01*
X0009415Y0211607D01*
X0009534Y0211644D01*
X0009653Y0211676D01*
X0009773Y0211705D01*
X0009894Y0211730D01*
X0010016Y0211752D01*
X0010139Y0211769D01*
X0010261Y0211783D01*
X0010385Y0211792D01*
X0010508Y0211798D01*
X0010632Y0211800D01*
X0260695Y0211800D01*
X0266695Y0205800D01*
X0266695Y0160800D01*
X0276695Y0150800D01*
X0276695Y0021800D01*
X0266695Y0011800D01*
X0266695Y0005737D01*
X0266693Y0005613D01*
X0266687Y0005490D01*
X0266678Y0005366D01*
X0266664Y0005244D01*
X0266647Y0005121D01*
X0266625Y0004999D01*
X0266600Y0004878D01*
X0266571Y0004758D01*
X0266539Y0004639D01*
X0266502Y0004520D01*
X0266462Y0004403D01*
X0266419Y0004288D01*
X0266371Y0004173D01*
X0266320Y0004061D01*
X0266266Y0003950D01*
X0266208Y0003840D01*
X0266147Y0003733D01*
X0266082Y0003627D01*
X0266014Y0003524D01*
X0265943Y0003423D01*
X0265869Y0003324D01*
X0265792Y0003227D01*
X0265711Y0003133D01*
X0265628Y0003042D01*
X0265542Y0002953D01*
X0265453Y0002867D01*
X0265362Y0002784D01*
X0265268Y0002703D01*
X0265171Y0002626D01*
X0265072Y0002552D01*
X0264971Y0002481D01*
X0264868Y0002413D01*
X0264762Y0002348D01*
X0264655Y0002287D01*
X0264545Y0002229D01*
X0264434Y0002175D01*
X0264322Y0002124D01*
X0264207Y0002076D01*
X0264092Y0002033D01*
X0263975Y0001993D01*
X0263856Y0001956D01*
X0263737Y0001924D01*
X0263617Y0001895D01*
X0263496Y0001870D01*
X0263374Y0001848D01*
X0263251Y0001831D01*
X0263129Y0001817D01*
X0263005Y0001808D01*
X0262882Y0001802D01*
X0262758Y0001800D01*
X0010632Y0001800D01*
X0010508Y0001802D01*
X0010385Y0001808D01*
X0010261Y0001817D01*
X0010139Y0001831D01*
X0010016Y0001848D01*
X0009894Y0001870D01*
X0009773Y0001895D01*
X0009653Y0001924D01*
X0009534Y0001956D01*
X0009415Y0001993D01*
X0009298Y0002033D01*
X0009183Y0002076D01*
X0009068Y0002124D01*
X0008956Y0002175D01*
X0008845Y0002229D01*
X0008735Y0002287D01*
X0008628Y0002348D01*
X0008522Y0002413D01*
X0008419Y0002481D01*
X0008318Y0002552D01*
X0008219Y0002626D01*
X0008122Y0002703D01*
X0008028Y0002784D01*
X0007937Y0002867D01*
X0007848Y0002953D01*
X0007762Y0003042D01*
X0007679Y0003133D01*
X0007598Y0003227D01*
X0007521Y0003324D01*
X0007447Y0003423D01*
X0007376Y0003524D01*
X0007308Y0003627D01*
X0007243Y0003733D01*
X0007182Y0003840D01*
X0007124Y0003950D01*
X0007070Y0004061D01*
X0007019Y0004173D01*
X0006971Y0004288D01*
X0006928Y0004403D01*
X0006888Y0004520D01*
X0006851Y0004639D01*
X0006819Y0004758D01*
X0006790Y0004878D01*
X0006765Y0004999D01*
X0006743Y0005121D01*
X0006726Y0005244D01*
X0006712Y0005366D01*
X0006703Y0005490D01*
X0006697Y0005613D01*
X0006695Y0005737D01*
D11*
X0055396Y0011800D02*
X0055398Y0011958D01*
X0055404Y0012116D01*
X0055414Y0012274D01*
X0055428Y0012432D01*
X0055446Y0012589D01*
X0055467Y0012746D01*
X0055493Y0012902D01*
X0055523Y0013058D01*
X0055556Y0013213D01*
X0055594Y0013366D01*
X0055635Y0013519D01*
X0055680Y0013671D01*
X0055729Y0013822D01*
X0055782Y0013971D01*
X0055838Y0014119D01*
X0055898Y0014265D01*
X0055962Y0014410D01*
X0056030Y0014553D01*
X0056101Y0014695D01*
X0056175Y0014835D01*
X0056253Y0014972D01*
X0056335Y0015108D01*
X0056419Y0015242D01*
X0056508Y0015373D01*
X0056599Y0015502D01*
X0056694Y0015629D01*
X0056791Y0015754D01*
X0056892Y0015876D01*
X0056996Y0015995D01*
X0057103Y0016112D01*
X0057213Y0016226D01*
X0057326Y0016337D01*
X0057441Y0016446D01*
X0057559Y0016551D01*
X0057680Y0016653D01*
X0057803Y0016753D01*
X0057929Y0016849D01*
X0058057Y0016942D01*
X0058187Y0017032D01*
X0058320Y0017118D01*
X0058455Y0017202D01*
X0058591Y0017281D01*
X0058730Y0017358D01*
X0058871Y0017430D01*
X0059013Y0017500D01*
X0059157Y0017565D01*
X0059303Y0017627D01*
X0059450Y0017685D01*
X0059599Y0017740D01*
X0059749Y0017791D01*
X0059900Y0017838D01*
X0060052Y0017881D01*
X0060205Y0017920D01*
X0060360Y0017956D01*
X0060515Y0017987D01*
X0060671Y0018015D01*
X0060827Y0018039D01*
X0060984Y0018059D01*
X0061142Y0018075D01*
X0061299Y0018087D01*
X0061458Y0018095D01*
X0061616Y0018099D01*
X0061774Y0018099D01*
X0061932Y0018095D01*
X0062091Y0018087D01*
X0062248Y0018075D01*
X0062406Y0018059D01*
X0062563Y0018039D01*
X0062719Y0018015D01*
X0062875Y0017987D01*
X0063030Y0017956D01*
X0063185Y0017920D01*
X0063338Y0017881D01*
X0063490Y0017838D01*
X0063641Y0017791D01*
X0063791Y0017740D01*
X0063940Y0017685D01*
X0064087Y0017627D01*
X0064233Y0017565D01*
X0064377Y0017500D01*
X0064519Y0017430D01*
X0064660Y0017358D01*
X0064799Y0017281D01*
X0064935Y0017202D01*
X0065070Y0017118D01*
X0065203Y0017032D01*
X0065333Y0016942D01*
X0065461Y0016849D01*
X0065587Y0016753D01*
X0065710Y0016653D01*
X0065831Y0016551D01*
X0065949Y0016446D01*
X0066064Y0016337D01*
X0066177Y0016226D01*
X0066287Y0016112D01*
X0066394Y0015995D01*
X0066498Y0015876D01*
X0066599Y0015754D01*
X0066696Y0015629D01*
X0066791Y0015502D01*
X0066882Y0015373D01*
X0066971Y0015242D01*
X0067055Y0015108D01*
X0067137Y0014972D01*
X0067215Y0014835D01*
X0067289Y0014695D01*
X0067360Y0014553D01*
X0067428Y0014410D01*
X0067492Y0014265D01*
X0067552Y0014119D01*
X0067608Y0013971D01*
X0067661Y0013822D01*
X0067710Y0013671D01*
X0067755Y0013519D01*
X0067796Y0013366D01*
X0067834Y0013213D01*
X0067867Y0013058D01*
X0067897Y0012902D01*
X0067923Y0012746D01*
X0067944Y0012589D01*
X0067962Y0012432D01*
X0067976Y0012274D01*
X0067986Y0012116D01*
X0067992Y0011958D01*
X0067994Y0011800D01*
X0067992Y0011642D01*
X0067986Y0011484D01*
X0067976Y0011326D01*
X0067962Y0011168D01*
X0067944Y0011011D01*
X0067923Y0010854D01*
X0067897Y0010698D01*
X0067867Y0010542D01*
X0067834Y0010387D01*
X0067796Y0010234D01*
X0067755Y0010081D01*
X0067710Y0009929D01*
X0067661Y0009778D01*
X0067608Y0009629D01*
X0067552Y0009481D01*
X0067492Y0009335D01*
X0067428Y0009190D01*
X0067360Y0009047D01*
X0067289Y0008905D01*
X0067215Y0008765D01*
X0067137Y0008628D01*
X0067055Y0008492D01*
X0066971Y0008358D01*
X0066882Y0008227D01*
X0066791Y0008098D01*
X0066696Y0007971D01*
X0066599Y0007846D01*
X0066498Y0007724D01*
X0066394Y0007605D01*
X0066287Y0007488D01*
X0066177Y0007374D01*
X0066064Y0007263D01*
X0065949Y0007154D01*
X0065831Y0007049D01*
X0065710Y0006947D01*
X0065587Y0006847D01*
X0065461Y0006751D01*
X0065333Y0006658D01*
X0065203Y0006568D01*
X0065070Y0006482D01*
X0064935Y0006398D01*
X0064799Y0006319D01*
X0064660Y0006242D01*
X0064519Y0006170D01*
X0064377Y0006100D01*
X0064233Y0006035D01*
X0064087Y0005973D01*
X0063940Y0005915D01*
X0063791Y0005860D01*
X0063641Y0005809D01*
X0063490Y0005762D01*
X0063338Y0005719D01*
X0063185Y0005680D01*
X0063030Y0005644D01*
X0062875Y0005613D01*
X0062719Y0005585D01*
X0062563Y0005561D01*
X0062406Y0005541D01*
X0062248Y0005525D01*
X0062091Y0005513D01*
X0061932Y0005505D01*
X0061774Y0005501D01*
X0061616Y0005501D01*
X0061458Y0005505D01*
X0061299Y0005513D01*
X0061142Y0005525D01*
X0060984Y0005541D01*
X0060827Y0005561D01*
X0060671Y0005585D01*
X0060515Y0005613D01*
X0060360Y0005644D01*
X0060205Y0005680D01*
X0060052Y0005719D01*
X0059900Y0005762D01*
X0059749Y0005809D01*
X0059599Y0005860D01*
X0059450Y0005915D01*
X0059303Y0005973D01*
X0059157Y0006035D01*
X0059013Y0006100D01*
X0058871Y0006170D01*
X0058730Y0006242D01*
X0058591Y0006319D01*
X0058455Y0006398D01*
X0058320Y0006482D01*
X0058187Y0006568D01*
X0058057Y0006658D01*
X0057929Y0006751D01*
X0057803Y0006847D01*
X0057680Y0006947D01*
X0057559Y0007049D01*
X0057441Y0007154D01*
X0057326Y0007263D01*
X0057213Y0007374D01*
X0057103Y0007488D01*
X0056996Y0007605D01*
X0056892Y0007724D01*
X0056791Y0007846D01*
X0056694Y0007971D01*
X0056599Y0008098D01*
X0056508Y0008227D01*
X0056419Y0008358D01*
X0056335Y0008492D01*
X0056253Y0008628D01*
X0056175Y0008765D01*
X0056101Y0008905D01*
X0056030Y0009047D01*
X0055962Y0009190D01*
X0055898Y0009335D01*
X0055838Y0009481D01*
X0055782Y0009629D01*
X0055729Y0009778D01*
X0055680Y0009929D01*
X0055635Y0010081D01*
X0055594Y0010234D01*
X0055556Y0010387D01*
X0055523Y0010542D01*
X0055493Y0010698D01*
X0055467Y0010854D01*
X0055446Y0011011D01*
X0055428Y0011168D01*
X0055414Y0011326D01*
X0055404Y0011484D01*
X0055398Y0011642D01*
X0055396Y0011800D01*
X0023940Y0143040D02*
X0023942Y0143121D01*
X0023948Y0143203D01*
X0023958Y0143284D01*
X0023972Y0143364D01*
X0023989Y0143443D01*
X0024011Y0143522D01*
X0024036Y0143599D01*
X0024065Y0143676D01*
X0024098Y0143750D01*
X0024135Y0143823D01*
X0024174Y0143894D01*
X0024218Y0143963D01*
X0024264Y0144030D01*
X0024314Y0144094D01*
X0024367Y0144156D01*
X0024423Y0144216D01*
X0024481Y0144272D01*
X0024543Y0144326D01*
X0024607Y0144377D01*
X0024673Y0144424D01*
X0024741Y0144468D01*
X0024812Y0144509D01*
X0024884Y0144546D01*
X0024959Y0144580D01*
X0025034Y0144610D01*
X0025112Y0144636D01*
X0025190Y0144659D01*
X0025269Y0144677D01*
X0025349Y0144692D01*
X0025430Y0144703D01*
X0025511Y0144710D01*
X0025593Y0144713D01*
X0025674Y0144712D01*
X0025755Y0144707D01*
X0025836Y0144698D01*
X0025917Y0144685D01*
X0025997Y0144668D01*
X0026075Y0144648D01*
X0026153Y0144623D01*
X0026230Y0144595D01*
X0026305Y0144563D01*
X0026378Y0144528D01*
X0026449Y0144489D01*
X0026519Y0144446D01*
X0026586Y0144401D01*
X0026652Y0144352D01*
X0026714Y0144300D01*
X0026774Y0144244D01*
X0026831Y0144186D01*
X0026886Y0144126D01*
X0026937Y0144062D01*
X0026985Y0143997D01*
X0027030Y0143929D01*
X0027072Y0143859D01*
X0027110Y0143787D01*
X0027145Y0143713D01*
X0027176Y0143638D01*
X0027203Y0143561D01*
X0027226Y0143483D01*
X0027246Y0143404D01*
X0027262Y0143324D01*
X0027274Y0143243D01*
X0027282Y0143162D01*
X0027286Y0143081D01*
X0027286Y0142999D01*
X0027282Y0142918D01*
X0027274Y0142837D01*
X0027262Y0142756D01*
X0027246Y0142676D01*
X0027226Y0142597D01*
X0027203Y0142519D01*
X0027176Y0142442D01*
X0027145Y0142367D01*
X0027110Y0142293D01*
X0027072Y0142221D01*
X0027030Y0142151D01*
X0026985Y0142083D01*
X0026937Y0142018D01*
X0026886Y0141954D01*
X0026831Y0141894D01*
X0026774Y0141836D01*
X0026714Y0141780D01*
X0026652Y0141728D01*
X0026586Y0141679D01*
X0026519Y0141634D01*
X0026450Y0141591D01*
X0026378Y0141552D01*
X0026305Y0141517D01*
X0026230Y0141485D01*
X0026153Y0141457D01*
X0026075Y0141432D01*
X0025997Y0141412D01*
X0025917Y0141395D01*
X0025836Y0141382D01*
X0025755Y0141373D01*
X0025674Y0141368D01*
X0025593Y0141367D01*
X0025511Y0141370D01*
X0025430Y0141377D01*
X0025349Y0141388D01*
X0025269Y0141403D01*
X0025190Y0141421D01*
X0025112Y0141444D01*
X0025034Y0141470D01*
X0024959Y0141500D01*
X0024884Y0141534D01*
X0024812Y0141571D01*
X0024741Y0141612D01*
X0024673Y0141656D01*
X0024607Y0141703D01*
X0024543Y0141754D01*
X0024481Y0141808D01*
X0024423Y0141864D01*
X0024367Y0141924D01*
X0024314Y0141986D01*
X0024264Y0142050D01*
X0024218Y0142117D01*
X0024174Y0142186D01*
X0024135Y0142257D01*
X0024098Y0142330D01*
X0024065Y0142404D01*
X0024036Y0142481D01*
X0024011Y0142558D01*
X0023989Y0142637D01*
X0023972Y0142716D01*
X0023958Y0142796D01*
X0023948Y0142877D01*
X0023942Y0142959D01*
X0023940Y0143040D01*
X0023940Y0160560D02*
X0023942Y0160641D01*
X0023948Y0160723D01*
X0023958Y0160804D01*
X0023972Y0160884D01*
X0023989Y0160963D01*
X0024011Y0161042D01*
X0024036Y0161119D01*
X0024065Y0161196D01*
X0024098Y0161270D01*
X0024135Y0161343D01*
X0024174Y0161414D01*
X0024218Y0161483D01*
X0024264Y0161550D01*
X0024314Y0161614D01*
X0024367Y0161676D01*
X0024423Y0161736D01*
X0024481Y0161792D01*
X0024543Y0161846D01*
X0024607Y0161897D01*
X0024673Y0161944D01*
X0024741Y0161988D01*
X0024812Y0162029D01*
X0024884Y0162066D01*
X0024959Y0162100D01*
X0025034Y0162130D01*
X0025112Y0162156D01*
X0025190Y0162179D01*
X0025269Y0162197D01*
X0025349Y0162212D01*
X0025430Y0162223D01*
X0025511Y0162230D01*
X0025593Y0162233D01*
X0025674Y0162232D01*
X0025755Y0162227D01*
X0025836Y0162218D01*
X0025917Y0162205D01*
X0025997Y0162188D01*
X0026075Y0162168D01*
X0026153Y0162143D01*
X0026230Y0162115D01*
X0026305Y0162083D01*
X0026378Y0162048D01*
X0026449Y0162009D01*
X0026519Y0161966D01*
X0026586Y0161921D01*
X0026652Y0161872D01*
X0026714Y0161820D01*
X0026774Y0161764D01*
X0026831Y0161706D01*
X0026886Y0161646D01*
X0026937Y0161582D01*
X0026985Y0161517D01*
X0027030Y0161449D01*
X0027072Y0161379D01*
X0027110Y0161307D01*
X0027145Y0161233D01*
X0027176Y0161158D01*
X0027203Y0161081D01*
X0027226Y0161003D01*
X0027246Y0160924D01*
X0027262Y0160844D01*
X0027274Y0160763D01*
X0027282Y0160682D01*
X0027286Y0160601D01*
X0027286Y0160519D01*
X0027282Y0160438D01*
X0027274Y0160357D01*
X0027262Y0160276D01*
X0027246Y0160196D01*
X0027226Y0160117D01*
X0027203Y0160039D01*
X0027176Y0159962D01*
X0027145Y0159887D01*
X0027110Y0159813D01*
X0027072Y0159741D01*
X0027030Y0159671D01*
X0026985Y0159603D01*
X0026937Y0159538D01*
X0026886Y0159474D01*
X0026831Y0159414D01*
X0026774Y0159356D01*
X0026714Y0159300D01*
X0026652Y0159248D01*
X0026586Y0159199D01*
X0026519Y0159154D01*
X0026450Y0159111D01*
X0026378Y0159072D01*
X0026305Y0159037D01*
X0026230Y0159005D01*
X0026153Y0158977D01*
X0026075Y0158952D01*
X0025997Y0158932D01*
X0025917Y0158915D01*
X0025836Y0158902D01*
X0025755Y0158893D01*
X0025674Y0158888D01*
X0025593Y0158887D01*
X0025511Y0158890D01*
X0025430Y0158897D01*
X0025349Y0158908D01*
X0025269Y0158923D01*
X0025190Y0158941D01*
X0025112Y0158964D01*
X0025034Y0158990D01*
X0024959Y0159020D01*
X0024884Y0159054D01*
X0024812Y0159091D01*
X0024741Y0159132D01*
X0024673Y0159176D01*
X0024607Y0159223D01*
X0024543Y0159274D01*
X0024481Y0159328D01*
X0024423Y0159384D01*
X0024367Y0159444D01*
X0024314Y0159506D01*
X0024264Y0159570D01*
X0024218Y0159637D01*
X0024174Y0159706D01*
X0024135Y0159777D01*
X0024098Y0159850D01*
X0024065Y0159924D01*
X0024036Y0160001D01*
X0024011Y0160078D01*
X0023989Y0160157D01*
X0023972Y0160236D01*
X0023958Y0160316D01*
X0023948Y0160397D01*
X0023942Y0160479D01*
X0023940Y0160560D01*
X0060396Y0201800D02*
X0060398Y0201958D01*
X0060404Y0202116D01*
X0060414Y0202274D01*
X0060428Y0202432D01*
X0060446Y0202589D01*
X0060467Y0202746D01*
X0060493Y0202902D01*
X0060523Y0203058D01*
X0060556Y0203213D01*
X0060594Y0203366D01*
X0060635Y0203519D01*
X0060680Y0203671D01*
X0060729Y0203822D01*
X0060782Y0203971D01*
X0060838Y0204119D01*
X0060898Y0204265D01*
X0060962Y0204410D01*
X0061030Y0204553D01*
X0061101Y0204695D01*
X0061175Y0204835D01*
X0061253Y0204972D01*
X0061335Y0205108D01*
X0061419Y0205242D01*
X0061508Y0205373D01*
X0061599Y0205502D01*
X0061694Y0205629D01*
X0061791Y0205754D01*
X0061892Y0205876D01*
X0061996Y0205995D01*
X0062103Y0206112D01*
X0062213Y0206226D01*
X0062326Y0206337D01*
X0062441Y0206446D01*
X0062559Y0206551D01*
X0062680Y0206653D01*
X0062803Y0206753D01*
X0062929Y0206849D01*
X0063057Y0206942D01*
X0063187Y0207032D01*
X0063320Y0207118D01*
X0063455Y0207202D01*
X0063591Y0207281D01*
X0063730Y0207358D01*
X0063871Y0207430D01*
X0064013Y0207500D01*
X0064157Y0207565D01*
X0064303Y0207627D01*
X0064450Y0207685D01*
X0064599Y0207740D01*
X0064749Y0207791D01*
X0064900Y0207838D01*
X0065052Y0207881D01*
X0065205Y0207920D01*
X0065360Y0207956D01*
X0065515Y0207987D01*
X0065671Y0208015D01*
X0065827Y0208039D01*
X0065984Y0208059D01*
X0066142Y0208075D01*
X0066299Y0208087D01*
X0066458Y0208095D01*
X0066616Y0208099D01*
X0066774Y0208099D01*
X0066932Y0208095D01*
X0067091Y0208087D01*
X0067248Y0208075D01*
X0067406Y0208059D01*
X0067563Y0208039D01*
X0067719Y0208015D01*
X0067875Y0207987D01*
X0068030Y0207956D01*
X0068185Y0207920D01*
X0068338Y0207881D01*
X0068490Y0207838D01*
X0068641Y0207791D01*
X0068791Y0207740D01*
X0068940Y0207685D01*
X0069087Y0207627D01*
X0069233Y0207565D01*
X0069377Y0207500D01*
X0069519Y0207430D01*
X0069660Y0207358D01*
X0069799Y0207281D01*
X0069935Y0207202D01*
X0070070Y0207118D01*
X0070203Y0207032D01*
X0070333Y0206942D01*
X0070461Y0206849D01*
X0070587Y0206753D01*
X0070710Y0206653D01*
X0070831Y0206551D01*
X0070949Y0206446D01*
X0071064Y0206337D01*
X0071177Y0206226D01*
X0071287Y0206112D01*
X0071394Y0205995D01*
X0071498Y0205876D01*
X0071599Y0205754D01*
X0071696Y0205629D01*
X0071791Y0205502D01*
X0071882Y0205373D01*
X0071971Y0205242D01*
X0072055Y0205108D01*
X0072137Y0204972D01*
X0072215Y0204835D01*
X0072289Y0204695D01*
X0072360Y0204553D01*
X0072428Y0204410D01*
X0072492Y0204265D01*
X0072552Y0204119D01*
X0072608Y0203971D01*
X0072661Y0203822D01*
X0072710Y0203671D01*
X0072755Y0203519D01*
X0072796Y0203366D01*
X0072834Y0203213D01*
X0072867Y0203058D01*
X0072897Y0202902D01*
X0072923Y0202746D01*
X0072944Y0202589D01*
X0072962Y0202432D01*
X0072976Y0202274D01*
X0072986Y0202116D01*
X0072992Y0201958D01*
X0072994Y0201800D01*
X0072992Y0201642D01*
X0072986Y0201484D01*
X0072976Y0201326D01*
X0072962Y0201168D01*
X0072944Y0201011D01*
X0072923Y0200854D01*
X0072897Y0200698D01*
X0072867Y0200542D01*
X0072834Y0200387D01*
X0072796Y0200234D01*
X0072755Y0200081D01*
X0072710Y0199929D01*
X0072661Y0199778D01*
X0072608Y0199629D01*
X0072552Y0199481D01*
X0072492Y0199335D01*
X0072428Y0199190D01*
X0072360Y0199047D01*
X0072289Y0198905D01*
X0072215Y0198765D01*
X0072137Y0198628D01*
X0072055Y0198492D01*
X0071971Y0198358D01*
X0071882Y0198227D01*
X0071791Y0198098D01*
X0071696Y0197971D01*
X0071599Y0197846D01*
X0071498Y0197724D01*
X0071394Y0197605D01*
X0071287Y0197488D01*
X0071177Y0197374D01*
X0071064Y0197263D01*
X0070949Y0197154D01*
X0070831Y0197049D01*
X0070710Y0196947D01*
X0070587Y0196847D01*
X0070461Y0196751D01*
X0070333Y0196658D01*
X0070203Y0196568D01*
X0070070Y0196482D01*
X0069935Y0196398D01*
X0069799Y0196319D01*
X0069660Y0196242D01*
X0069519Y0196170D01*
X0069377Y0196100D01*
X0069233Y0196035D01*
X0069087Y0195973D01*
X0068940Y0195915D01*
X0068791Y0195860D01*
X0068641Y0195809D01*
X0068490Y0195762D01*
X0068338Y0195719D01*
X0068185Y0195680D01*
X0068030Y0195644D01*
X0067875Y0195613D01*
X0067719Y0195585D01*
X0067563Y0195561D01*
X0067406Y0195541D01*
X0067248Y0195525D01*
X0067091Y0195513D01*
X0066932Y0195505D01*
X0066774Y0195501D01*
X0066616Y0195501D01*
X0066458Y0195505D01*
X0066299Y0195513D01*
X0066142Y0195525D01*
X0065984Y0195541D01*
X0065827Y0195561D01*
X0065671Y0195585D01*
X0065515Y0195613D01*
X0065360Y0195644D01*
X0065205Y0195680D01*
X0065052Y0195719D01*
X0064900Y0195762D01*
X0064749Y0195809D01*
X0064599Y0195860D01*
X0064450Y0195915D01*
X0064303Y0195973D01*
X0064157Y0196035D01*
X0064013Y0196100D01*
X0063871Y0196170D01*
X0063730Y0196242D01*
X0063591Y0196319D01*
X0063455Y0196398D01*
X0063320Y0196482D01*
X0063187Y0196568D01*
X0063057Y0196658D01*
X0062929Y0196751D01*
X0062803Y0196847D01*
X0062680Y0196947D01*
X0062559Y0197049D01*
X0062441Y0197154D01*
X0062326Y0197263D01*
X0062213Y0197374D01*
X0062103Y0197488D01*
X0061996Y0197605D01*
X0061892Y0197724D01*
X0061791Y0197846D01*
X0061694Y0197971D01*
X0061599Y0198098D01*
X0061508Y0198227D01*
X0061419Y0198358D01*
X0061335Y0198492D01*
X0061253Y0198628D01*
X0061175Y0198765D01*
X0061101Y0198905D01*
X0061030Y0199047D01*
X0060962Y0199190D01*
X0060898Y0199335D01*
X0060838Y0199481D01*
X0060782Y0199629D01*
X0060729Y0199778D01*
X0060680Y0199929D01*
X0060635Y0200081D01*
X0060594Y0200234D01*
X0060556Y0200387D01*
X0060523Y0200542D01*
X0060493Y0200698D01*
X0060467Y0200854D01*
X0060446Y0201011D01*
X0060428Y0201168D01*
X0060414Y0201326D01*
X0060404Y0201484D01*
X0060398Y0201642D01*
X0060396Y0201800D01*
X0260396Y0141800D02*
X0260398Y0141958D01*
X0260404Y0142116D01*
X0260414Y0142274D01*
X0260428Y0142432D01*
X0260446Y0142589D01*
X0260467Y0142746D01*
X0260493Y0142902D01*
X0260523Y0143058D01*
X0260556Y0143213D01*
X0260594Y0143366D01*
X0260635Y0143519D01*
X0260680Y0143671D01*
X0260729Y0143822D01*
X0260782Y0143971D01*
X0260838Y0144119D01*
X0260898Y0144265D01*
X0260962Y0144410D01*
X0261030Y0144553D01*
X0261101Y0144695D01*
X0261175Y0144835D01*
X0261253Y0144972D01*
X0261335Y0145108D01*
X0261419Y0145242D01*
X0261508Y0145373D01*
X0261599Y0145502D01*
X0261694Y0145629D01*
X0261791Y0145754D01*
X0261892Y0145876D01*
X0261996Y0145995D01*
X0262103Y0146112D01*
X0262213Y0146226D01*
X0262326Y0146337D01*
X0262441Y0146446D01*
X0262559Y0146551D01*
X0262680Y0146653D01*
X0262803Y0146753D01*
X0262929Y0146849D01*
X0263057Y0146942D01*
X0263187Y0147032D01*
X0263320Y0147118D01*
X0263455Y0147202D01*
X0263591Y0147281D01*
X0263730Y0147358D01*
X0263871Y0147430D01*
X0264013Y0147500D01*
X0264157Y0147565D01*
X0264303Y0147627D01*
X0264450Y0147685D01*
X0264599Y0147740D01*
X0264749Y0147791D01*
X0264900Y0147838D01*
X0265052Y0147881D01*
X0265205Y0147920D01*
X0265360Y0147956D01*
X0265515Y0147987D01*
X0265671Y0148015D01*
X0265827Y0148039D01*
X0265984Y0148059D01*
X0266142Y0148075D01*
X0266299Y0148087D01*
X0266458Y0148095D01*
X0266616Y0148099D01*
X0266774Y0148099D01*
X0266932Y0148095D01*
X0267091Y0148087D01*
X0267248Y0148075D01*
X0267406Y0148059D01*
X0267563Y0148039D01*
X0267719Y0148015D01*
X0267875Y0147987D01*
X0268030Y0147956D01*
X0268185Y0147920D01*
X0268338Y0147881D01*
X0268490Y0147838D01*
X0268641Y0147791D01*
X0268791Y0147740D01*
X0268940Y0147685D01*
X0269087Y0147627D01*
X0269233Y0147565D01*
X0269377Y0147500D01*
X0269519Y0147430D01*
X0269660Y0147358D01*
X0269799Y0147281D01*
X0269935Y0147202D01*
X0270070Y0147118D01*
X0270203Y0147032D01*
X0270333Y0146942D01*
X0270461Y0146849D01*
X0270587Y0146753D01*
X0270710Y0146653D01*
X0270831Y0146551D01*
X0270949Y0146446D01*
X0271064Y0146337D01*
X0271177Y0146226D01*
X0271287Y0146112D01*
X0271394Y0145995D01*
X0271498Y0145876D01*
X0271599Y0145754D01*
X0271696Y0145629D01*
X0271791Y0145502D01*
X0271882Y0145373D01*
X0271971Y0145242D01*
X0272055Y0145108D01*
X0272137Y0144972D01*
X0272215Y0144835D01*
X0272289Y0144695D01*
X0272360Y0144553D01*
X0272428Y0144410D01*
X0272492Y0144265D01*
X0272552Y0144119D01*
X0272608Y0143971D01*
X0272661Y0143822D01*
X0272710Y0143671D01*
X0272755Y0143519D01*
X0272796Y0143366D01*
X0272834Y0143213D01*
X0272867Y0143058D01*
X0272897Y0142902D01*
X0272923Y0142746D01*
X0272944Y0142589D01*
X0272962Y0142432D01*
X0272976Y0142274D01*
X0272986Y0142116D01*
X0272992Y0141958D01*
X0272994Y0141800D01*
X0272992Y0141642D01*
X0272986Y0141484D01*
X0272976Y0141326D01*
X0272962Y0141168D01*
X0272944Y0141011D01*
X0272923Y0140854D01*
X0272897Y0140698D01*
X0272867Y0140542D01*
X0272834Y0140387D01*
X0272796Y0140234D01*
X0272755Y0140081D01*
X0272710Y0139929D01*
X0272661Y0139778D01*
X0272608Y0139629D01*
X0272552Y0139481D01*
X0272492Y0139335D01*
X0272428Y0139190D01*
X0272360Y0139047D01*
X0272289Y0138905D01*
X0272215Y0138765D01*
X0272137Y0138628D01*
X0272055Y0138492D01*
X0271971Y0138358D01*
X0271882Y0138227D01*
X0271791Y0138098D01*
X0271696Y0137971D01*
X0271599Y0137846D01*
X0271498Y0137724D01*
X0271394Y0137605D01*
X0271287Y0137488D01*
X0271177Y0137374D01*
X0271064Y0137263D01*
X0270949Y0137154D01*
X0270831Y0137049D01*
X0270710Y0136947D01*
X0270587Y0136847D01*
X0270461Y0136751D01*
X0270333Y0136658D01*
X0270203Y0136568D01*
X0270070Y0136482D01*
X0269935Y0136398D01*
X0269799Y0136319D01*
X0269660Y0136242D01*
X0269519Y0136170D01*
X0269377Y0136100D01*
X0269233Y0136035D01*
X0269087Y0135973D01*
X0268940Y0135915D01*
X0268791Y0135860D01*
X0268641Y0135809D01*
X0268490Y0135762D01*
X0268338Y0135719D01*
X0268185Y0135680D01*
X0268030Y0135644D01*
X0267875Y0135613D01*
X0267719Y0135585D01*
X0267563Y0135561D01*
X0267406Y0135541D01*
X0267248Y0135525D01*
X0267091Y0135513D01*
X0266932Y0135505D01*
X0266774Y0135501D01*
X0266616Y0135501D01*
X0266458Y0135505D01*
X0266299Y0135513D01*
X0266142Y0135525D01*
X0265984Y0135541D01*
X0265827Y0135561D01*
X0265671Y0135585D01*
X0265515Y0135613D01*
X0265360Y0135644D01*
X0265205Y0135680D01*
X0265052Y0135719D01*
X0264900Y0135762D01*
X0264749Y0135809D01*
X0264599Y0135860D01*
X0264450Y0135915D01*
X0264303Y0135973D01*
X0264157Y0136035D01*
X0264013Y0136100D01*
X0263871Y0136170D01*
X0263730Y0136242D01*
X0263591Y0136319D01*
X0263455Y0136398D01*
X0263320Y0136482D01*
X0263187Y0136568D01*
X0263057Y0136658D01*
X0262929Y0136751D01*
X0262803Y0136847D01*
X0262680Y0136947D01*
X0262559Y0137049D01*
X0262441Y0137154D01*
X0262326Y0137263D01*
X0262213Y0137374D01*
X0262103Y0137488D01*
X0261996Y0137605D01*
X0261892Y0137724D01*
X0261791Y0137846D01*
X0261694Y0137971D01*
X0261599Y0138098D01*
X0261508Y0138227D01*
X0261419Y0138358D01*
X0261335Y0138492D01*
X0261253Y0138628D01*
X0261175Y0138765D01*
X0261101Y0138905D01*
X0261030Y0139047D01*
X0260962Y0139190D01*
X0260898Y0139335D01*
X0260838Y0139481D01*
X0260782Y0139629D01*
X0260729Y0139778D01*
X0260680Y0139929D01*
X0260635Y0140081D01*
X0260594Y0140234D01*
X0260556Y0140387D01*
X0260523Y0140542D01*
X0260493Y0140698D01*
X0260467Y0140854D01*
X0260446Y0141011D01*
X0260428Y0141168D01*
X0260414Y0141326D01*
X0260404Y0141484D01*
X0260398Y0141642D01*
X0260396Y0141800D01*
X0260396Y0031800D02*
X0260398Y0031958D01*
X0260404Y0032116D01*
X0260414Y0032274D01*
X0260428Y0032432D01*
X0260446Y0032589D01*
X0260467Y0032746D01*
X0260493Y0032902D01*
X0260523Y0033058D01*
X0260556Y0033213D01*
X0260594Y0033366D01*
X0260635Y0033519D01*
X0260680Y0033671D01*
X0260729Y0033822D01*
X0260782Y0033971D01*
X0260838Y0034119D01*
X0260898Y0034265D01*
X0260962Y0034410D01*
X0261030Y0034553D01*
X0261101Y0034695D01*
X0261175Y0034835D01*
X0261253Y0034972D01*
X0261335Y0035108D01*
X0261419Y0035242D01*
X0261508Y0035373D01*
X0261599Y0035502D01*
X0261694Y0035629D01*
X0261791Y0035754D01*
X0261892Y0035876D01*
X0261996Y0035995D01*
X0262103Y0036112D01*
X0262213Y0036226D01*
X0262326Y0036337D01*
X0262441Y0036446D01*
X0262559Y0036551D01*
X0262680Y0036653D01*
X0262803Y0036753D01*
X0262929Y0036849D01*
X0263057Y0036942D01*
X0263187Y0037032D01*
X0263320Y0037118D01*
X0263455Y0037202D01*
X0263591Y0037281D01*
X0263730Y0037358D01*
X0263871Y0037430D01*
X0264013Y0037500D01*
X0264157Y0037565D01*
X0264303Y0037627D01*
X0264450Y0037685D01*
X0264599Y0037740D01*
X0264749Y0037791D01*
X0264900Y0037838D01*
X0265052Y0037881D01*
X0265205Y0037920D01*
X0265360Y0037956D01*
X0265515Y0037987D01*
X0265671Y0038015D01*
X0265827Y0038039D01*
X0265984Y0038059D01*
X0266142Y0038075D01*
X0266299Y0038087D01*
X0266458Y0038095D01*
X0266616Y0038099D01*
X0266774Y0038099D01*
X0266932Y0038095D01*
X0267091Y0038087D01*
X0267248Y0038075D01*
X0267406Y0038059D01*
X0267563Y0038039D01*
X0267719Y0038015D01*
X0267875Y0037987D01*
X0268030Y0037956D01*
X0268185Y0037920D01*
X0268338Y0037881D01*
X0268490Y0037838D01*
X0268641Y0037791D01*
X0268791Y0037740D01*
X0268940Y0037685D01*
X0269087Y0037627D01*
X0269233Y0037565D01*
X0269377Y0037500D01*
X0269519Y0037430D01*
X0269660Y0037358D01*
X0269799Y0037281D01*
X0269935Y0037202D01*
X0270070Y0037118D01*
X0270203Y0037032D01*
X0270333Y0036942D01*
X0270461Y0036849D01*
X0270587Y0036753D01*
X0270710Y0036653D01*
X0270831Y0036551D01*
X0270949Y0036446D01*
X0271064Y0036337D01*
X0271177Y0036226D01*
X0271287Y0036112D01*
X0271394Y0035995D01*
X0271498Y0035876D01*
X0271599Y0035754D01*
X0271696Y0035629D01*
X0271791Y0035502D01*
X0271882Y0035373D01*
X0271971Y0035242D01*
X0272055Y0035108D01*
X0272137Y0034972D01*
X0272215Y0034835D01*
X0272289Y0034695D01*
X0272360Y0034553D01*
X0272428Y0034410D01*
X0272492Y0034265D01*
X0272552Y0034119D01*
X0272608Y0033971D01*
X0272661Y0033822D01*
X0272710Y0033671D01*
X0272755Y0033519D01*
X0272796Y0033366D01*
X0272834Y0033213D01*
X0272867Y0033058D01*
X0272897Y0032902D01*
X0272923Y0032746D01*
X0272944Y0032589D01*
X0272962Y0032432D01*
X0272976Y0032274D01*
X0272986Y0032116D01*
X0272992Y0031958D01*
X0272994Y0031800D01*
X0272992Y0031642D01*
X0272986Y0031484D01*
X0272976Y0031326D01*
X0272962Y0031168D01*
X0272944Y0031011D01*
X0272923Y0030854D01*
X0272897Y0030698D01*
X0272867Y0030542D01*
X0272834Y0030387D01*
X0272796Y0030234D01*
X0272755Y0030081D01*
X0272710Y0029929D01*
X0272661Y0029778D01*
X0272608Y0029629D01*
X0272552Y0029481D01*
X0272492Y0029335D01*
X0272428Y0029190D01*
X0272360Y0029047D01*
X0272289Y0028905D01*
X0272215Y0028765D01*
X0272137Y0028628D01*
X0272055Y0028492D01*
X0271971Y0028358D01*
X0271882Y0028227D01*
X0271791Y0028098D01*
X0271696Y0027971D01*
X0271599Y0027846D01*
X0271498Y0027724D01*
X0271394Y0027605D01*
X0271287Y0027488D01*
X0271177Y0027374D01*
X0271064Y0027263D01*
X0270949Y0027154D01*
X0270831Y0027049D01*
X0270710Y0026947D01*
X0270587Y0026847D01*
X0270461Y0026751D01*
X0270333Y0026658D01*
X0270203Y0026568D01*
X0270070Y0026482D01*
X0269935Y0026398D01*
X0269799Y0026319D01*
X0269660Y0026242D01*
X0269519Y0026170D01*
X0269377Y0026100D01*
X0269233Y0026035D01*
X0269087Y0025973D01*
X0268940Y0025915D01*
X0268791Y0025860D01*
X0268641Y0025809D01*
X0268490Y0025762D01*
X0268338Y0025719D01*
X0268185Y0025680D01*
X0268030Y0025644D01*
X0267875Y0025613D01*
X0267719Y0025585D01*
X0267563Y0025561D01*
X0267406Y0025541D01*
X0267248Y0025525D01*
X0267091Y0025513D01*
X0266932Y0025505D01*
X0266774Y0025501D01*
X0266616Y0025501D01*
X0266458Y0025505D01*
X0266299Y0025513D01*
X0266142Y0025525D01*
X0265984Y0025541D01*
X0265827Y0025561D01*
X0265671Y0025585D01*
X0265515Y0025613D01*
X0265360Y0025644D01*
X0265205Y0025680D01*
X0265052Y0025719D01*
X0264900Y0025762D01*
X0264749Y0025809D01*
X0264599Y0025860D01*
X0264450Y0025915D01*
X0264303Y0025973D01*
X0264157Y0026035D01*
X0264013Y0026100D01*
X0263871Y0026170D01*
X0263730Y0026242D01*
X0263591Y0026319D01*
X0263455Y0026398D01*
X0263320Y0026482D01*
X0263187Y0026568D01*
X0263057Y0026658D01*
X0262929Y0026751D01*
X0262803Y0026847D01*
X0262680Y0026947D01*
X0262559Y0027049D01*
X0262441Y0027154D01*
X0262326Y0027263D01*
X0262213Y0027374D01*
X0262103Y0027488D01*
X0261996Y0027605D01*
X0261892Y0027724D01*
X0261791Y0027846D01*
X0261694Y0027971D01*
X0261599Y0028098D01*
X0261508Y0028227D01*
X0261419Y0028358D01*
X0261335Y0028492D01*
X0261253Y0028628D01*
X0261175Y0028765D01*
X0261101Y0028905D01*
X0261030Y0029047D01*
X0260962Y0029190D01*
X0260898Y0029335D01*
X0260838Y0029481D01*
X0260782Y0029629D01*
X0260729Y0029778D01*
X0260680Y0029929D01*
X0260635Y0030081D01*
X0260594Y0030234D01*
X0260556Y0030387D01*
X0260523Y0030542D01*
X0260493Y0030698D01*
X0260467Y0030854D01*
X0260446Y0031011D01*
X0260428Y0031168D01*
X0260414Y0031326D01*
X0260404Y0031484D01*
X0260398Y0031642D01*
X0260396Y0031800D01*
D12*
X0266695Y0031800D03*
X0266695Y0141800D03*
X0066695Y0201800D03*
X0061695Y0011800D03*
D13*
X0057195Y0029300D03*
X0057195Y0049300D03*
X0104195Y0066800D03*
X0111695Y0061800D03*
X0111695Y0071800D03*
X0136695Y0011800D03*
X0146695Y0011800D03*
X0156695Y0011800D03*
X0166695Y0011800D03*
X0176695Y0011800D03*
X0186695Y0011800D03*
X0206695Y0011800D03*
X0216695Y0011800D03*
X0226695Y0011800D03*
X0236695Y0011800D03*
X0246695Y0011800D03*
X0256695Y0011800D03*
X0266695Y0061800D03*
X0267695Y0071800D03*
X0266695Y0081800D03*
X0267695Y0091800D03*
X0266695Y0101800D03*
X0267695Y0111800D03*
X0246695Y0201800D03*
X0236695Y0201800D03*
X0226695Y0201800D03*
X0216695Y0201800D03*
X0206695Y0201800D03*
X0196695Y0201800D03*
X0186695Y0201800D03*
X0160695Y0201800D03*
X0150695Y0201800D03*
X0140695Y0201800D03*
X0130695Y0201800D03*
X0120695Y0201800D03*
X0110695Y0201800D03*
X0100695Y0201800D03*
X0081695Y0146800D03*
X0061695Y0146800D03*
D14*
X0170695Y0201800D03*
X0256695Y0201800D03*
D15*
X0025613Y0160560D03*
X0025613Y0143040D03*
D16*
X0014195Y0135363D03*
X0014195Y0168237D03*
D17*
X0025613Y0160560D03*
X0025613Y0143040D03*
D18*
X0111695Y0146800D03*
X0121695Y0146800D03*
X0191695Y0146800D03*
X0201695Y0146800D03*
X0236695Y0086800D03*
X0236695Y0076800D03*
X0211695Y0070300D03*
X0201695Y0070300D03*
X0191695Y0070300D03*
X0181695Y0070300D03*
X0116695Y0041800D03*
X0116695Y0031800D03*
D19*
X0103195Y0026800D03*
X0103195Y0041800D03*
X0091695Y0061800D03*
X0073195Y0041800D03*
X0073195Y0026800D03*
X0091695Y0081800D03*
D20*
X0081695Y0081800D03*
X0081695Y0061800D03*
D21*
X0026695Y0066800D03*
X0016695Y0066800D03*
X0016695Y0086800D03*
X0026695Y0086800D03*
D22*
X0018895Y0102900D03*
X0018895Y0120700D03*
X0044495Y0120700D03*
X0044495Y0102900D03*
X0044495Y0182900D03*
X0044495Y0200700D03*
X0018895Y0200700D03*
X0018895Y0182900D03*
D23*
X0056695Y0181800D03*
X0056695Y0166800D03*
X0086695Y0166800D03*
X0086695Y0181800D03*
X0086695Y0126800D03*
X0086695Y0111800D03*
X0056695Y0111800D03*
X0056695Y0126800D03*
X0066695Y0086800D03*
X0066695Y0066800D03*
X0036695Y0066800D03*
X0036695Y0086800D03*
D24*
X0028152Y0041643D02*
X0018782Y0041643D01*
X0018782Y0021957D02*
X0028152Y0021957D01*
D25*
X0111695Y0099200D02*
X0111695Y0104400D01*
X0121695Y0104400D02*
X0121695Y0099200D01*
X0131695Y0099200D02*
X0131695Y0104400D01*
X0141695Y0104400D02*
X0141695Y0099200D01*
X0151695Y0099200D02*
X0151695Y0104400D01*
X0161695Y0104400D02*
X0161695Y0099200D01*
X0171695Y0099200D02*
X0171695Y0104400D01*
X0181695Y0104400D02*
X0181695Y0099200D01*
X0191695Y0099200D02*
X0191695Y0104400D01*
X0201695Y0104400D02*
X0201695Y0099200D01*
X0211695Y0099200D02*
X0211695Y0104400D01*
X0221695Y0104400D02*
X0221695Y0099200D01*
X0231695Y0099200D02*
X0231695Y0104400D01*
X0241695Y0104400D02*
X0241695Y0099200D01*
X0241695Y0129200D02*
X0241695Y0134400D01*
X0231695Y0134400D02*
X0231695Y0129200D01*
X0221695Y0129200D02*
X0221695Y0134400D01*
X0211695Y0134400D02*
X0211695Y0129200D01*
X0201695Y0129200D02*
X0201695Y0134400D01*
X0191695Y0134400D02*
X0191695Y0129200D01*
X0181695Y0129200D02*
X0181695Y0134400D01*
X0171695Y0134400D02*
X0171695Y0129200D01*
X0161695Y0129200D02*
X0161695Y0134400D01*
X0151695Y0134400D02*
X0151695Y0129200D01*
X0141695Y0129200D02*
X0141695Y0134400D01*
X0131695Y0134400D02*
X0131695Y0129200D01*
X0121695Y0129200D02*
X0121695Y0134400D01*
X0111695Y0134400D02*
X0111695Y0129200D01*
D26*
X0187195Y0085300D03*
X0206195Y0085300D03*
M02*
