G75*
%MOIN*%
%OFA0B0*%
%FSLAX25Y25*%
%IPPOS*%
%LPD*%
%AMOC8*
5,1,8,0,0,1.08239X$1,22.5*
%
%ADD10C,0.01000*%
%ADD11C,0.00000*%
%ADD12C,0.07400*%
%ADD13R,0.07400X0.07400*%
%ADD14C,0.06348*%
%ADD15C,0.08858*%
%ADD16OC8,0.05600*%
%ADD17C,0.06600*%
%ADD18OC8,0.06600*%
%ADD19OC8,0.05200*%
%ADD20OC8,0.07500*%
%ADD21OC8,0.06000*%
%ADD22C,0.09370*%
%ADD23C,0.05200*%
%ADD24C,0.05200*%
%ADD25C,0.03200*%
%ADD26C,0.01600*%
%ADD27C,0.03575*%
%ADD28C,0.03577*%
D10*
X0006695Y0005737D02*
X0006695Y0207863D01*
X0006697Y0207987D01*
X0006703Y0208110D01*
X0006712Y0208234D01*
X0006726Y0208356D01*
X0006743Y0208479D01*
X0006765Y0208601D01*
X0006790Y0208722D01*
X0006819Y0208842D01*
X0006851Y0208961D01*
X0006888Y0209080D01*
X0006928Y0209197D01*
X0006971Y0209312D01*
X0007019Y0209427D01*
X0007070Y0209539D01*
X0007124Y0209650D01*
X0007182Y0209760D01*
X0007243Y0209867D01*
X0007308Y0209973D01*
X0007376Y0210076D01*
X0007447Y0210177D01*
X0007521Y0210276D01*
X0007598Y0210373D01*
X0007679Y0210467D01*
X0007762Y0210558D01*
X0007848Y0210647D01*
X0007937Y0210733D01*
X0008028Y0210816D01*
X0008122Y0210897D01*
X0008219Y0210974D01*
X0008318Y0211048D01*
X0008419Y0211119D01*
X0008522Y0211187D01*
X0008628Y0211252D01*
X0008735Y0211313D01*
X0008845Y0211371D01*
X0008956Y0211425D01*
X0009068Y0211476D01*
X0009183Y0211524D01*
X0009298Y0211567D01*
X0009415Y0211607D01*
X0009534Y0211644D01*
X0009653Y0211676D01*
X0009773Y0211705D01*
X0009894Y0211730D01*
X0010016Y0211752D01*
X0010139Y0211769D01*
X0010261Y0211783D01*
X0010385Y0211792D01*
X0010508Y0211798D01*
X0010632Y0211800D01*
X0260695Y0211800D01*
X0266695Y0205800D01*
X0266695Y0160800D01*
X0276695Y0150800D01*
X0276695Y0021800D01*
X0266695Y0011800D01*
X0266695Y0005737D01*
X0266693Y0005613D01*
X0266687Y0005490D01*
X0266678Y0005366D01*
X0266664Y0005244D01*
X0266647Y0005121D01*
X0266625Y0004999D01*
X0266600Y0004878D01*
X0266571Y0004758D01*
X0266539Y0004639D01*
X0266502Y0004520D01*
X0266462Y0004403D01*
X0266419Y0004288D01*
X0266371Y0004173D01*
X0266320Y0004061D01*
X0266266Y0003950D01*
X0266208Y0003840D01*
X0266147Y0003733D01*
X0266082Y0003627D01*
X0266014Y0003524D01*
X0265943Y0003423D01*
X0265869Y0003324D01*
X0265792Y0003227D01*
X0265711Y0003133D01*
X0265628Y0003042D01*
X0265542Y0002953D01*
X0265453Y0002867D01*
X0265362Y0002784D01*
X0265268Y0002703D01*
X0265171Y0002626D01*
X0265072Y0002552D01*
X0264971Y0002481D01*
X0264868Y0002413D01*
X0264762Y0002348D01*
X0264655Y0002287D01*
X0264545Y0002229D01*
X0264434Y0002175D01*
X0264322Y0002124D01*
X0264207Y0002076D01*
X0264092Y0002033D01*
X0263975Y0001993D01*
X0263856Y0001956D01*
X0263737Y0001924D01*
X0263617Y0001895D01*
X0263496Y0001870D01*
X0263374Y0001848D01*
X0263251Y0001831D01*
X0263129Y0001817D01*
X0263005Y0001808D01*
X0262882Y0001802D01*
X0262758Y0001800D01*
X0010632Y0001800D01*
X0010508Y0001802D01*
X0010385Y0001808D01*
X0010261Y0001817D01*
X0010139Y0001831D01*
X0010016Y0001848D01*
X0009894Y0001870D01*
X0009773Y0001895D01*
X0009653Y0001924D01*
X0009534Y0001956D01*
X0009415Y0001993D01*
X0009298Y0002033D01*
X0009183Y0002076D01*
X0009068Y0002124D01*
X0008956Y0002175D01*
X0008845Y0002229D01*
X0008735Y0002287D01*
X0008628Y0002348D01*
X0008522Y0002413D01*
X0008419Y0002481D01*
X0008318Y0002552D01*
X0008219Y0002626D01*
X0008122Y0002703D01*
X0008028Y0002784D01*
X0007937Y0002867D01*
X0007848Y0002953D01*
X0007762Y0003042D01*
X0007679Y0003133D01*
X0007598Y0003227D01*
X0007521Y0003324D01*
X0007447Y0003423D01*
X0007376Y0003524D01*
X0007308Y0003627D01*
X0007243Y0003733D01*
X0007182Y0003840D01*
X0007124Y0003950D01*
X0007070Y0004061D01*
X0007019Y0004173D01*
X0006971Y0004288D01*
X0006928Y0004403D01*
X0006888Y0004520D01*
X0006851Y0004639D01*
X0006819Y0004758D01*
X0006790Y0004878D01*
X0006765Y0004999D01*
X0006743Y0005121D01*
X0006726Y0005244D01*
X0006712Y0005366D01*
X0006703Y0005490D01*
X0006697Y0005613D01*
X0006695Y0005737D01*
D11*
X0055396Y0011800D02*
X0055398Y0011958D01*
X0055404Y0012116D01*
X0055414Y0012274D01*
X0055428Y0012432D01*
X0055446Y0012589D01*
X0055467Y0012746D01*
X0055493Y0012902D01*
X0055523Y0013058D01*
X0055556Y0013213D01*
X0055594Y0013366D01*
X0055635Y0013519D01*
X0055680Y0013671D01*
X0055729Y0013822D01*
X0055782Y0013971D01*
X0055838Y0014119D01*
X0055898Y0014265D01*
X0055962Y0014410D01*
X0056030Y0014553D01*
X0056101Y0014695D01*
X0056175Y0014835D01*
X0056253Y0014972D01*
X0056335Y0015108D01*
X0056419Y0015242D01*
X0056508Y0015373D01*
X0056599Y0015502D01*
X0056694Y0015629D01*
X0056791Y0015754D01*
X0056892Y0015876D01*
X0056996Y0015995D01*
X0057103Y0016112D01*
X0057213Y0016226D01*
X0057326Y0016337D01*
X0057441Y0016446D01*
X0057559Y0016551D01*
X0057680Y0016653D01*
X0057803Y0016753D01*
X0057929Y0016849D01*
X0058057Y0016942D01*
X0058187Y0017032D01*
X0058320Y0017118D01*
X0058455Y0017202D01*
X0058591Y0017281D01*
X0058730Y0017358D01*
X0058871Y0017430D01*
X0059013Y0017500D01*
X0059157Y0017565D01*
X0059303Y0017627D01*
X0059450Y0017685D01*
X0059599Y0017740D01*
X0059749Y0017791D01*
X0059900Y0017838D01*
X0060052Y0017881D01*
X0060205Y0017920D01*
X0060360Y0017956D01*
X0060515Y0017987D01*
X0060671Y0018015D01*
X0060827Y0018039D01*
X0060984Y0018059D01*
X0061142Y0018075D01*
X0061299Y0018087D01*
X0061458Y0018095D01*
X0061616Y0018099D01*
X0061774Y0018099D01*
X0061932Y0018095D01*
X0062091Y0018087D01*
X0062248Y0018075D01*
X0062406Y0018059D01*
X0062563Y0018039D01*
X0062719Y0018015D01*
X0062875Y0017987D01*
X0063030Y0017956D01*
X0063185Y0017920D01*
X0063338Y0017881D01*
X0063490Y0017838D01*
X0063641Y0017791D01*
X0063791Y0017740D01*
X0063940Y0017685D01*
X0064087Y0017627D01*
X0064233Y0017565D01*
X0064377Y0017500D01*
X0064519Y0017430D01*
X0064660Y0017358D01*
X0064799Y0017281D01*
X0064935Y0017202D01*
X0065070Y0017118D01*
X0065203Y0017032D01*
X0065333Y0016942D01*
X0065461Y0016849D01*
X0065587Y0016753D01*
X0065710Y0016653D01*
X0065831Y0016551D01*
X0065949Y0016446D01*
X0066064Y0016337D01*
X0066177Y0016226D01*
X0066287Y0016112D01*
X0066394Y0015995D01*
X0066498Y0015876D01*
X0066599Y0015754D01*
X0066696Y0015629D01*
X0066791Y0015502D01*
X0066882Y0015373D01*
X0066971Y0015242D01*
X0067055Y0015108D01*
X0067137Y0014972D01*
X0067215Y0014835D01*
X0067289Y0014695D01*
X0067360Y0014553D01*
X0067428Y0014410D01*
X0067492Y0014265D01*
X0067552Y0014119D01*
X0067608Y0013971D01*
X0067661Y0013822D01*
X0067710Y0013671D01*
X0067755Y0013519D01*
X0067796Y0013366D01*
X0067834Y0013213D01*
X0067867Y0013058D01*
X0067897Y0012902D01*
X0067923Y0012746D01*
X0067944Y0012589D01*
X0067962Y0012432D01*
X0067976Y0012274D01*
X0067986Y0012116D01*
X0067992Y0011958D01*
X0067994Y0011800D01*
X0067992Y0011642D01*
X0067986Y0011484D01*
X0067976Y0011326D01*
X0067962Y0011168D01*
X0067944Y0011011D01*
X0067923Y0010854D01*
X0067897Y0010698D01*
X0067867Y0010542D01*
X0067834Y0010387D01*
X0067796Y0010234D01*
X0067755Y0010081D01*
X0067710Y0009929D01*
X0067661Y0009778D01*
X0067608Y0009629D01*
X0067552Y0009481D01*
X0067492Y0009335D01*
X0067428Y0009190D01*
X0067360Y0009047D01*
X0067289Y0008905D01*
X0067215Y0008765D01*
X0067137Y0008628D01*
X0067055Y0008492D01*
X0066971Y0008358D01*
X0066882Y0008227D01*
X0066791Y0008098D01*
X0066696Y0007971D01*
X0066599Y0007846D01*
X0066498Y0007724D01*
X0066394Y0007605D01*
X0066287Y0007488D01*
X0066177Y0007374D01*
X0066064Y0007263D01*
X0065949Y0007154D01*
X0065831Y0007049D01*
X0065710Y0006947D01*
X0065587Y0006847D01*
X0065461Y0006751D01*
X0065333Y0006658D01*
X0065203Y0006568D01*
X0065070Y0006482D01*
X0064935Y0006398D01*
X0064799Y0006319D01*
X0064660Y0006242D01*
X0064519Y0006170D01*
X0064377Y0006100D01*
X0064233Y0006035D01*
X0064087Y0005973D01*
X0063940Y0005915D01*
X0063791Y0005860D01*
X0063641Y0005809D01*
X0063490Y0005762D01*
X0063338Y0005719D01*
X0063185Y0005680D01*
X0063030Y0005644D01*
X0062875Y0005613D01*
X0062719Y0005585D01*
X0062563Y0005561D01*
X0062406Y0005541D01*
X0062248Y0005525D01*
X0062091Y0005513D01*
X0061932Y0005505D01*
X0061774Y0005501D01*
X0061616Y0005501D01*
X0061458Y0005505D01*
X0061299Y0005513D01*
X0061142Y0005525D01*
X0060984Y0005541D01*
X0060827Y0005561D01*
X0060671Y0005585D01*
X0060515Y0005613D01*
X0060360Y0005644D01*
X0060205Y0005680D01*
X0060052Y0005719D01*
X0059900Y0005762D01*
X0059749Y0005809D01*
X0059599Y0005860D01*
X0059450Y0005915D01*
X0059303Y0005973D01*
X0059157Y0006035D01*
X0059013Y0006100D01*
X0058871Y0006170D01*
X0058730Y0006242D01*
X0058591Y0006319D01*
X0058455Y0006398D01*
X0058320Y0006482D01*
X0058187Y0006568D01*
X0058057Y0006658D01*
X0057929Y0006751D01*
X0057803Y0006847D01*
X0057680Y0006947D01*
X0057559Y0007049D01*
X0057441Y0007154D01*
X0057326Y0007263D01*
X0057213Y0007374D01*
X0057103Y0007488D01*
X0056996Y0007605D01*
X0056892Y0007724D01*
X0056791Y0007846D01*
X0056694Y0007971D01*
X0056599Y0008098D01*
X0056508Y0008227D01*
X0056419Y0008358D01*
X0056335Y0008492D01*
X0056253Y0008628D01*
X0056175Y0008765D01*
X0056101Y0008905D01*
X0056030Y0009047D01*
X0055962Y0009190D01*
X0055898Y0009335D01*
X0055838Y0009481D01*
X0055782Y0009629D01*
X0055729Y0009778D01*
X0055680Y0009929D01*
X0055635Y0010081D01*
X0055594Y0010234D01*
X0055556Y0010387D01*
X0055523Y0010542D01*
X0055493Y0010698D01*
X0055467Y0010854D01*
X0055446Y0011011D01*
X0055428Y0011168D01*
X0055414Y0011326D01*
X0055404Y0011484D01*
X0055398Y0011642D01*
X0055396Y0011800D01*
X0023940Y0143040D02*
X0023942Y0143121D01*
X0023948Y0143203D01*
X0023958Y0143284D01*
X0023972Y0143364D01*
X0023989Y0143443D01*
X0024011Y0143522D01*
X0024036Y0143599D01*
X0024065Y0143676D01*
X0024098Y0143750D01*
X0024135Y0143823D01*
X0024174Y0143894D01*
X0024218Y0143963D01*
X0024264Y0144030D01*
X0024314Y0144094D01*
X0024367Y0144156D01*
X0024423Y0144216D01*
X0024481Y0144272D01*
X0024543Y0144326D01*
X0024607Y0144377D01*
X0024673Y0144424D01*
X0024741Y0144468D01*
X0024812Y0144509D01*
X0024884Y0144546D01*
X0024959Y0144580D01*
X0025034Y0144610D01*
X0025112Y0144636D01*
X0025190Y0144659D01*
X0025269Y0144677D01*
X0025349Y0144692D01*
X0025430Y0144703D01*
X0025511Y0144710D01*
X0025593Y0144713D01*
X0025674Y0144712D01*
X0025755Y0144707D01*
X0025836Y0144698D01*
X0025917Y0144685D01*
X0025997Y0144668D01*
X0026075Y0144648D01*
X0026153Y0144623D01*
X0026230Y0144595D01*
X0026305Y0144563D01*
X0026378Y0144528D01*
X0026449Y0144489D01*
X0026519Y0144446D01*
X0026586Y0144401D01*
X0026652Y0144352D01*
X0026714Y0144300D01*
X0026774Y0144244D01*
X0026831Y0144186D01*
X0026886Y0144126D01*
X0026937Y0144062D01*
X0026985Y0143997D01*
X0027030Y0143929D01*
X0027072Y0143859D01*
X0027110Y0143787D01*
X0027145Y0143713D01*
X0027176Y0143638D01*
X0027203Y0143561D01*
X0027226Y0143483D01*
X0027246Y0143404D01*
X0027262Y0143324D01*
X0027274Y0143243D01*
X0027282Y0143162D01*
X0027286Y0143081D01*
X0027286Y0142999D01*
X0027282Y0142918D01*
X0027274Y0142837D01*
X0027262Y0142756D01*
X0027246Y0142676D01*
X0027226Y0142597D01*
X0027203Y0142519D01*
X0027176Y0142442D01*
X0027145Y0142367D01*
X0027110Y0142293D01*
X0027072Y0142221D01*
X0027030Y0142151D01*
X0026985Y0142083D01*
X0026937Y0142018D01*
X0026886Y0141954D01*
X0026831Y0141894D01*
X0026774Y0141836D01*
X0026714Y0141780D01*
X0026652Y0141728D01*
X0026586Y0141679D01*
X0026519Y0141634D01*
X0026450Y0141591D01*
X0026378Y0141552D01*
X0026305Y0141517D01*
X0026230Y0141485D01*
X0026153Y0141457D01*
X0026075Y0141432D01*
X0025997Y0141412D01*
X0025917Y0141395D01*
X0025836Y0141382D01*
X0025755Y0141373D01*
X0025674Y0141368D01*
X0025593Y0141367D01*
X0025511Y0141370D01*
X0025430Y0141377D01*
X0025349Y0141388D01*
X0025269Y0141403D01*
X0025190Y0141421D01*
X0025112Y0141444D01*
X0025034Y0141470D01*
X0024959Y0141500D01*
X0024884Y0141534D01*
X0024812Y0141571D01*
X0024741Y0141612D01*
X0024673Y0141656D01*
X0024607Y0141703D01*
X0024543Y0141754D01*
X0024481Y0141808D01*
X0024423Y0141864D01*
X0024367Y0141924D01*
X0024314Y0141986D01*
X0024264Y0142050D01*
X0024218Y0142117D01*
X0024174Y0142186D01*
X0024135Y0142257D01*
X0024098Y0142330D01*
X0024065Y0142404D01*
X0024036Y0142481D01*
X0024011Y0142558D01*
X0023989Y0142637D01*
X0023972Y0142716D01*
X0023958Y0142796D01*
X0023948Y0142877D01*
X0023942Y0142959D01*
X0023940Y0143040D01*
X0023940Y0160560D02*
X0023942Y0160641D01*
X0023948Y0160723D01*
X0023958Y0160804D01*
X0023972Y0160884D01*
X0023989Y0160963D01*
X0024011Y0161042D01*
X0024036Y0161119D01*
X0024065Y0161196D01*
X0024098Y0161270D01*
X0024135Y0161343D01*
X0024174Y0161414D01*
X0024218Y0161483D01*
X0024264Y0161550D01*
X0024314Y0161614D01*
X0024367Y0161676D01*
X0024423Y0161736D01*
X0024481Y0161792D01*
X0024543Y0161846D01*
X0024607Y0161897D01*
X0024673Y0161944D01*
X0024741Y0161988D01*
X0024812Y0162029D01*
X0024884Y0162066D01*
X0024959Y0162100D01*
X0025034Y0162130D01*
X0025112Y0162156D01*
X0025190Y0162179D01*
X0025269Y0162197D01*
X0025349Y0162212D01*
X0025430Y0162223D01*
X0025511Y0162230D01*
X0025593Y0162233D01*
X0025674Y0162232D01*
X0025755Y0162227D01*
X0025836Y0162218D01*
X0025917Y0162205D01*
X0025997Y0162188D01*
X0026075Y0162168D01*
X0026153Y0162143D01*
X0026230Y0162115D01*
X0026305Y0162083D01*
X0026378Y0162048D01*
X0026449Y0162009D01*
X0026519Y0161966D01*
X0026586Y0161921D01*
X0026652Y0161872D01*
X0026714Y0161820D01*
X0026774Y0161764D01*
X0026831Y0161706D01*
X0026886Y0161646D01*
X0026937Y0161582D01*
X0026985Y0161517D01*
X0027030Y0161449D01*
X0027072Y0161379D01*
X0027110Y0161307D01*
X0027145Y0161233D01*
X0027176Y0161158D01*
X0027203Y0161081D01*
X0027226Y0161003D01*
X0027246Y0160924D01*
X0027262Y0160844D01*
X0027274Y0160763D01*
X0027282Y0160682D01*
X0027286Y0160601D01*
X0027286Y0160519D01*
X0027282Y0160438D01*
X0027274Y0160357D01*
X0027262Y0160276D01*
X0027246Y0160196D01*
X0027226Y0160117D01*
X0027203Y0160039D01*
X0027176Y0159962D01*
X0027145Y0159887D01*
X0027110Y0159813D01*
X0027072Y0159741D01*
X0027030Y0159671D01*
X0026985Y0159603D01*
X0026937Y0159538D01*
X0026886Y0159474D01*
X0026831Y0159414D01*
X0026774Y0159356D01*
X0026714Y0159300D01*
X0026652Y0159248D01*
X0026586Y0159199D01*
X0026519Y0159154D01*
X0026450Y0159111D01*
X0026378Y0159072D01*
X0026305Y0159037D01*
X0026230Y0159005D01*
X0026153Y0158977D01*
X0026075Y0158952D01*
X0025997Y0158932D01*
X0025917Y0158915D01*
X0025836Y0158902D01*
X0025755Y0158893D01*
X0025674Y0158888D01*
X0025593Y0158887D01*
X0025511Y0158890D01*
X0025430Y0158897D01*
X0025349Y0158908D01*
X0025269Y0158923D01*
X0025190Y0158941D01*
X0025112Y0158964D01*
X0025034Y0158990D01*
X0024959Y0159020D01*
X0024884Y0159054D01*
X0024812Y0159091D01*
X0024741Y0159132D01*
X0024673Y0159176D01*
X0024607Y0159223D01*
X0024543Y0159274D01*
X0024481Y0159328D01*
X0024423Y0159384D01*
X0024367Y0159444D01*
X0024314Y0159506D01*
X0024264Y0159570D01*
X0024218Y0159637D01*
X0024174Y0159706D01*
X0024135Y0159777D01*
X0024098Y0159850D01*
X0024065Y0159924D01*
X0024036Y0160001D01*
X0024011Y0160078D01*
X0023989Y0160157D01*
X0023972Y0160236D01*
X0023958Y0160316D01*
X0023948Y0160397D01*
X0023942Y0160479D01*
X0023940Y0160560D01*
X0060396Y0201800D02*
X0060398Y0201958D01*
X0060404Y0202116D01*
X0060414Y0202274D01*
X0060428Y0202432D01*
X0060446Y0202589D01*
X0060467Y0202746D01*
X0060493Y0202902D01*
X0060523Y0203058D01*
X0060556Y0203213D01*
X0060594Y0203366D01*
X0060635Y0203519D01*
X0060680Y0203671D01*
X0060729Y0203822D01*
X0060782Y0203971D01*
X0060838Y0204119D01*
X0060898Y0204265D01*
X0060962Y0204410D01*
X0061030Y0204553D01*
X0061101Y0204695D01*
X0061175Y0204835D01*
X0061253Y0204972D01*
X0061335Y0205108D01*
X0061419Y0205242D01*
X0061508Y0205373D01*
X0061599Y0205502D01*
X0061694Y0205629D01*
X0061791Y0205754D01*
X0061892Y0205876D01*
X0061996Y0205995D01*
X0062103Y0206112D01*
X0062213Y0206226D01*
X0062326Y0206337D01*
X0062441Y0206446D01*
X0062559Y0206551D01*
X0062680Y0206653D01*
X0062803Y0206753D01*
X0062929Y0206849D01*
X0063057Y0206942D01*
X0063187Y0207032D01*
X0063320Y0207118D01*
X0063455Y0207202D01*
X0063591Y0207281D01*
X0063730Y0207358D01*
X0063871Y0207430D01*
X0064013Y0207500D01*
X0064157Y0207565D01*
X0064303Y0207627D01*
X0064450Y0207685D01*
X0064599Y0207740D01*
X0064749Y0207791D01*
X0064900Y0207838D01*
X0065052Y0207881D01*
X0065205Y0207920D01*
X0065360Y0207956D01*
X0065515Y0207987D01*
X0065671Y0208015D01*
X0065827Y0208039D01*
X0065984Y0208059D01*
X0066142Y0208075D01*
X0066299Y0208087D01*
X0066458Y0208095D01*
X0066616Y0208099D01*
X0066774Y0208099D01*
X0066932Y0208095D01*
X0067091Y0208087D01*
X0067248Y0208075D01*
X0067406Y0208059D01*
X0067563Y0208039D01*
X0067719Y0208015D01*
X0067875Y0207987D01*
X0068030Y0207956D01*
X0068185Y0207920D01*
X0068338Y0207881D01*
X0068490Y0207838D01*
X0068641Y0207791D01*
X0068791Y0207740D01*
X0068940Y0207685D01*
X0069087Y0207627D01*
X0069233Y0207565D01*
X0069377Y0207500D01*
X0069519Y0207430D01*
X0069660Y0207358D01*
X0069799Y0207281D01*
X0069935Y0207202D01*
X0070070Y0207118D01*
X0070203Y0207032D01*
X0070333Y0206942D01*
X0070461Y0206849D01*
X0070587Y0206753D01*
X0070710Y0206653D01*
X0070831Y0206551D01*
X0070949Y0206446D01*
X0071064Y0206337D01*
X0071177Y0206226D01*
X0071287Y0206112D01*
X0071394Y0205995D01*
X0071498Y0205876D01*
X0071599Y0205754D01*
X0071696Y0205629D01*
X0071791Y0205502D01*
X0071882Y0205373D01*
X0071971Y0205242D01*
X0072055Y0205108D01*
X0072137Y0204972D01*
X0072215Y0204835D01*
X0072289Y0204695D01*
X0072360Y0204553D01*
X0072428Y0204410D01*
X0072492Y0204265D01*
X0072552Y0204119D01*
X0072608Y0203971D01*
X0072661Y0203822D01*
X0072710Y0203671D01*
X0072755Y0203519D01*
X0072796Y0203366D01*
X0072834Y0203213D01*
X0072867Y0203058D01*
X0072897Y0202902D01*
X0072923Y0202746D01*
X0072944Y0202589D01*
X0072962Y0202432D01*
X0072976Y0202274D01*
X0072986Y0202116D01*
X0072992Y0201958D01*
X0072994Y0201800D01*
X0072992Y0201642D01*
X0072986Y0201484D01*
X0072976Y0201326D01*
X0072962Y0201168D01*
X0072944Y0201011D01*
X0072923Y0200854D01*
X0072897Y0200698D01*
X0072867Y0200542D01*
X0072834Y0200387D01*
X0072796Y0200234D01*
X0072755Y0200081D01*
X0072710Y0199929D01*
X0072661Y0199778D01*
X0072608Y0199629D01*
X0072552Y0199481D01*
X0072492Y0199335D01*
X0072428Y0199190D01*
X0072360Y0199047D01*
X0072289Y0198905D01*
X0072215Y0198765D01*
X0072137Y0198628D01*
X0072055Y0198492D01*
X0071971Y0198358D01*
X0071882Y0198227D01*
X0071791Y0198098D01*
X0071696Y0197971D01*
X0071599Y0197846D01*
X0071498Y0197724D01*
X0071394Y0197605D01*
X0071287Y0197488D01*
X0071177Y0197374D01*
X0071064Y0197263D01*
X0070949Y0197154D01*
X0070831Y0197049D01*
X0070710Y0196947D01*
X0070587Y0196847D01*
X0070461Y0196751D01*
X0070333Y0196658D01*
X0070203Y0196568D01*
X0070070Y0196482D01*
X0069935Y0196398D01*
X0069799Y0196319D01*
X0069660Y0196242D01*
X0069519Y0196170D01*
X0069377Y0196100D01*
X0069233Y0196035D01*
X0069087Y0195973D01*
X0068940Y0195915D01*
X0068791Y0195860D01*
X0068641Y0195809D01*
X0068490Y0195762D01*
X0068338Y0195719D01*
X0068185Y0195680D01*
X0068030Y0195644D01*
X0067875Y0195613D01*
X0067719Y0195585D01*
X0067563Y0195561D01*
X0067406Y0195541D01*
X0067248Y0195525D01*
X0067091Y0195513D01*
X0066932Y0195505D01*
X0066774Y0195501D01*
X0066616Y0195501D01*
X0066458Y0195505D01*
X0066299Y0195513D01*
X0066142Y0195525D01*
X0065984Y0195541D01*
X0065827Y0195561D01*
X0065671Y0195585D01*
X0065515Y0195613D01*
X0065360Y0195644D01*
X0065205Y0195680D01*
X0065052Y0195719D01*
X0064900Y0195762D01*
X0064749Y0195809D01*
X0064599Y0195860D01*
X0064450Y0195915D01*
X0064303Y0195973D01*
X0064157Y0196035D01*
X0064013Y0196100D01*
X0063871Y0196170D01*
X0063730Y0196242D01*
X0063591Y0196319D01*
X0063455Y0196398D01*
X0063320Y0196482D01*
X0063187Y0196568D01*
X0063057Y0196658D01*
X0062929Y0196751D01*
X0062803Y0196847D01*
X0062680Y0196947D01*
X0062559Y0197049D01*
X0062441Y0197154D01*
X0062326Y0197263D01*
X0062213Y0197374D01*
X0062103Y0197488D01*
X0061996Y0197605D01*
X0061892Y0197724D01*
X0061791Y0197846D01*
X0061694Y0197971D01*
X0061599Y0198098D01*
X0061508Y0198227D01*
X0061419Y0198358D01*
X0061335Y0198492D01*
X0061253Y0198628D01*
X0061175Y0198765D01*
X0061101Y0198905D01*
X0061030Y0199047D01*
X0060962Y0199190D01*
X0060898Y0199335D01*
X0060838Y0199481D01*
X0060782Y0199629D01*
X0060729Y0199778D01*
X0060680Y0199929D01*
X0060635Y0200081D01*
X0060594Y0200234D01*
X0060556Y0200387D01*
X0060523Y0200542D01*
X0060493Y0200698D01*
X0060467Y0200854D01*
X0060446Y0201011D01*
X0060428Y0201168D01*
X0060414Y0201326D01*
X0060404Y0201484D01*
X0060398Y0201642D01*
X0060396Y0201800D01*
X0260396Y0141800D02*
X0260398Y0141958D01*
X0260404Y0142116D01*
X0260414Y0142274D01*
X0260428Y0142432D01*
X0260446Y0142589D01*
X0260467Y0142746D01*
X0260493Y0142902D01*
X0260523Y0143058D01*
X0260556Y0143213D01*
X0260594Y0143366D01*
X0260635Y0143519D01*
X0260680Y0143671D01*
X0260729Y0143822D01*
X0260782Y0143971D01*
X0260838Y0144119D01*
X0260898Y0144265D01*
X0260962Y0144410D01*
X0261030Y0144553D01*
X0261101Y0144695D01*
X0261175Y0144835D01*
X0261253Y0144972D01*
X0261335Y0145108D01*
X0261419Y0145242D01*
X0261508Y0145373D01*
X0261599Y0145502D01*
X0261694Y0145629D01*
X0261791Y0145754D01*
X0261892Y0145876D01*
X0261996Y0145995D01*
X0262103Y0146112D01*
X0262213Y0146226D01*
X0262326Y0146337D01*
X0262441Y0146446D01*
X0262559Y0146551D01*
X0262680Y0146653D01*
X0262803Y0146753D01*
X0262929Y0146849D01*
X0263057Y0146942D01*
X0263187Y0147032D01*
X0263320Y0147118D01*
X0263455Y0147202D01*
X0263591Y0147281D01*
X0263730Y0147358D01*
X0263871Y0147430D01*
X0264013Y0147500D01*
X0264157Y0147565D01*
X0264303Y0147627D01*
X0264450Y0147685D01*
X0264599Y0147740D01*
X0264749Y0147791D01*
X0264900Y0147838D01*
X0265052Y0147881D01*
X0265205Y0147920D01*
X0265360Y0147956D01*
X0265515Y0147987D01*
X0265671Y0148015D01*
X0265827Y0148039D01*
X0265984Y0148059D01*
X0266142Y0148075D01*
X0266299Y0148087D01*
X0266458Y0148095D01*
X0266616Y0148099D01*
X0266774Y0148099D01*
X0266932Y0148095D01*
X0267091Y0148087D01*
X0267248Y0148075D01*
X0267406Y0148059D01*
X0267563Y0148039D01*
X0267719Y0148015D01*
X0267875Y0147987D01*
X0268030Y0147956D01*
X0268185Y0147920D01*
X0268338Y0147881D01*
X0268490Y0147838D01*
X0268641Y0147791D01*
X0268791Y0147740D01*
X0268940Y0147685D01*
X0269087Y0147627D01*
X0269233Y0147565D01*
X0269377Y0147500D01*
X0269519Y0147430D01*
X0269660Y0147358D01*
X0269799Y0147281D01*
X0269935Y0147202D01*
X0270070Y0147118D01*
X0270203Y0147032D01*
X0270333Y0146942D01*
X0270461Y0146849D01*
X0270587Y0146753D01*
X0270710Y0146653D01*
X0270831Y0146551D01*
X0270949Y0146446D01*
X0271064Y0146337D01*
X0271177Y0146226D01*
X0271287Y0146112D01*
X0271394Y0145995D01*
X0271498Y0145876D01*
X0271599Y0145754D01*
X0271696Y0145629D01*
X0271791Y0145502D01*
X0271882Y0145373D01*
X0271971Y0145242D01*
X0272055Y0145108D01*
X0272137Y0144972D01*
X0272215Y0144835D01*
X0272289Y0144695D01*
X0272360Y0144553D01*
X0272428Y0144410D01*
X0272492Y0144265D01*
X0272552Y0144119D01*
X0272608Y0143971D01*
X0272661Y0143822D01*
X0272710Y0143671D01*
X0272755Y0143519D01*
X0272796Y0143366D01*
X0272834Y0143213D01*
X0272867Y0143058D01*
X0272897Y0142902D01*
X0272923Y0142746D01*
X0272944Y0142589D01*
X0272962Y0142432D01*
X0272976Y0142274D01*
X0272986Y0142116D01*
X0272992Y0141958D01*
X0272994Y0141800D01*
X0272992Y0141642D01*
X0272986Y0141484D01*
X0272976Y0141326D01*
X0272962Y0141168D01*
X0272944Y0141011D01*
X0272923Y0140854D01*
X0272897Y0140698D01*
X0272867Y0140542D01*
X0272834Y0140387D01*
X0272796Y0140234D01*
X0272755Y0140081D01*
X0272710Y0139929D01*
X0272661Y0139778D01*
X0272608Y0139629D01*
X0272552Y0139481D01*
X0272492Y0139335D01*
X0272428Y0139190D01*
X0272360Y0139047D01*
X0272289Y0138905D01*
X0272215Y0138765D01*
X0272137Y0138628D01*
X0272055Y0138492D01*
X0271971Y0138358D01*
X0271882Y0138227D01*
X0271791Y0138098D01*
X0271696Y0137971D01*
X0271599Y0137846D01*
X0271498Y0137724D01*
X0271394Y0137605D01*
X0271287Y0137488D01*
X0271177Y0137374D01*
X0271064Y0137263D01*
X0270949Y0137154D01*
X0270831Y0137049D01*
X0270710Y0136947D01*
X0270587Y0136847D01*
X0270461Y0136751D01*
X0270333Y0136658D01*
X0270203Y0136568D01*
X0270070Y0136482D01*
X0269935Y0136398D01*
X0269799Y0136319D01*
X0269660Y0136242D01*
X0269519Y0136170D01*
X0269377Y0136100D01*
X0269233Y0136035D01*
X0269087Y0135973D01*
X0268940Y0135915D01*
X0268791Y0135860D01*
X0268641Y0135809D01*
X0268490Y0135762D01*
X0268338Y0135719D01*
X0268185Y0135680D01*
X0268030Y0135644D01*
X0267875Y0135613D01*
X0267719Y0135585D01*
X0267563Y0135561D01*
X0267406Y0135541D01*
X0267248Y0135525D01*
X0267091Y0135513D01*
X0266932Y0135505D01*
X0266774Y0135501D01*
X0266616Y0135501D01*
X0266458Y0135505D01*
X0266299Y0135513D01*
X0266142Y0135525D01*
X0265984Y0135541D01*
X0265827Y0135561D01*
X0265671Y0135585D01*
X0265515Y0135613D01*
X0265360Y0135644D01*
X0265205Y0135680D01*
X0265052Y0135719D01*
X0264900Y0135762D01*
X0264749Y0135809D01*
X0264599Y0135860D01*
X0264450Y0135915D01*
X0264303Y0135973D01*
X0264157Y0136035D01*
X0264013Y0136100D01*
X0263871Y0136170D01*
X0263730Y0136242D01*
X0263591Y0136319D01*
X0263455Y0136398D01*
X0263320Y0136482D01*
X0263187Y0136568D01*
X0263057Y0136658D01*
X0262929Y0136751D01*
X0262803Y0136847D01*
X0262680Y0136947D01*
X0262559Y0137049D01*
X0262441Y0137154D01*
X0262326Y0137263D01*
X0262213Y0137374D01*
X0262103Y0137488D01*
X0261996Y0137605D01*
X0261892Y0137724D01*
X0261791Y0137846D01*
X0261694Y0137971D01*
X0261599Y0138098D01*
X0261508Y0138227D01*
X0261419Y0138358D01*
X0261335Y0138492D01*
X0261253Y0138628D01*
X0261175Y0138765D01*
X0261101Y0138905D01*
X0261030Y0139047D01*
X0260962Y0139190D01*
X0260898Y0139335D01*
X0260838Y0139481D01*
X0260782Y0139629D01*
X0260729Y0139778D01*
X0260680Y0139929D01*
X0260635Y0140081D01*
X0260594Y0140234D01*
X0260556Y0140387D01*
X0260523Y0140542D01*
X0260493Y0140698D01*
X0260467Y0140854D01*
X0260446Y0141011D01*
X0260428Y0141168D01*
X0260414Y0141326D01*
X0260404Y0141484D01*
X0260398Y0141642D01*
X0260396Y0141800D01*
X0260396Y0031800D02*
X0260398Y0031958D01*
X0260404Y0032116D01*
X0260414Y0032274D01*
X0260428Y0032432D01*
X0260446Y0032589D01*
X0260467Y0032746D01*
X0260493Y0032902D01*
X0260523Y0033058D01*
X0260556Y0033213D01*
X0260594Y0033366D01*
X0260635Y0033519D01*
X0260680Y0033671D01*
X0260729Y0033822D01*
X0260782Y0033971D01*
X0260838Y0034119D01*
X0260898Y0034265D01*
X0260962Y0034410D01*
X0261030Y0034553D01*
X0261101Y0034695D01*
X0261175Y0034835D01*
X0261253Y0034972D01*
X0261335Y0035108D01*
X0261419Y0035242D01*
X0261508Y0035373D01*
X0261599Y0035502D01*
X0261694Y0035629D01*
X0261791Y0035754D01*
X0261892Y0035876D01*
X0261996Y0035995D01*
X0262103Y0036112D01*
X0262213Y0036226D01*
X0262326Y0036337D01*
X0262441Y0036446D01*
X0262559Y0036551D01*
X0262680Y0036653D01*
X0262803Y0036753D01*
X0262929Y0036849D01*
X0263057Y0036942D01*
X0263187Y0037032D01*
X0263320Y0037118D01*
X0263455Y0037202D01*
X0263591Y0037281D01*
X0263730Y0037358D01*
X0263871Y0037430D01*
X0264013Y0037500D01*
X0264157Y0037565D01*
X0264303Y0037627D01*
X0264450Y0037685D01*
X0264599Y0037740D01*
X0264749Y0037791D01*
X0264900Y0037838D01*
X0265052Y0037881D01*
X0265205Y0037920D01*
X0265360Y0037956D01*
X0265515Y0037987D01*
X0265671Y0038015D01*
X0265827Y0038039D01*
X0265984Y0038059D01*
X0266142Y0038075D01*
X0266299Y0038087D01*
X0266458Y0038095D01*
X0266616Y0038099D01*
X0266774Y0038099D01*
X0266932Y0038095D01*
X0267091Y0038087D01*
X0267248Y0038075D01*
X0267406Y0038059D01*
X0267563Y0038039D01*
X0267719Y0038015D01*
X0267875Y0037987D01*
X0268030Y0037956D01*
X0268185Y0037920D01*
X0268338Y0037881D01*
X0268490Y0037838D01*
X0268641Y0037791D01*
X0268791Y0037740D01*
X0268940Y0037685D01*
X0269087Y0037627D01*
X0269233Y0037565D01*
X0269377Y0037500D01*
X0269519Y0037430D01*
X0269660Y0037358D01*
X0269799Y0037281D01*
X0269935Y0037202D01*
X0270070Y0037118D01*
X0270203Y0037032D01*
X0270333Y0036942D01*
X0270461Y0036849D01*
X0270587Y0036753D01*
X0270710Y0036653D01*
X0270831Y0036551D01*
X0270949Y0036446D01*
X0271064Y0036337D01*
X0271177Y0036226D01*
X0271287Y0036112D01*
X0271394Y0035995D01*
X0271498Y0035876D01*
X0271599Y0035754D01*
X0271696Y0035629D01*
X0271791Y0035502D01*
X0271882Y0035373D01*
X0271971Y0035242D01*
X0272055Y0035108D01*
X0272137Y0034972D01*
X0272215Y0034835D01*
X0272289Y0034695D01*
X0272360Y0034553D01*
X0272428Y0034410D01*
X0272492Y0034265D01*
X0272552Y0034119D01*
X0272608Y0033971D01*
X0272661Y0033822D01*
X0272710Y0033671D01*
X0272755Y0033519D01*
X0272796Y0033366D01*
X0272834Y0033213D01*
X0272867Y0033058D01*
X0272897Y0032902D01*
X0272923Y0032746D01*
X0272944Y0032589D01*
X0272962Y0032432D01*
X0272976Y0032274D01*
X0272986Y0032116D01*
X0272992Y0031958D01*
X0272994Y0031800D01*
X0272992Y0031642D01*
X0272986Y0031484D01*
X0272976Y0031326D01*
X0272962Y0031168D01*
X0272944Y0031011D01*
X0272923Y0030854D01*
X0272897Y0030698D01*
X0272867Y0030542D01*
X0272834Y0030387D01*
X0272796Y0030234D01*
X0272755Y0030081D01*
X0272710Y0029929D01*
X0272661Y0029778D01*
X0272608Y0029629D01*
X0272552Y0029481D01*
X0272492Y0029335D01*
X0272428Y0029190D01*
X0272360Y0029047D01*
X0272289Y0028905D01*
X0272215Y0028765D01*
X0272137Y0028628D01*
X0272055Y0028492D01*
X0271971Y0028358D01*
X0271882Y0028227D01*
X0271791Y0028098D01*
X0271696Y0027971D01*
X0271599Y0027846D01*
X0271498Y0027724D01*
X0271394Y0027605D01*
X0271287Y0027488D01*
X0271177Y0027374D01*
X0271064Y0027263D01*
X0270949Y0027154D01*
X0270831Y0027049D01*
X0270710Y0026947D01*
X0270587Y0026847D01*
X0270461Y0026751D01*
X0270333Y0026658D01*
X0270203Y0026568D01*
X0270070Y0026482D01*
X0269935Y0026398D01*
X0269799Y0026319D01*
X0269660Y0026242D01*
X0269519Y0026170D01*
X0269377Y0026100D01*
X0269233Y0026035D01*
X0269087Y0025973D01*
X0268940Y0025915D01*
X0268791Y0025860D01*
X0268641Y0025809D01*
X0268490Y0025762D01*
X0268338Y0025719D01*
X0268185Y0025680D01*
X0268030Y0025644D01*
X0267875Y0025613D01*
X0267719Y0025585D01*
X0267563Y0025561D01*
X0267406Y0025541D01*
X0267248Y0025525D01*
X0267091Y0025513D01*
X0266932Y0025505D01*
X0266774Y0025501D01*
X0266616Y0025501D01*
X0266458Y0025505D01*
X0266299Y0025513D01*
X0266142Y0025525D01*
X0265984Y0025541D01*
X0265827Y0025561D01*
X0265671Y0025585D01*
X0265515Y0025613D01*
X0265360Y0025644D01*
X0265205Y0025680D01*
X0265052Y0025719D01*
X0264900Y0025762D01*
X0264749Y0025809D01*
X0264599Y0025860D01*
X0264450Y0025915D01*
X0264303Y0025973D01*
X0264157Y0026035D01*
X0264013Y0026100D01*
X0263871Y0026170D01*
X0263730Y0026242D01*
X0263591Y0026319D01*
X0263455Y0026398D01*
X0263320Y0026482D01*
X0263187Y0026568D01*
X0263057Y0026658D01*
X0262929Y0026751D01*
X0262803Y0026847D01*
X0262680Y0026947D01*
X0262559Y0027049D01*
X0262441Y0027154D01*
X0262326Y0027263D01*
X0262213Y0027374D01*
X0262103Y0027488D01*
X0261996Y0027605D01*
X0261892Y0027724D01*
X0261791Y0027846D01*
X0261694Y0027971D01*
X0261599Y0028098D01*
X0261508Y0028227D01*
X0261419Y0028358D01*
X0261335Y0028492D01*
X0261253Y0028628D01*
X0261175Y0028765D01*
X0261101Y0028905D01*
X0261030Y0029047D01*
X0260962Y0029190D01*
X0260898Y0029335D01*
X0260838Y0029481D01*
X0260782Y0029629D01*
X0260729Y0029778D01*
X0260680Y0029929D01*
X0260635Y0030081D01*
X0260594Y0030234D01*
X0260556Y0030387D01*
X0260523Y0030542D01*
X0260493Y0030698D01*
X0260467Y0030854D01*
X0260446Y0031011D01*
X0260428Y0031168D01*
X0260414Y0031326D01*
X0260404Y0031484D01*
X0260398Y0031642D01*
X0260396Y0031800D01*
D12*
X0256695Y0011800D03*
X0246695Y0011800D03*
X0236695Y0011800D03*
X0226695Y0011800D03*
X0216695Y0011800D03*
X0206695Y0011800D03*
X0186695Y0011800D03*
X0176695Y0011800D03*
X0166695Y0011800D03*
X0156695Y0011800D03*
X0146695Y0011800D03*
X0136695Y0011800D03*
X0111695Y0061800D03*
X0104195Y0066800D03*
X0111695Y0071800D03*
X0057195Y0049300D03*
X0057195Y0029300D03*
X0061695Y0146800D03*
X0081695Y0146800D03*
X0100695Y0201800D03*
X0110695Y0201800D03*
X0120695Y0201800D03*
X0130695Y0201800D03*
X0140695Y0201800D03*
X0150695Y0201800D03*
X0160695Y0201800D03*
X0186695Y0201800D03*
X0196695Y0201800D03*
X0206695Y0201800D03*
X0216695Y0201800D03*
X0226695Y0201800D03*
X0236695Y0201800D03*
X0246695Y0201800D03*
X0267695Y0111800D03*
X0266695Y0101800D03*
X0267695Y0091800D03*
X0266695Y0081800D03*
X0267695Y0071800D03*
X0266695Y0061800D03*
D13*
X0256695Y0201800D03*
X0170695Y0201800D03*
D14*
X0025613Y0160560D03*
X0025613Y0143040D03*
D15*
X0014195Y0135363D03*
X0014195Y0168237D03*
D16*
X0111695Y0146800D03*
X0121695Y0146800D03*
X0191695Y0146800D03*
X0201695Y0146800D03*
X0236695Y0086800D03*
X0236695Y0076800D03*
X0211695Y0070300D03*
X0201695Y0070300D03*
X0191695Y0070300D03*
X0181695Y0070300D03*
X0116695Y0041800D03*
X0116695Y0031800D03*
D17*
X0103195Y0026800D03*
X0103195Y0041800D03*
X0091695Y0061800D03*
X0073195Y0041800D03*
X0073195Y0026800D03*
X0091695Y0081800D03*
D18*
X0081695Y0081800D03*
X0081695Y0061800D03*
D19*
X0026695Y0066800D03*
X0016695Y0066800D03*
X0016695Y0086800D03*
X0026695Y0086800D03*
D20*
X0018895Y0102900D03*
X0018895Y0120700D03*
X0044495Y0120700D03*
X0044495Y0102900D03*
X0044495Y0182900D03*
X0044495Y0200700D03*
X0018895Y0200700D03*
X0018895Y0182900D03*
D21*
X0056695Y0181800D03*
X0056695Y0166800D03*
X0086695Y0166800D03*
X0086695Y0181800D03*
X0086695Y0126800D03*
X0086695Y0111800D03*
X0056695Y0111800D03*
X0056695Y0126800D03*
X0066695Y0086800D03*
X0066695Y0066800D03*
X0036695Y0066800D03*
X0036695Y0086800D03*
D22*
X0028152Y0041643D02*
X0018782Y0041643D01*
X0018782Y0021957D02*
X0028152Y0021957D01*
D23*
X0111695Y0099200D02*
X0111695Y0104400D01*
X0121695Y0104400D02*
X0121695Y0099200D01*
X0131695Y0099200D02*
X0131695Y0104400D01*
X0141695Y0104400D02*
X0141695Y0099200D01*
X0151695Y0099200D02*
X0151695Y0104400D01*
X0161695Y0104400D02*
X0161695Y0099200D01*
X0171695Y0099200D02*
X0171695Y0104400D01*
X0181695Y0104400D02*
X0181695Y0099200D01*
X0191695Y0099200D02*
X0191695Y0104400D01*
X0201695Y0104400D02*
X0201695Y0099200D01*
X0211695Y0099200D02*
X0211695Y0104400D01*
X0221695Y0104400D02*
X0221695Y0099200D01*
X0231695Y0099200D02*
X0231695Y0104400D01*
X0241695Y0104400D02*
X0241695Y0099200D01*
X0241695Y0129200D02*
X0241695Y0134400D01*
X0231695Y0134400D02*
X0231695Y0129200D01*
X0221695Y0129200D02*
X0221695Y0134400D01*
X0211695Y0134400D02*
X0211695Y0129200D01*
X0201695Y0129200D02*
X0201695Y0134400D01*
X0191695Y0134400D02*
X0191695Y0129200D01*
X0181695Y0129200D02*
X0181695Y0134400D01*
X0171695Y0134400D02*
X0171695Y0129200D01*
X0161695Y0129200D02*
X0161695Y0134400D01*
X0151695Y0134400D02*
X0151695Y0129200D01*
X0141695Y0129200D02*
X0141695Y0134400D01*
X0131695Y0134400D02*
X0131695Y0129200D01*
X0121695Y0129200D02*
X0121695Y0134400D01*
X0111695Y0134400D02*
X0111695Y0129200D01*
D24*
X0187195Y0085300D03*
X0206195Y0085300D03*
D25*
X0131695Y0076800D02*
X0131695Y0056800D01*
X0116695Y0041800D01*
X0103195Y0041800D01*
X0094195Y0034300D02*
X0094195Y0022300D01*
X0099195Y0017300D01*
X0120195Y0017300D01*
X0127195Y0024300D01*
X0181695Y0024300D01*
X0186695Y0019300D01*
X0186695Y0011800D01*
X0111695Y0071800D02*
X0109195Y0074300D01*
X0099195Y0074300D01*
X0091695Y0081800D01*
X0091695Y0086800D01*
X0076695Y0101800D01*
X0072945Y0105550D01*
X0072945Y0160550D01*
X0079195Y0166800D01*
X0086695Y0166800D01*
X0081695Y0146800D02*
X0078195Y0143300D01*
X0078195Y0107800D01*
X0102945Y0082550D01*
X0125945Y0082550D01*
X0131695Y0076800D01*
X0104195Y0066800D02*
X0096695Y0066800D01*
X0091695Y0061800D01*
X0091695Y0046800D01*
X0086695Y0041800D01*
X0094195Y0034300D01*
X0086695Y0041800D02*
X0073195Y0041800D01*
X0065695Y0049300D01*
X0057195Y0049300D01*
X0073195Y0041800D02*
X0073195Y0026800D01*
X0057195Y0029300D02*
X0049853Y0021957D01*
X0023467Y0021957D01*
D26*
X0017452Y0015272D02*
X0029482Y0015272D01*
X0031939Y0016290D01*
X0033819Y0018171D01*
X0033897Y0018357D01*
X0050569Y0018357D01*
X0051892Y0018906D01*
X0056586Y0023600D01*
X0058329Y0023600D01*
X0060424Y0024468D01*
X0062027Y0026071D01*
X0062895Y0028166D01*
X0062895Y0030434D01*
X0062027Y0032529D01*
X0060424Y0034132D01*
X0058329Y0035000D01*
X0056061Y0035000D01*
X0053966Y0034132D01*
X0052363Y0032529D01*
X0051495Y0030434D01*
X0051495Y0028691D01*
X0048362Y0025557D01*
X0033897Y0025557D01*
X0033819Y0025744D01*
X0031939Y0027625D01*
X0029482Y0028643D01*
X0017452Y0028643D01*
X0014995Y0027625D01*
X0013115Y0025744D01*
X0012097Y0023287D01*
X0012097Y0020628D01*
X0013115Y0018171D01*
X0014995Y0016290D01*
X0017452Y0015272D01*
X0015245Y0016187D02*
X0009195Y0016187D01*
X0009195Y0017785D02*
X0013500Y0017785D01*
X0012612Y0019384D02*
X0009195Y0019384D01*
X0009195Y0020982D02*
X0012097Y0020982D01*
X0012097Y0022581D02*
X0009195Y0022581D01*
X0009195Y0024179D02*
X0012466Y0024179D01*
X0013148Y0025778D02*
X0009195Y0025778D01*
X0009195Y0027376D02*
X0014747Y0027376D01*
X0009195Y0028975D02*
X0051495Y0028975D01*
X0051553Y0030573D02*
X0009195Y0030573D01*
X0009195Y0032172D02*
X0052215Y0032172D01*
X0053604Y0033770D02*
X0009195Y0033770D01*
X0009195Y0035369D02*
X0017140Y0035369D01*
X0017514Y0035268D02*
X0018357Y0035157D01*
X0022889Y0035157D01*
X0022889Y0041064D01*
X0024045Y0041064D01*
X0024045Y0035157D01*
X0028577Y0035157D01*
X0029420Y0035268D01*
X0030241Y0035488D01*
X0031026Y0035814D01*
X0031763Y0036239D01*
X0032437Y0036756D01*
X0033038Y0037357D01*
X0033556Y0038032D01*
X0033981Y0038768D01*
X0034306Y0039553D01*
X0034526Y0040375D01*
X0034617Y0041065D01*
X0024045Y0041065D01*
X0024045Y0042220D01*
X0034617Y0042220D01*
X0034526Y0042910D01*
X0034306Y0043732D01*
X0033981Y0044517D01*
X0033556Y0045253D01*
X0033038Y0045928D01*
X0032437Y0046529D01*
X0031763Y0047046D01*
X0031026Y0047471D01*
X0030241Y0047797D01*
X0029420Y0048017D01*
X0028577Y0048128D01*
X0024045Y0048128D01*
X0024045Y0042221D01*
X0022889Y0042221D01*
X0022889Y0048128D01*
X0018357Y0048128D01*
X0017514Y0048017D01*
X0016693Y0047797D01*
X0015907Y0047471D01*
X0015171Y0047046D01*
X0014497Y0046529D01*
X0013896Y0045928D01*
X0013378Y0045253D01*
X0012953Y0044517D01*
X0012628Y0043732D01*
X0012408Y0042910D01*
X0012317Y0042220D01*
X0022889Y0042220D01*
X0022889Y0041065D01*
X0012317Y0041065D01*
X0012408Y0040375D01*
X0012628Y0039553D01*
X0012953Y0038768D01*
X0013378Y0038032D01*
X0013896Y0037357D01*
X0014497Y0036756D01*
X0015171Y0036239D01*
X0015907Y0035814D01*
X0016693Y0035488D01*
X0017514Y0035268D01*
X0014286Y0036967D02*
X0009195Y0036967D01*
X0009195Y0038566D02*
X0013070Y0038566D01*
X0012464Y0040164D02*
X0009195Y0040164D01*
X0009195Y0041763D02*
X0022889Y0041763D01*
X0024045Y0041763D02*
X0067895Y0041763D01*
X0067895Y0042009D02*
X0067895Y0040746D01*
X0068702Y0038798D01*
X0069595Y0037905D01*
X0069595Y0030695D01*
X0068702Y0029802D01*
X0067895Y0027854D01*
X0067895Y0025746D01*
X0068702Y0023798D01*
X0070193Y0022307D01*
X0072141Y0021500D01*
X0074250Y0021500D01*
X0076197Y0022307D01*
X0077688Y0023798D01*
X0078495Y0025746D01*
X0078495Y0027854D01*
X0077688Y0029802D01*
X0076795Y0030695D01*
X0076795Y0037905D01*
X0077091Y0038200D01*
X0085204Y0038200D01*
X0090595Y0032809D01*
X0090595Y0021584D01*
X0091143Y0020261D01*
X0096143Y0015261D01*
X0097156Y0014248D01*
X0098479Y0013700D01*
X0120911Y0013700D01*
X0122235Y0014248D01*
X0128686Y0020700D01*
X0180204Y0020700D01*
X0183095Y0017809D01*
X0183095Y0016261D01*
X0181863Y0015029D01*
X0181576Y0014336D01*
X0181399Y0014683D01*
X0180890Y0015383D01*
X0180278Y0015995D01*
X0179578Y0016504D01*
X0178807Y0016897D01*
X0177983Y0017165D01*
X0177128Y0017300D01*
X0176895Y0017300D01*
X0176895Y0012000D01*
X0176495Y0012000D01*
X0176495Y0011600D01*
X0171195Y0011600D01*
X0166895Y0011600D01*
X0166895Y0006300D01*
X0167128Y0006300D01*
X0167983Y0006435D01*
X0168807Y0006703D01*
X0169578Y0007096D01*
X0170278Y0007605D01*
X0170890Y0008217D01*
X0171399Y0008917D01*
X0171695Y0009498D01*
X0171991Y0008917D01*
X0172500Y0008217D01*
X0173112Y0007605D01*
X0173813Y0007096D01*
X0174584Y0006703D01*
X0175407Y0006435D01*
X0176262Y0006300D01*
X0176495Y0006300D01*
X0176495Y0011600D01*
X0176895Y0011600D01*
X0176895Y0006300D01*
X0177128Y0006300D01*
X0177983Y0006435D01*
X0178807Y0006703D01*
X0179578Y0007096D01*
X0180278Y0007605D01*
X0180890Y0008217D01*
X0181399Y0008917D01*
X0181576Y0009264D01*
X0181863Y0008571D01*
X0183466Y0006968D01*
X0185561Y0006100D01*
X0187829Y0006100D01*
X0189924Y0006968D01*
X0191527Y0008571D01*
X0192395Y0010666D01*
X0192395Y0012934D01*
X0191527Y0015029D01*
X0190295Y0016261D01*
X0190295Y0020016D01*
X0189747Y0021339D01*
X0184747Y0026339D01*
X0183735Y0027352D01*
X0182411Y0027900D01*
X0126479Y0027900D01*
X0125156Y0027352D01*
X0118704Y0020900D01*
X0100686Y0020900D01*
X0097795Y0023791D01*
X0097795Y0035016D01*
X0097247Y0036339D01*
X0096235Y0037352D01*
X0091786Y0041800D01*
X0094747Y0044761D01*
X0095295Y0046084D01*
X0095295Y0057905D01*
X0096188Y0058798D01*
X0096995Y0060746D01*
X0096995Y0062009D01*
X0098186Y0063200D01*
X0099734Y0063200D01*
X0100966Y0061968D01*
X0103061Y0061100D01*
X0105329Y0061100D01*
X0106195Y0061459D01*
X0106195Y0061367D01*
X0106331Y0060512D01*
X0106598Y0059689D01*
X0106991Y0058917D01*
X0107500Y0058217D01*
X0108112Y0057605D01*
X0108813Y0057096D01*
X0109584Y0056703D01*
X0110407Y0056435D01*
X0111262Y0056300D01*
X0111695Y0056300D01*
X0111695Y0061800D01*
X0111695Y0061800D01*
X0111695Y0056300D01*
X0112128Y0056300D01*
X0112983Y0056435D01*
X0113807Y0056703D01*
X0114578Y0057096D01*
X0115278Y0057605D01*
X0115890Y0058217D01*
X0116399Y0058917D01*
X0116792Y0059689D01*
X0117060Y0060512D01*
X0117195Y0061367D01*
X0117195Y0061800D01*
X0117195Y0062233D01*
X0117060Y0063088D01*
X0116792Y0063911D01*
X0116399Y0064683D01*
X0115890Y0065383D01*
X0115278Y0065995D01*
X0114578Y0066504D01*
X0114231Y0066681D01*
X0114924Y0066968D01*
X0116527Y0068571D01*
X0117395Y0070666D01*
X0117395Y0072934D01*
X0116527Y0075029D01*
X0114924Y0076632D01*
X0112829Y0077500D01*
X0110877Y0077500D01*
X0109911Y0077900D01*
X0100686Y0077900D01*
X0096995Y0081591D01*
X0096995Y0082854D01*
X0096548Y0083933D01*
X0099886Y0080528D01*
X0099893Y0080511D01*
X0100387Y0080017D01*
X0100876Y0079519D01*
X0100893Y0079511D01*
X0100906Y0079498D01*
X0101551Y0079231D01*
X0102193Y0078957D01*
X0102212Y0078957D01*
X0102229Y0078950D01*
X0102928Y0078950D01*
X0103625Y0078943D01*
X0103643Y0078950D01*
X0124454Y0078950D01*
X0128095Y0075309D01*
X0128095Y0058291D01*
X0116404Y0046600D01*
X0114707Y0046600D01*
X0113507Y0045400D01*
X0107091Y0045400D01*
X0106197Y0046293D01*
X0104250Y0047100D01*
X0102141Y0047100D01*
X0100193Y0046293D01*
X0098702Y0044802D01*
X0097895Y0042854D01*
X0097895Y0040746D01*
X0098702Y0038798D01*
X0100193Y0037307D01*
X0102141Y0036500D01*
X0104250Y0036500D01*
X0106197Y0037307D01*
X0107091Y0038200D01*
X0113507Y0038200D01*
X0114707Y0037000D01*
X0118683Y0037000D01*
X0120683Y0039000D01*
X0131037Y0039000D01*
X0130983Y0038946D01*
X0130407Y0037554D01*
X0130407Y0036046D01*
X0130983Y0034654D01*
X0132049Y0033588D01*
X0133442Y0033011D01*
X0134949Y0033011D01*
X0136341Y0033588D01*
X0137407Y0034654D01*
X0137654Y0035250D01*
X0216785Y0035250D01*
X0221822Y0030214D01*
X0222609Y0029426D01*
X0223638Y0029000D01*
X0247252Y0029000D01*
X0248281Y0029426D01*
X0262031Y0043176D01*
X0262819Y0043964D01*
X0263245Y0044993D01*
X0263245Y0057189D01*
X0263466Y0056968D01*
X0265561Y0056100D01*
X0267829Y0056100D01*
X0269924Y0056968D01*
X0271527Y0058571D01*
X0272395Y0060666D01*
X0272395Y0062934D01*
X0271527Y0065029D01*
X0269980Y0066577D01*
X0270924Y0066968D01*
X0272527Y0068571D01*
X0273395Y0070666D01*
X0273395Y0072934D01*
X0272527Y0075029D01*
X0270924Y0076632D01*
X0269660Y0077156D01*
X0270278Y0077605D01*
X0270890Y0078217D01*
X0271399Y0078917D01*
X0271792Y0079689D01*
X0272060Y0080512D01*
X0272195Y0081367D01*
X0272195Y0081600D01*
X0266895Y0081600D01*
X0266895Y0082000D01*
X0272195Y0082000D01*
X0272195Y0082233D01*
X0272060Y0083088D01*
X0271792Y0083911D01*
X0271399Y0084683D01*
X0270890Y0085383D01*
X0270278Y0085995D01*
X0269660Y0086444D01*
X0270924Y0086968D01*
X0272527Y0088571D01*
X0273395Y0090666D01*
X0273395Y0092934D01*
X0272527Y0095029D01*
X0270924Y0096632D01*
X0269980Y0097023D01*
X0271527Y0098571D01*
X0272395Y0100666D01*
X0272395Y0102934D01*
X0271527Y0105029D01*
X0269980Y0106577D01*
X0270924Y0106968D01*
X0272527Y0108571D01*
X0273395Y0110666D01*
X0273395Y0112934D01*
X0272527Y0115029D01*
X0270924Y0116632D01*
X0268829Y0117500D01*
X0266561Y0117500D01*
X0264466Y0116632D01*
X0262863Y0115029D01*
X0261995Y0112934D01*
X0261995Y0110666D01*
X0262863Y0108571D01*
X0264411Y0107023D01*
X0263466Y0106632D01*
X0261863Y0105029D01*
X0260995Y0102934D01*
X0260995Y0100666D01*
X0261173Y0100237D01*
X0254495Y0093560D01*
X0254495Y0114857D01*
X0254069Y0115886D01*
X0253281Y0116674D01*
X0244495Y0125460D01*
X0244495Y0125495D01*
X0245595Y0126594D01*
X0246295Y0128285D01*
X0246295Y0135315D01*
X0245595Y0137006D01*
X0244301Y0138300D01*
X0242610Y0139000D01*
X0240780Y0139000D01*
X0239495Y0138468D01*
X0239495Y0160640D01*
X0259069Y0180214D01*
X0259495Y0181243D01*
X0259495Y0196100D01*
X0261224Y0196100D01*
X0262395Y0197272D01*
X0262395Y0206328D01*
X0261224Y0207500D01*
X0252167Y0207500D01*
X0250995Y0206328D01*
X0250995Y0205561D01*
X0249924Y0206632D01*
X0247829Y0207500D01*
X0245561Y0207500D01*
X0243466Y0206632D01*
X0241863Y0205029D01*
X0241695Y0204624D01*
X0241527Y0205029D01*
X0239924Y0206632D01*
X0237829Y0207500D01*
X0235561Y0207500D01*
X0233466Y0206632D01*
X0231863Y0205029D01*
X0231695Y0204624D01*
X0231527Y0205029D01*
X0229924Y0206632D01*
X0227829Y0207500D01*
X0225561Y0207500D01*
X0223466Y0206632D01*
X0221863Y0205029D01*
X0221695Y0204624D01*
X0221527Y0205029D01*
X0219924Y0206632D01*
X0217829Y0207500D01*
X0215561Y0207500D01*
X0213466Y0206632D01*
X0211863Y0205029D01*
X0211695Y0204624D01*
X0211527Y0205029D01*
X0209924Y0206632D01*
X0207829Y0207500D01*
X0205561Y0207500D01*
X0203466Y0206632D01*
X0201863Y0205029D01*
X0201695Y0204624D01*
X0201527Y0205029D01*
X0199924Y0206632D01*
X0197829Y0207500D01*
X0195561Y0207500D01*
X0193466Y0206632D01*
X0191863Y0205029D01*
X0191695Y0204624D01*
X0191527Y0205029D01*
X0189924Y0206632D01*
X0187829Y0207500D01*
X0185561Y0207500D01*
X0183466Y0206632D01*
X0181863Y0205029D01*
X0180995Y0202934D01*
X0180995Y0200666D01*
X0181863Y0198571D01*
X0183466Y0196968D01*
X0185561Y0196100D01*
X0187829Y0196100D01*
X0189924Y0196968D01*
X0191527Y0198571D01*
X0191695Y0198976D01*
X0191863Y0198571D01*
X0193466Y0196968D01*
X0195561Y0196100D01*
X0197829Y0196100D01*
X0199924Y0196968D01*
X0201527Y0198571D01*
X0201695Y0198976D01*
X0201863Y0198571D01*
X0203466Y0196968D01*
X0203895Y0196790D01*
X0203895Y0151105D01*
X0203601Y0151400D01*
X0201695Y0151400D01*
X0199790Y0151400D01*
X0197095Y0148705D01*
X0197095Y0146800D01*
X0197095Y0144895D01*
X0199790Y0142200D01*
X0201695Y0142200D01*
X0201695Y0146800D01*
X0201695Y0146800D01*
X0197095Y0146800D01*
X0201695Y0146800D01*
X0201695Y0151400D01*
X0201695Y0146800D01*
X0201695Y0146800D01*
X0201695Y0146800D01*
X0201695Y0142200D01*
X0203601Y0142200D01*
X0203895Y0142495D01*
X0203895Y0138217D01*
X0203384Y0138478D01*
X0202726Y0138692D01*
X0202042Y0138800D01*
X0201695Y0138800D01*
X0201349Y0138800D01*
X0200665Y0138692D01*
X0200006Y0138478D01*
X0199389Y0138163D01*
X0198829Y0137756D01*
X0198339Y0137266D01*
X0197932Y0136706D01*
X0197618Y0136089D01*
X0197404Y0135430D01*
X0197295Y0134746D01*
X0197295Y0131800D01*
X0197295Y0128854D01*
X0197404Y0128170D01*
X0197618Y0127511D01*
X0197932Y0126894D01*
X0198339Y0126334D01*
X0198829Y0125844D01*
X0199389Y0125437D01*
X0200006Y0125122D01*
X0200665Y0124908D01*
X0201349Y0124800D01*
X0201695Y0124800D01*
X0201695Y0131800D01*
X0201695Y0131800D01*
X0197295Y0131800D01*
X0201695Y0131800D01*
X0201695Y0138800D01*
X0201695Y0131800D01*
X0201695Y0131800D01*
X0201695Y0131800D01*
X0201695Y0124800D01*
X0202042Y0124800D01*
X0202726Y0124908D01*
X0203384Y0125122D01*
X0203895Y0125383D01*
X0203895Y0116243D01*
X0204322Y0115214D01*
X0208895Y0110640D01*
X0208895Y0108105D01*
X0207796Y0107006D01*
X0207095Y0105315D01*
X0207095Y0098285D01*
X0207718Y0096782D01*
X0206785Y0095850D01*
X0204851Y0095850D01*
X0205595Y0096594D01*
X0206295Y0098285D01*
X0206295Y0105315D01*
X0205595Y0107006D01*
X0204301Y0108300D01*
X0202610Y0109000D01*
X0200780Y0109000D01*
X0199090Y0108300D01*
X0197796Y0107006D01*
X0197095Y0105315D01*
X0197095Y0098285D01*
X0197796Y0096594D01*
X0198540Y0095850D01*
X0194851Y0095850D01*
X0195595Y0096594D01*
X0196295Y0098285D01*
X0196295Y0105315D01*
X0195595Y0107006D01*
X0194301Y0108300D01*
X0192610Y0109000D01*
X0190780Y0109000D01*
X0189090Y0108300D01*
X0187796Y0107006D01*
X0187095Y0105315D01*
X0187095Y0098285D01*
X0187796Y0096594D01*
X0188540Y0095850D01*
X0184568Y0095850D01*
X0185051Y0096334D01*
X0185458Y0096894D01*
X0185773Y0097511D01*
X0185987Y0098170D01*
X0186095Y0098854D01*
X0186095Y0101800D01*
X0186095Y0104746D01*
X0185987Y0105430D01*
X0185773Y0106089D01*
X0185458Y0106706D01*
X0185051Y0107266D01*
X0184562Y0107756D01*
X0184001Y0108163D01*
X0183384Y0108478D01*
X0182726Y0108692D01*
X0182042Y0108800D01*
X0181695Y0108800D01*
X0181349Y0108800D01*
X0180665Y0108692D01*
X0180006Y0108478D01*
X0179389Y0108163D01*
X0178829Y0107756D01*
X0178339Y0107266D01*
X0177932Y0106706D01*
X0177618Y0106089D01*
X0177404Y0105430D01*
X0177295Y0104746D01*
X0177295Y0101800D01*
X0177295Y0098854D01*
X0177404Y0098170D01*
X0177618Y0097511D01*
X0177932Y0096894D01*
X0178339Y0096334D01*
X0178829Y0095844D01*
X0179389Y0095437D01*
X0180006Y0095122D01*
X0180665Y0094908D01*
X0180819Y0094884D01*
X0178035Y0092100D01*
X0103605Y0092100D01*
X0089495Y0106210D01*
X0089495Y0107529D01*
X0091695Y0109729D01*
X0091695Y0113871D01*
X0088766Y0116800D01*
X0084624Y0116800D01*
X0081795Y0113971D01*
X0081795Y0141100D01*
X0082829Y0141100D01*
X0084924Y0141968D01*
X0086527Y0143571D01*
X0087395Y0145666D01*
X0095145Y0145666D01*
X0095145Y0144068D02*
X0086733Y0144068D01*
X0087395Y0145666D02*
X0087395Y0147934D01*
X0086527Y0150029D01*
X0084924Y0151632D01*
X0082829Y0152500D01*
X0080561Y0152500D01*
X0078466Y0151632D01*
X0076863Y0150029D01*
X0076545Y0149262D01*
X0076545Y0159059D01*
X0080686Y0163200D01*
X0083224Y0163200D01*
X0084624Y0161800D01*
X0088766Y0161800D01*
X0091695Y0164729D01*
X0091695Y0168871D01*
X0088766Y0171800D01*
X0084624Y0171800D01*
X0083224Y0170400D01*
X0078479Y0170400D01*
X0077156Y0169852D01*
X0076143Y0168839D01*
X0069893Y0162589D01*
X0069345Y0161266D01*
X0069345Y0105700D01*
X0049827Y0105700D01*
X0046877Y0108650D01*
X0042114Y0108650D01*
X0039164Y0105700D01*
X0024227Y0105700D01*
X0021277Y0108650D01*
X0016514Y0108650D01*
X0013145Y0105282D01*
X0013145Y0100518D01*
X0016095Y0097568D01*
X0016095Y0091400D01*
X0014790Y0091400D01*
X0012095Y0088705D01*
X0012095Y0084895D01*
X0014790Y0082200D01*
X0018601Y0082200D01*
X0021295Y0084895D01*
X0021295Y0087477D01*
X0021695Y0088443D01*
X0021695Y0097568D01*
X0024227Y0100100D01*
X0039164Y0100100D01*
X0042114Y0097150D01*
X0046877Y0097150D01*
X0049827Y0100100D01*
X0073304Y0100100D01*
X0074656Y0098748D01*
X0087902Y0085502D01*
X0087202Y0084802D01*
X0086795Y0083820D01*
X0086795Y0083912D01*
X0083808Y0086900D01*
X0081695Y0086900D01*
X0079583Y0086900D01*
X0076595Y0083912D01*
X0076595Y0081800D01*
X0076595Y0079688D01*
X0079583Y0076700D01*
X0081695Y0076700D01*
X0081695Y0081800D01*
X0081695Y0081800D01*
X0076595Y0081800D01*
X0081695Y0081800D01*
X0081695Y0086900D01*
X0081695Y0081800D01*
X0081695Y0081800D01*
X0081695Y0081800D01*
X0081695Y0076700D01*
X0083808Y0076700D01*
X0086795Y0079688D01*
X0086795Y0079780D01*
X0087202Y0078798D01*
X0088693Y0077307D01*
X0090641Y0076500D01*
X0091904Y0076500D01*
X0097156Y0071248D01*
X0098479Y0070700D01*
X0100034Y0070700D01*
X0099734Y0070400D01*
X0095979Y0070400D01*
X0094656Y0069852D01*
X0093643Y0068839D01*
X0091904Y0067100D01*
X0090641Y0067100D01*
X0088693Y0066293D01*
X0087202Y0064802D01*
X0086795Y0063820D01*
X0086795Y0063912D01*
X0083808Y0066900D01*
X0081695Y0066900D01*
X0079583Y0066900D01*
X0076595Y0063912D01*
X0076595Y0061800D01*
X0076595Y0059688D01*
X0079583Y0056700D01*
X0081695Y0056700D01*
X0081695Y0061800D01*
X0081695Y0061800D01*
X0076595Y0061800D01*
X0081695Y0061800D01*
X0081695Y0066900D01*
X0081695Y0061800D01*
X0081695Y0061800D01*
X0081695Y0061800D01*
X0081695Y0056700D01*
X0083808Y0056700D01*
X0086795Y0059688D01*
X0086795Y0059780D01*
X0087202Y0058798D01*
X0088095Y0057905D01*
X0088095Y0048291D01*
X0085204Y0045400D01*
X0077091Y0045400D01*
X0076197Y0046293D01*
X0074250Y0047100D01*
X0072986Y0047100D01*
X0067735Y0052352D01*
X0066411Y0052900D01*
X0061656Y0052900D01*
X0060424Y0054132D01*
X0058329Y0055000D01*
X0056061Y0055000D01*
X0053966Y0054132D01*
X0052363Y0052529D01*
X0051495Y0050434D01*
X0051495Y0048166D01*
X0052363Y0046071D01*
X0053966Y0044468D01*
X0056061Y0043600D01*
X0058329Y0043600D01*
X0060424Y0044468D01*
X0061656Y0045700D01*
X0064204Y0045700D01*
X0067895Y0042009D01*
X0068136Y0040164D02*
X0034470Y0040164D01*
X0033864Y0038566D02*
X0068934Y0038566D01*
X0069595Y0036967D02*
X0032648Y0036967D01*
X0029794Y0035369D02*
X0069595Y0035369D01*
X0069595Y0033770D02*
X0060786Y0033770D01*
X0062175Y0032172D02*
X0069595Y0032172D01*
X0069473Y0030573D02*
X0062838Y0030573D01*
X0062895Y0028975D02*
X0068359Y0028975D01*
X0067895Y0027376D02*
X0062568Y0027376D01*
X0061734Y0025778D02*
X0067895Y0025778D01*
X0068544Y0024179D02*
X0059727Y0024179D01*
X0060044Y0020099D02*
X0056994Y0018836D01*
X0054660Y0016501D01*
X0053396Y0013451D01*
X0053396Y0010149D01*
X0054660Y0007099D01*
X0056994Y0004764D01*
X0058115Y0004300D01*
X0010632Y0004300D01*
X0010352Y0004328D01*
X0009834Y0004542D01*
X0009437Y0004939D01*
X0009223Y0005457D01*
X0009195Y0005737D01*
X0009195Y0131647D01*
X0009444Y0131305D01*
X0010137Y0130612D01*
X0010930Y0130035D01*
X0011804Y0129590D01*
X0012737Y0129287D01*
X0013519Y0129163D01*
X0013519Y0134687D01*
X0014872Y0134687D01*
X0014872Y0136039D01*
X0020395Y0136039D01*
X0020271Y0136822D01*
X0019968Y0137754D01*
X0019523Y0138628D01*
X0018947Y0139421D01*
X0018253Y0140114D01*
X0017460Y0140691D01*
X0016586Y0141136D01*
X0015654Y0141439D01*
X0014872Y0141563D01*
X0014872Y0136039D01*
X0013519Y0136039D01*
X0013519Y0141563D01*
X0012737Y0141439D01*
X0011804Y0141136D01*
X0010930Y0140691D01*
X0010137Y0140114D01*
X0009444Y0139421D01*
X0009195Y0139079D01*
X0009195Y0164521D01*
X0009444Y0164179D01*
X0010137Y0163486D01*
X0010930Y0162909D01*
X0011804Y0162464D01*
X0012737Y0162161D01*
X0013519Y0162037D01*
X0013519Y0167561D01*
X0014872Y0167561D01*
X0014872Y0168913D01*
X0020395Y0168913D01*
X0020271Y0169696D01*
X0019968Y0170628D01*
X0019523Y0171502D01*
X0018947Y0172295D01*
X0018253Y0172988D01*
X0017460Y0173565D01*
X0016586Y0174010D01*
X0015654Y0174313D01*
X0014872Y0174437D01*
X0014872Y0168913D01*
X0013519Y0168913D01*
X0013519Y0174437D01*
X0012737Y0174313D01*
X0011804Y0174010D01*
X0010930Y0173565D01*
X0010137Y0172988D01*
X0009444Y0172295D01*
X0009195Y0171953D01*
X0009195Y0207863D01*
X0009223Y0208143D01*
X0009437Y0208661D01*
X0009834Y0209058D01*
X0010352Y0209272D01*
X0010632Y0209300D01*
X0063115Y0209300D01*
X0061994Y0208836D01*
X0059660Y0206501D01*
X0058396Y0203451D01*
X0058396Y0200149D01*
X0059660Y0197099D01*
X0061994Y0194764D01*
X0065044Y0193501D01*
X0068346Y0193501D01*
X0071396Y0194764D01*
X0073731Y0197099D01*
X0074994Y0200149D01*
X0074994Y0203451D01*
X0073731Y0206501D01*
X0071396Y0208836D01*
X0070276Y0209300D01*
X0259660Y0209300D01*
X0264195Y0204764D01*
X0264195Y0160303D01*
X0264576Y0159384D01*
X0265279Y0158681D01*
X0265279Y0158681D01*
X0274195Y0149764D01*
X0274195Y0145380D01*
X0273731Y0146501D01*
X0271396Y0148836D01*
X0268346Y0150099D01*
X0265044Y0150099D01*
X0261994Y0148836D01*
X0259660Y0146501D01*
X0258396Y0143451D01*
X0258396Y0140149D01*
X0259660Y0137099D01*
X0261994Y0134764D01*
X0265044Y0133501D01*
X0268346Y0133501D01*
X0271396Y0134764D01*
X0273731Y0137099D01*
X0274195Y0138220D01*
X0274195Y0035380D01*
X0273731Y0036501D01*
X0271396Y0038836D01*
X0268346Y0040099D01*
X0265044Y0040099D01*
X0261994Y0038836D01*
X0259660Y0036501D01*
X0258396Y0033451D01*
X0258396Y0030149D01*
X0259660Y0027099D01*
X0261994Y0024764D01*
X0265044Y0023501D01*
X0268346Y0023501D01*
X0271396Y0024764D01*
X0273731Y0027099D01*
X0274195Y0028220D01*
X0274195Y0022836D01*
X0265279Y0013919D01*
X0264576Y0013216D01*
X0264195Y0012297D01*
X0264195Y0005737D01*
X0264168Y0005457D01*
X0263953Y0004939D01*
X0263557Y0004542D01*
X0263039Y0004328D01*
X0262758Y0004300D01*
X0065276Y0004300D01*
X0066396Y0004764D01*
X0068731Y0007099D01*
X0069994Y0010149D01*
X0069994Y0013451D01*
X0068731Y0016501D01*
X0066396Y0018836D01*
X0063346Y0020099D01*
X0060044Y0020099D01*
X0058317Y0019384D02*
X0052370Y0019384D01*
X0053969Y0020982D02*
X0090845Y0020982D01*
X0090595Y0022581D02*
X0076471Y0022581D01*
X0077846Y0024179D02*
X0090595Y0024179D01*
X0090595Y0025778D02*
X0078495Y0025778D01*
X0078495Y0027376D02*
X0090595Y0027376D01*
X0090595Y0028975D02*
X0078031Y0028975D01*
X0076917Y0030573D02*
X0090595Y0030573D01*
X0090595Y0032172D02*
X0076795Y0032172D01*
X0076795Y0033770D02*
X0089634Y0033770D01*
X0088035Y0035369D02*
X0076795Y0035369D01*
X0076795Y0036967D02*
X0086437Y0036967D01*
X0091824Y0041763D02*
X0097895Y0041763D01*
X0098105Y0043361D02*
X0093348Y0043361D01*
X0094830Y0044960D02*
X0098860Y0044960D01*
X0100833Y0046558D02*
X0095295Y0046558D01*
X0095295Y0048157D02*
X0117961Y0048157D01*
X0119559Y0049755D02*
X0095295Y0049755D01*
X0095295Y0051354D02*
X0121158Y0051354D01*
X0122756Y0052952D02*
X0095295Y0052952D01*
X0095295Y0054551D02*
X0124355Y0054551D01*
X0125953Y0056149D02*
X0095295Y0056149D01*
X0095295Y0057748D02*
X0107969Y0057748D01*
X0106773Y0059346D02*
X0096416Y0059346D01*
X0096995Y0060945D02*
X0106262Y0060945D01*
X0111695Y0060945D02*
X0111695Y0060945D01*
X0111695Y0061800D02*
X0111695Y0061800D01*
X0117195Y0061800D01*
X0111695Y0061800D01*
X0111695Y0059346D02*
X0111695Y0059346D01*
X0111695Y0057748D02*
X0111695Y0057748D01*
X0115421Y0057748D02*
X0127552Y0057748D01*
X0128095Y0059346D02*
X0116618Y0059346D01*
X0117128Y0060945D02*
X0128095Y0060945D01*
X0128095Y0062543D02*
X0117146Y0062543D01*
X0116675Y0064142D02*
X0128095Y0064142D01*
X0128095Y0065740D02*
X0115533Y0065740D01*
X0115295Y0067339D02*
X0128095Y0067339D01*
X0128095Y0068937D02*
X0116679Y0068937D01*
X0117341Y0070536D02*
X0128095Y0070536D01*
X0128095Y0072134D02*
X0117395Y0072134D01*
X0117064Y0073733D02*
X0128095Y0073733D01*
X0128073Y0075332D02*
X0116225Y0075332D01*
X0114205Y0076930D02*
X0126474Y0076930D01*
X0124876Y0078529D02*
X0100058Y0078529D01*
X0100277Y0080127D02*
X0098459Y0080127D01*
X0098712Y0081726D02*
X0096995Y0081726D01*
X0097146Y0083324D02*
X0096801Y0083324D01*
X0102445Y0089300D02*
X0086695Y0105050D01*
X0086695Y0111800D01*
X0090272Y0115294D02*
X0095145Y0115294D01*
X0095145Y0113696D02*
X0091695Y0113696D01*
X0091695Y0112097D02*
X0095309Y0112097D01*
X0095145Y0112493D02*
X0095572Y0111464D01*
X0106822Y0100214D01*
X0107095Y0099940D01*
X0107095Y0098285D01*
X0107796Y0096594D01*
X0109090Y0095300D01*
X0110780Y0094600D01*
X0112610Y0094600D01*
X0114301Y0095300D01*
X0115595Y0096594D01*
X0116295Y0098285D01*
X0116295Y0105315D01*
X0115595Y0107006D01*
X0114851Y0107750D01*
X0118540Y0107750D01*
X0117796Y0107006D01*
X0117095Y0105315D01*
X0117095Y0098285D01*
X0117796Y0096594D01*
X0119090Y0095300D01*
X0120780Y0094600D01*
X0122610Y0094600D01*
X0124301Y0095300D01*
X0125595Y0096594D01*
X0126295Y0098285D01*
X0126295Y0105315D01*
X0125595Y0107006D01*
X0124851Y0107750D01*
X0126785Y0107750D01*
X0127718Y0106818D01*
X0127095Y0105315D01*
X0127095Y0098285D01*
X0127796Y0096594D01*
X0129090Y0095300D01*
X0130780Y0094600D01*
X0132610Y0094600D01*
X0134301Y0095300D01*
X0135595Y0096594D01*
X0136295Y0098285D01*
X0136295Y0105315D01*
X0135595Y0107006D01*
X0134301Y0108300D01*
X0134052Y0108403D01*
X0133281Y0109174D01*
X0130955Y0111500D01*
X0135535Y0111500D01*
X0138895Y0108140D01*
X0138895Y0108105D01*
X0137796Y0107006D01*
X0137095Y0105315D01*
X0137095Y0098285D01*
X0137796Y0096594D01*
X0139090Y0095300D01*
X0140780Y0094600D01*
X0142610Y0094600D01*
X0144301Y0095300D01*
X0145595Y0096594D01*
X0146295Y0098285D01*
X0146295Y0105315D01*
X0145595Y0107006D01*
X0144495Y0108105D01*
X0144495Y0109857D01*
X0144069Y0110886D01*
X0143281Y0111674D01*
X0138281Y0116674D01*
X0137252Y0117100D01*
X0112855Y0117100D01*
X0108245Y0121710D01*
X0108245Y0126145D01*
X0109090Y0125300D01*
X0110780Y0124600D01*
X0112610Y0124600D01*
X0114301Y0125300D01*
X0115595Y0126594D01*
X0116295Y0128285D01*
X0116295Y0135315D01*
X0115595Y0137006D01*
X0114301Y0138300D01*
X0112610Y0139000D01*
X0110780Y0139000D01*
X0109090Y0138300D01*
X0108245Y0137455D01*
X0108245Y0143462D01*
X0109707Y0142000D01*
X0113683Y0142000D01*
X0116495Y0144812D01*
X0116495Y0148788D01*
X0113683Y0151600D01*
X0109707Y0151600D01*
X0108245Y0150138D01*
X0108245Y0174390D01*
X0111868Y0178013D01*
X0112449Y0178013D01*
X0113841Y0178589D01*
X0114906Y0179655D01*
X0115483Y0181047D01*
X0115483Y0182553D01*
X0114906Y0183945D01*
X0113841Y0185011D01*
X0112449Y0185587D01*
X0110942Y0185587D01*
X0110158Y0185263D01*
X0110483Y0186047D01*
X0110483Y0187553D01*
X0109906Y0188945D01*
X0108841Y0190011D01*
X0107449Y0190587D01*
X0105942Y0190587D01*
X0104550Y0190011D01*
X0103484Y0188945D01*
X0102908Y0187553D01*
X0102908Y0186972D01*
X0100109Y0184174D01*
X0099322Y0183386D01*
X0098895Y0182357D01*
X0098895Y0178560D01*
X0093281Y0184174D01*
X0092252Y0184600D01*
X0090966Y0184600D01*
X0088766Y0186800D01*
X0084624Y0186800D01*
X0081695Y0183871D01*
X0081695Y0179729D01*
X0084624Y0176800D01*
X0088766Y0176800D01*
X0090751Y0178785D01*
X0095145Y0174390D01*
X0095145Y0112493D01*
X0096537Y0110499D02*
X0091695Y0110499D01*
X0090867Y0108900D02*
X0098135Y0108900D01*
X0099734Y0107302D02*
X0089495Y0107302D01*
X0090002Y0105703D02*
X0101332Y0105703D01*
X0102931Y0104105D02*
X0091600Y0104105D01*
X0093199Y0102506D02*
X0104529Y0102506D01*
X0106128Y0100908D02*
X0094797Y0100908D01*
X0096396Y0099309D02*
X0107095Y0099309D01*
X0107333Y0097711D02*
X0097994Y0097711D01*
X0099593Y0096112D02*
X0108278Y0096112D01*
X0102790Y0092915D02*
X0178851Y0092915D01*
X0180449Y0094514D02*
X0101191Y0094514D01*
X0102445Y0089300D02*
X0179195Y0089300D01*
X0182945Y0093050D01*
X0207945Y0093050D01*
X0211695Y0096800D01*
X0211695Y0101800D01*
X0211695Y0111800D01*
X0206695Y0116800D01*
X0206695Y0201800D01*
X0211618Y0204811D02*
X0211773Y0204811D01*
X0213244Y0206409D02*
X0210147Y0206409D01*
X0216695Y0201800D02*
X0216695Y0181800D01*
X0211695Y0176800D01*
X0211695Y0131800D01*
X0216295Y0131279D02*
X0217095Y0131279D01*
X0217095Y0129681D02*
X0216295Y0129681D01*
X0216295Y0128285D02*
X0216295Y0135315D01*
X0215595Y0137006D01*
X0214495Y0138105D01*
X0214495Y0175640D01*
X0219069Y0180214D01*
X0219495Y0181243D01*
X0219495Y0196790D01*
X0219924Y0196968D01*
X0221527Y0198571D01*
X0221695Y0198976D01*
X0221863Y0198571D01*
X0223466Y0196968D01*
X0223895Y0196790D01*
X0223895Y0182960D01*
X0220109Y0179174D01*
X0219322Y0178386D01*
X0218895Y0177357D01*
X0218895Y0138105D01*
X0217796Y0137006D01*
X0217095Y0135315D01*
X0217095Y0128285D01*
X0217796Y0126594D01*
X0219090Y0125300D01*
X0220780Y0124600D01*
X0222610Y0124600D01*
X0223895Y0125132D01*
X0223895Y0123743D01*
X0224322Y0122714D01*
X0238895Y0108140D01*
X0238895Y0108105D01*
X0237796Y0107006D01*
X0237095Y0105315D01*
X0237095Y0098285D01*
X0237796Y0096594D01*
X0238540Y0095850D01*
X0234851Y0095850D01*
X0235595Y0096594D01*
X0236295Y0098285D01*
X0236295Y0105315D01*
X0235595Y0107006D01*
X0234301Y0108300D01*
X0232610Y0109000D01*
X0230780Y0109000D01*
X0229090Y0108300D01*
X0227796Y0107006D01*
X0227095Y0105315D01*
X0227095Y0098285D01*
X0227796Y0096594D01*
X0228540Y0095850D01*
X0226605Y0095850D01*
X0225673Y0096782D01*
X0226295Y0098285D01*
X0226295Y0105315D01*
X0225595Y0107006D01*
X0224301Y0108300D01*
X0222610Y0109000D01*
X0220780Y0109000D01*
X0219090Y0108300D01*
X0217796Y0107006D01*
X0217095Y0105315D01*
X0217095Y0098285D01*
X0217796Y0096594D01*
X0219090Y0095300D01*
X0219338Y0095197D01*
X0220109Y0094426D01*
X0223859Y0090676D01*
X0224888Y0090250D01*
X0233357Y0090250D01*
X0231895Y0088788D01*
X0231895Y0084812D01*
X0234707Y0082000D01*
X0238683Y0082000D01*
X0241495Y0084812D01*
X0241495Y0088788D01*
X0240033Y0090250D01*
X0244752Y0090250D01*
X0245781Y0090676D01*
X0246569Y0091464D01*
X0248895Y0093790D01*
X0248895Y0092960D01*
X0247609Y0091674D01*
X0246822Y0090886D01*
X0246395Y0089857D01*
X0246395Y0050460D01*
X0245535Y0049600D01*
X0235262Y0049600D01*
X0234772Y0049623D01*
X0234707Y0049600D01*
X0234638Y0049600D01*
X0234185Y0049412D01*
X0233724Y0049246D01*
X0233673Y0049200D01*
X0233609Y0049174D01*
X0233262Y0048827D01*
X0228613Y0044600D01*
X0124586Y0044600D01*
X0134747Y0054761D01*
X0135295Y0056084D01*
X0135295Y0077516D01*
X0134747Y0078839D01*
X0133735Y0079852D01*
X0127985Y0085602D01*
X0126661Y0086150D01*
X0104458Y0086150D01*
X0104114Y0086500D01*
X0179752Y0086500D01*
X0180781Y0086926D01*
X0181569Y0087714D01*
X0184105Y0090250D01*
X0208502Y0090250D01*
X0209531Y0090676D01*
X0210319Y0091464D01*
X0213281Y0094426D01*
X0214052Y0095197D01*
X0214301Y0095300D01*
X0215595Y0096594D01*
X0216295Y0098285D01*
X0216295Y0105315D01*
X0215595Y0107006D01*
X0214495Y0108105D01*
X0214495Y0112357D01*
X0214069Y0113386D01*
X0213281Y0114174D01*
X0209495Y0117960D01*
X0209495Y0125132D01*
X0210780Y0124600D01*
X0212610Y0124600D01*
X0214301Y0125300D01*
X0215595Y0126594D01*
X0216295Y0128285D01*
X0216211Y0128082D02*
X0217179Y0128082D01*
X0217906Y0126484D02*
X0215485Y0126484D01*
X0213299Y0124885D02*
X0220091Y0124885D01*
X0223299Y0124885D02*
X0223895Y0124885D01*
X0224084Y0123287D02*
X0209495Y0123287D01*
X0209495Y0124885D02*
X0210091Y0124885D01*
X0209495Y0121688D02*
X0225347Y0121688D01*
X0226946Y0120090D02*
X0209495Y0120090D01*
X0209495Y0118491D02*
X0228544Y0118491D01*
X0230143Y0116893D02*
X0210562Y0116893D01*
X0212161Y0115294D02*
X0231741Y0115294D01*
X0233340Y0113696D02*
X0213759Y0113696D01*
X0214495Y0112097D02*
X0234938Y0112097D01*
X0236537Y0110499D02*
X0214495Y0110499D01*
X0214495Y0108900D02*
X0220540Y0108900D01*
X0222851Y0108900D02*
X0230540Y0108900D01*
X0232851Y0108900D02*
X0238135Y0108900D01*
X0238092Y0107302D02*
X0235299Y0107302D01*
X0236134Y0105703D02*
X0237256Y0105703D01*
X0237095Y0104105D02*
X0236295Y0104105D01*
X0236295Y0102506D02*
X0237095Y0102506D01*
X0237095Y0100908D02*
X0236295Y0100908D01*
X0236295Y0099309D02*
X0237095Y0099309D01*
X0237333Y0097711D02*
X0236057Y0097711D01*
X0235113Y0096112D02*
X0238278Y0096112D01*
X0244195Y0093050D02*
X0225445Y0093050D01*
X0221695Y0096800D01*
X0221695Y0101800D01*
X0217095Y0102506D02*
X0216295Y0102506D01*
X0216295Y0100908D02*
X0217095Y0100908D01*
X0217095Y0099309D02*
X0216295Y0099309D01*
X0216057Y0097711D02*
X0217333Y0097711D01*
X0218278Y0096112D02*
X0215113Y0096112D01*
X0213369Y0094514D02*
X0220022Y0094514D01*
X0221620Y0092915D02*
X0211770Y0092915D01*
X0210172Y0091317D02*
X0223219Y0091317D01*
X0226343Y0096112D02*
X0228278Y0096112D01*
X0227333Y0097711D02*
X0226057Y0097711D01*
X0226295Y0099309D02*
X0227095Y0099309D01*
X0227095Y0100908D02*
X0226295Y0100908D01*
X0226295Y0102506D02*
X0227095Y0102506D01*
X0227095Y0104105D02*
X0226295Y0104105D01*
X0226134Y0105703D02*
X0227256Y0105703D01*
X0228092Y0107302D02*
X0225299Y0107302D01*
X0218092Y0107302D02*
X0215299Y0107302D01*
X0216134Y0105703D02*
X0217256Y0105703D01*
X0217095Y0104105D02*
X0216295Y0104105D01*
X0208895Y0108900D02*
X0202851Y0108900D01*
X0200540Y0108900D02*
X0192851Y0108900D01*
X0190540Y0108900D02*
X0174495Y0108900D01*
X0174495Y0108105D02*
X0174495Y0112357D01*
X0174069Y0113386D01*
X0173281Y0114174D01*
X0169495Y0117960D01*
X0169495Y0125132D01*
X0170780Y0124600D01*
X0172610Y0124600D01*
X0174301Y0125300D01*
X0175595Y0126594D01*
X0176295Y0128285D01*
X0176295Y0135315D01*
X0175595Y0137006D01*
X0174301Y0138300D01*
X0172610Y0139000D01*
X0170780Y0139000D01*
X0169495Y0138468D01*
X0169495Y0175640D01*
X0173069Y0179214D01*
X0173495Y0180243D01*
X0173495Y0196100D01*
X0175224Y0196100D01*
X0176395Y0197272D01*
X0176395Y0206328D01*
X0175224Y0207500D01*
X0166167Y0207500D01*
X0164995Y0206328D01*
X0164995Y0205561D01*
X0163924Y0206632D01*
X0161829Y0207500D01*
X0159561Y0207500D01*
X0157466Y0206632D01*
X0155863Y0205029D01*
X0155695Y0204624D01*
X0155527Y0205029D01*
X0153924Y0206632D01*
X0151829Y0207500D01*
X0149561Y0207500D01*
X0147466Y0206632D01*
X0145863Y0205029D01*
X0145695Y0204624D01*
X0145527Y0205029D01*
X0143924Y0206632D01*
X0141829Y0207500D01*
X0139561Y0207500D01*
X0137466Y0206632D01*
X0135863Y0205029D01*
X0135695Y0204624D01*
X0135527Y0205029D01*
X0133924Y0206632D01*
X0131829Y0207500D01*
X0129561Y0207500D01*
X0127466Y0206632D01*
X0125863Y0205029D01*
X0125695Y0204624D01*
X0125527Y0205029D01*
X0123924Y0206632D01*
X0121829Y0207500D01*
X0119561Y0207500D01*
X0117466Y0206632D01*
X0115863Y0205029D01*
X0115576Y0204336D01*
X0115399Y0204683D01*
X0114890Y0205383D01*
X0114278Y0205995D01*
X0113578Y0206504D01*
X0112807Y0206897D01*
X0111983Y0207165D01*
X0111128Y0207300D01*
X0110895Y0207300D01*
X0110895Y0202000D01*
X0110495Y0202000D01*
X0110495Y0207300D01*
X0110262Y0207300D01*
X0109407Y0207165D01*
X0108584Y0206897D01*
X0107813Y0206504D01*
X0107112Y0205995D01*
X0106500Y0205383D01*
X0105991Y0204683D01*
X0105815Y0204336D01*
X0105527Y0205029D01*
X0103924Y0206632D01*
X0101829Y0207500D01*
X0099561Y0207500D01*
X0097466Y0206632D01*
X0095863Y0205029D01*
X0094995Y0202934D01*
X0094995Y0200666D01*
X0095863Y0198571D01*
X0097466Y0196968D01*
X0099561Y0196100D01*
X0101829Y0196100D01*
X0103924Y0196968D01*
X0105527Y0198571D01*
X0105815Y0199264D01*
X0105991Y0198917D01*
X0106500Y0198217D01*
X0107112Y0197605D01*
X0107813Y0197096D01*
X0108584Y0196703D01*
X0109407Y0196435D01*
X0110262Y0196300D01*
X0110495Y0196300D01*
X0110495Y0201600D01*
X0110895Y0201600D01*
X0110895Y0196300D01*
X0111128Y0196300D01*
X0111983Y0196435D01*
X0112807Y0196703D01*
X0113578Y0197096D01*
X0114278Y0197605D01*
X0114890Y0198217D01*
X0115399Y0198917D01*
X0115576Y0199264D01*
X0115863Y0198571D01*
X0117466Y0196968D01*
X0117895Y0196790D01*
X0117895Y0182243D01*
X0118322Y0181214D01*
X0125145Y0174390D01*
X0125145Y0149855D01*
X0123601Y0151400D01*
X0121695Y0151400D01*
X0119790Y0151400D01*
X0117095Y0148705D01*
X0117095Y0146800D01*
X0117095Y0144895D01*
X0119790Y0142200D01*
X0121695Y0142200D01*
X0121695Y0146800D01*
X0121695Y0146800D01*
X0117095Y0146800D01*
X0121695Y0146800D01*
X0121695Y0151400D01*
X0121695Y0146800D01*
X0121695Y0146800D01*
X0121695Y0146800D01*
X0121695Y0142200D01*
X0123601Y0142200D01*
X0125145Y0143745D01*
X0125145Y0141710D01*
X0124322Y0140886D01*
X0123895Y0139857D01*
X0123895Y0138217D01*
X0123384Y0138478D01*
X0122726Y0138692D01*
X0122042Y0138800D01*
X0121695Y0138800D01*
X0121349Y0138800D01*
X0120665Y0138692D01*
X0120006Y0138478D01*
X0119389Y0138163D01*
X0118829Y0137756D01*
X0118339Y0137266D01*
X0117932Y0136706D01*
X0117618Y0136089D01*
X0117404Y0135430D01*
X0117295Y0134746D01*
X0117295Y0131800D01*
X0117295Y0128854D01*
X0117404Y0128170D01*
X0117618Y0127511D01*
X0117932Y0126894D01*
X0118339Y0126334D01*
X0118829Y0125844D01*
X0119389Y0125437D01*
X0120006Y0125122D01*
X0120665Y0124908D01*
X0121349Y0124800D01*
X0121695Y0124800D01*
X0121695Y0131800D01*
X0121695Y0131800D01*
X0117295Y0131800D01*
X0121695Y0131800D01*
X0121695Y0138800D01*
X0121695Y0131800D01*
X0121695Y0131800D01*
X0121695Y0131800D01*
X0121695Y0124800D01*
X0122042Y0124800D01*
X0122726Y0124908D01*
X0123384Y0125122D01*
X0124001Y0125437D01*
X0124177Y0125564D01*
X0124322Y0125214D01*
X0125109Y0124426D01*
X0129322Y0120214D01*
X0130109Y0119426D01*
X0131138Y0119000D01*
X0137252Y0119000D01*
X0138281Y0119426D01*
X0143281Y0124426D01*
X0143895Y0125040D01*
X0143895Y0116243D01*
X0144322Y0115214D01*
X0148895Y0110640D01*
X0148895Y0108105D01*
X0147796Y0107006D01*
X0147095Y0105315D01*
X0147095Y0098285D01*
X0147796Y0096594D01*
X0149090Y0095300D01*
X0150780Y0094600D01*
X0152610Y0094600D01*
X0154301Y0095300D01*
X0155595Y0096594D01*
X0156295Y0098285D01*
X0156295Y0105315D01*
X0155595Y0107006D01*
X0154495Y0108105D01*
X0154495Y0112357D01*
X0154069Y0113386D01*
X0153281Y0114174D01*
X0149495Y0117960D01*
X0149495Y0125132D01*
X0150780Y0124600D01*
X0152610Y0124600D01*
X0153895Y0125132D01*
X0153895Y0116243D01*
X0154322Y0115214D01*
X0155109Y0114426D01*
X0158895Y0110640D01*
X0158895Y0108105D01*
X0157796Y0107006D01*
X0157095Y0105315D01*
X0157095Y0098285D01*
X0157796Y0096594D01*
X0159090Y0095300D01*
X0160780Y0094600D01*
X0162610Y0094600D01*
X0164301Y0095300D01*
X0165595Y0096594D01*
X0166295Y0098285D01*
X0166295Y0105315D01*
X0165595Y0107006D01*
X0164495Y0108105D01*
X0164495Y0112357D01*
X0164069Y0113386D01*
X0163281Y0114174D01*
X0159495Y0117960D01*
X0159495Y0125132D01*
X0160780Y0124600D01*
X0162610Y0124600D01*
X0163895Y0125132D01*
X0163895Y0116243D01*
X0164322Y0115214D01*
X0168895Y0110640D01*
X0168895Y0108105D01*
X0167796Y0107006D01*
X0167095Y0105315D01*
X0167095Y0098285D01*
X0167796Y0096594D01*
X0169090Y0095300D01*
X0170780Y0094600D01*
X0172610Y0094600D01*
X0174301Y0095300D01*
X0175595Y0096594D01*
X0176295Y0098285D01*
X0176295Y0105315D01*
X0175595Y0107006D01*
X0174495Y0108105D01*
X0175299Y0107302D02*
X0178374Y0107302D01*
X0177492Y0105703D02*
X0176134Y0105703D01*
X0176295Y0104105D02*
X0177295Y0104105D01*
X0177295Y0102506D02*
X0176295Y0102506D01*
X0177295Y0101800D02*
X0181695Y0101800D01*
X0181695Y0101800D01*
X0177295Y0101800D01*
X0177295Y0100908D02*
X0176295Y0100908D01*
X0176295Y0099309D02*
X0177295Y0099309D01*
X0177553Y0097711D02*
X0176057Y0097711D01*
X0175113Y0096112D02*
X0178561Y0096112D01*
X0184830Y0096112D02*
X0188278Y0096112D01*
X0187333Y0097711D02*
X0185838Y0097711D01*
X0186095Y0099309D02*
X0187095Y0099309D01*
X0187095Y0100908D02*
X0186095Y0100908D01*
X0186095Y0101800D02*
X0181695Y0101800D01*
X0181695Y0108800D01*
X0181695Y0101800D01*
X0181695Y0101800D01*
X0186095Y0101800D01*
X0186095Y0102506D02*
X0187095Y0102506D01*
X0187095Y0104105D02*
X0186095Y0104105D01*
X0185898Y0105703D02*
X0187256Y0105703D01*
X0188092Y0107302D02*
X0185016Y0107302D01*
X0181695Y0107302D02*
X0181695Y0107302D01*
X0181695Y0105703D02*
X0181695Y0105703D01*
X0181695Y0104105D02*
X0181695Y0104105D01*
X0181695Y0102506D02*
X0181695Y0102506D01*
X0181695Y0101800D02*
X0181695Y0101800D01*
X0171695Y0101800D02*
X0171695Y0111800D01*
X0166695Y0116800D01*
X0166695Y0176800D01*
X0170695Y0180800D01*
X0170695Y0201800D01*
X0176395Y0201614D02*
X0180995Y0201614D01*
X0181111Y0203212D02*
X0176395Y0203212D01*
X0176395Y0204811D02*
X0181773Y0204811D01*
X0183244Y0206409D02*
X0176314Y0206409D01*
X0176395Y0200015D02*
X0181265Y0200015D01*
X0182017Y0198417D02*
X0176395Y0198417D01*
X0175942Y0196818D02*
X0183827Y0196818D01*
X0189563Y0196818D02*
X0193827Y0196818D01*
X0192017Y0198417D02*
X0191373Y0198417D01*
X0191618Y0204811D02*
X0191773Y0204811D01*
X0193244Y0206409D02*
X0190147Y0206409D01*
X0200147Y0206409D02*
X0203244Y0206409D01*
X0201773Y0204811D02*
X0201618Y0204811D01*
X0201373Y0198417D02*
X0202017Y0198417D01*
X0203827Y0196818D02*
X0199563Y0196818D01*
X0203895Y0195220D02*
X0173495Y0195220D01*
X0173495Y0193621D02*
X0203895Y0193621D01*
X0203895Y0192023D02*
X0173495Y0192023D01*
X0173495Y0190424D02*
X0203895Y0190424D01*
X0203895Y0188826D02*
X0173495Y0188826D01*
X0173495Y0187227D02*
X0203895Y0187227D01*
X0203895Y0185629D02*
X0173495Y0185629D01*
X0173495Y0184030D02*
X0203895Y0184030D01*
X0203895Y0182432D02*
X0173495Y0182432D01*
X0173495Y0180833D02*
X0203895Y0180833D01*
X0203895Y0179235D02*
X0173078Y0179235D01*
X0171491Y0177636D02*
X0203895Y0177636D01*
X0203895Y0176038D02*
X0169893Y0176038D01*
X0169495Y0174439D02*
X0203895Y0174439D01*
X0203895Y0172841D02*
X0169495Y0172841D01*
X0169495Y0171242D02*
X0203895Y0171242D01*
X0203895Y0169644D02*
X0169495Y0169644D01*
X0169495Y0168045D02*
X0203895Y0168045D01*
X0203895Y0166447D02*
X0169495Y0166447D01*
X0169495Y0164848D02*
X0203895Y0164848D01*
X0203895Y0163250D02*
X0169495Y0163250D01*
X0169495Y0161651D02*
X0203895Y0161651D01*
X0203895Y0160053D02*
X0169495Y0160053D01*
X0169495Y0158454D02*
X0203895Y0158454D01*
X0203895Y0156856D02*
X0169495Y0156856D01*
X0169495Y0155257D02*
X0203895Y0155257D01*
X0203895Y0153659D02*
X0169495Y0153659D01*
X0169495Y0152060D02*
X0203895Y0152060D01*
X0201695Y0150462D02*
X0201695Y0150462D01*
X0201695Y0148863D02*
X0201695Y0148863D01*
X0201695Y0147265D02*
X0201695Y0147265D01*
X0201695Y0145666D02*
X0201695Y0145666D01*
X0201695Y0144068D02*
X0201695Y0144068D01*
X0201695Y0142469D02*
X0201695Y0142469D01*
X0199521Y0142469D02*
X0194495Y0142469D01*
X0194495Y0142812D02*
X0196495Y0144812D01*
X0196495Y0148788D01*
X0193683Y0151600D01*
X0189707Y0151600D01*
X0186895Y0148788D01*
X0186895Y0144812D01*
X0188895Y0142812D01*
X0188895Y0138105D01*
X0187796Y0137006D01*
X0187095Y0135315D01*
X0187095Y0128285D01*
X0187796Y0126594D01*
X0189090Y0125300D01*
X0190780Y0124600D01*
X0192610Y0124600D01*
X0194301Y0125300D01*
X0195595Y0126594D01*
X0196295Y0128285D01*
X0196295Y0135315D01*
X0195595Y0137006D01*
X0194495Y0138105D01*
X0194495Y0142812D01*
X0195751Y0144068D02*
X0197922Y0144068D01*
X0197095Y0145666D02*
X0196495Y0145666D01*
X0196495Y0147265D02*
X0197095Y0147265D01*
X0197253Y0148863D02*
X0196420Y0148863D01*
X0194822Y0150462D02*
X0198851Y0150462D01*
X0191695Y0146800D02*
X0191695Y0131800D01*
X0187095Y0131279D02*
X0186295Y0131279D01*
X0186295Y0129681D02*
X0187095Y0129681D01*
X0187179Y0128082D02*
X0186211Y0128082D01*
X0186295Y0128285D02*
X0185595Y0126594D01*
X0184301Y0125300D01*
X0182610Y0124600D01*
X0180780Y0124600D01*
X0179090Y0125300D01*
X0177796Y0126594D01*
X0177095Y0128285D01*
X0177095Y0135315D01*
X0177796Y0137006D01*
X0179090Y0138300D01*
X0180780Y0139000D01*
X0182610Y0139000D01*
X0184301Y0138300D01*
X0185595Y0137006D01*
X0186295Y0135315D01*
X0186295Y0128285D01*
X0185485Y0126484D02*
X0187906Y0126484D01*
X0190091Y0124885D02*
X0183299Y0124885D01*
X0180091Y0124885D02*
X0173299Y0124885D01*
X0175485Y0126484D02*
X0177906Y0126484D01*
X0177179Y0128082D02*
X0176211Y0128082D01*
X0176295Y0129681D02*
X0177095Y0129681D01*
X0177095Y0131279D02*
X0176295Y0131279D01*
X0176295Y0132878D02*
X0177095Y0132878D01*
X0177095Y0134476D02*
X0176295Y0134476D01*
X0175980Y0136075D02*
X0177410Y0136075D01*
X0178463Y0137673D02*
X0174927Y0137673D01*
X0169495Y0139272D02*
X0188895Y0139272D01*
X0188895Y0140870D02*
X0169495Y0140870D01*
X0169495Y0142469D02*
X0188895Y0142469D01*
X0187640Y0144068D02*
X0169495Y0144068D01*
X0169495Y0145666D02*
X0186895Y0145666D01*
X0186895Y0147265D02*
X0169495Y0147265D01*
X0169495Y0148863D02*
X0186970Y0148863D01*
X0188569Y0150462D02*
X0169495Y0150462D01*
X0163895Y0150462D02*
X0160745Y0150462D01*
X0160745Y0152060D02*
X0163895Y0152060D01*
X0163895Y0153659D02*
X0160745Y0153659D01*
X0160745Y0155257D02*
X0163895Y0155257D01*
X0163895Y0156856D02*
X0160745Y0156856D01*
X0160745Y0158454D02*
X0163895Y0158454D01*
X0163895Y0160053D02*
X0160745Y0160053D01*
X0160745Y0161651D02*
X0163895Y0161651D01*
X0163895Y0163250D02*
X0160745Y0163250D01*
X0160745Y0164848D02*
X0163895Y0164848D01*
X0163895Y0166447D02*
X0160745Y0166447D01*
X0160745Y0168045D02*
X0163895Y0168045D01*
X0163895Y0169644D02*
X0160745Y0169644D01*
X0160745Y0171242D02*
X0163895Y0171242D01*
X0163895Y0172841D02*
X0160745Y0172841D01*
X0160745Y0174439D02*
X0163895Y0174439D01*
X0163895Y0176038D02*
X0160745Y0176038D01*
X0160745Y0176890D02*
X0163069Y0179214D01*
X0163495Y0180243D01*
X0163495Y0196790D01*
X0163924Y0196968D01*
X0164995Y0198039D01*
X0164995Y0197272D01*
X0166167Y0196100D01*
X0167895Y0196100D01*
X0167895Y0181960D01*
X0165109Y0179174D01*
X0164322Y0178386D01*
X0163895Y0177357D01*
X0163895Y0138468D01*
X0162610Y0139000D01*
X0160780Y0139000D01*
X0159495Y0138468D01*
X0159495Y0139390D01*
X0159531Y0139426D01*
X0160319Y0140214D01*
X0160745Y0141243D01*
X0160745Y0176890D01*
X0161491Y0177636D02*
X0164011Y0177636D01*
X0163078Y0179235D02*
X0165170Y0179235D01*
X0166769Y0180833D02*
X0163495Y0180833D01*
X0163495Y0182432D02*
X0167895Y0182432D01*
X0167895Y0184030D02*
X0163495Y0184030D01*
X0163495Y0185629D02*
X0167895Y0185629D01*
X0167895Y0187227D02*
X0163495Y0187227D01*
X0163495Y0188826D02*
X0167895Y0188826D01*
X0167895Y0190424D02*
X0163495Y0190424D01*
X0163495Y0192023D02*
X0167895Y0192023D01*
X0167895Y0193621D02*
X0163495Y0193621D01*
X0163495Y0195220D02*
X0167895Y0195220D01*
X0165448Y0196818D02*
X0163563Y0196818D01*
X0157895Y0196790D02*
X0157895Y0181960D01*
X0156359Y0180424D01*
X0155572Y0179636D01*
X0155145Y0178607D01*
X0155145Y0142960D01*
X0154495Y0142310D01*
X0154495Y0179244D01*
X0154906Y0179655D01*
X0155483Y0181047D01*
X0155483Y0182553D01*
X0154906Y0183945D01*
X0153841Y0185011D01*
X0152449Y0185587D01*
X0150942Y0185587D01*
X0149550Y0185011D01*
X0148484Y0183945D01*
X0147908Y0182553D01*
X0147908Y0181047D01*
X0148484Y0179655D01*
X0148895Y0179244D01*
X0148895Y0141060D01*
X0148245Y0141710D01*
X0148245Y0178607D01*
X0147819Y0179636D01*
X0143495Y0183960D01*
X0143495Y0196790D01*
X0143924Y0196968D01*
X0145527Y0198571D01*
X0145695Y0198976D01*
X0145863Y0198571D01*
X0147466Y0196968D01*
X0149561Y0196100D01*
X0151829Y0196100D01*
X0153924Y0196968D01*
X0155527Y0198571D01*
X0155695Y0198976D01*
X0155863Y0198571D01*
X0157466Y0196968D01*
X0157895Y0196790D01*
X0157827Y0196818D02*
X0153563Y0196818D01*
X0155373Y0198417D02*
X0156017Y0198417D01*
X0157895Y0195220D02*
X0143495Y0195220D01*
X0143495Y0193621D02*
X0157895Y0193621D01*
X0157895Y0192023D02*
X0143495Y0192023D01*
X0143495Y0190424D02*
X0157895Y0190424D01*
X0157895Y0188826D02*
X0143495Y0188826D01*
X0143495Y0187227D02*
X0157895Y0187227D01*
X0157895Y0185629D02*
X0143495Y0185629D01*
X0143495Y0184030D02*
X0148569Y0184030D01*
X0147908Y0182432D02*
X0145023Y0182432D01*
X0146622Y0180833D02*
X0147996Y0180833D01*
X0147985Y0179235D02*
X0148895Y0179235D01*
X0148895Y0177636D02*
X0148245Y0177636D01*
X0148245Y0176038D02*
X0148895Y0176038D01*
X0148895Y0174439D02*
X0148245Y0174439D01*
X0148245Y0172841D02*
X0148895Y0172841D01*
X0148895Y0171242D02*
X0148245Y0171242D01*
X0148245Y0169644D02*
X0148895Y0169644D01*
X0148895Y0168045D02*
X0148245Y0168045D01*
X0148245Y0166447D02*
X0148895Y0166447D01*
X0148895Y0164848D02*
X0148245Y0164848D01*
X0148245Y0163250D02*
X0148895Y0163250D01*
X0148895Y0161651D02*
X0148245Y0161651D01*
X0148245Y0160053D02*
X0148895Y0160053D01*
X0148895Y0158454D02*
X0148245Y0158454D01*
X0148245Y0156856D02*
X0148895Y0156856D01*
X0148895Y0155257D02*
X0148245Y0155257D01*
X0148245Y0153659D02*
X0148895Y0153659D01*
X0148895Y0152060D02*
X0148245Y0152060D01*
X0148245Y0150462D02*
X0148895Y0150462D01*
X0148895Y0148863D02*
X0148245Y0148863D01*
X0148245Y0147265D02*
X0148895Y0147265D01*
X0148895Y0145666D02*
X0148245Y0145666D01*
X0148245Y0144068D02*
X0148895Y0144068D01*
X0148895Y0142469D02*
X0148245Y0142469D01*
X0145445Y0140550D02*
X0145445Y0178050D01*
X0140695Y0182800D01*
X0140695Y0201800D01*
X0137895Y0196790D02*
X0137895Y0182243D01*
X0138322Y0181214D01*
X0142645Y0176890D01*
X0142645Y0139993D01*
X0143072Y0138964D01*
X0143336Y0138699D01*
X0142610Y0139000D01*
X0140780Y0139000D01*
X0139090Y0138300D01*
X0137796Y0137006D01*
X0137095Y0135315D01*
X0137095Y0128285D01*
X0137718Y0126782D01*
X0135535Y0124600D01*
X0132855Y0124600D01*
X0132783Y0124672D01*
X0134301Y0125300D01*
X0135595Y0126594D01*
X0136295Y0128285D01*
X0136295Y0135315D01*
X0135595Y0137006D01*
X0134495Y0138105D01*
X0134495Y0174244D01*
X0134906Y0174655D01*
X0135483Y0176047D01*
X0135483Y0177553D01*
X0134906Y0178945D01*
X0133841Y0180011D01*
X0132449Y0180587D01*
X0130942Y0180587D01*
X0129550Y0180011D01*
X0128497Y0178958D01*
X0123495Y0183960D01*
X0123495Y0196790D01*
X0123924Y0196968D01*
X0125527Y0198571D01*
X0125695Y0198976D01*
X0125863Y0198571D01*
X0127466Y0196968D01*
X0129561Y0196100D01*
X0131829Y0196100D01*
X0133924Y0196968D01*
X0135527Y0198571D01*
X0135695Y0198976D01*
X0135863Y0198571D01*
X0137466Y0196968D01*
X0137895Y0196790D01*
X0137827Y0196818D02*
X0133563Y0196818D01*
X0135373Y0198417D02*
X0136017Y0198417D01*
X0137895Y0195220D02*
X0123495Y0195220D01*
X0123495Y0193621D02*
X0137895Y0193621D01*
X0137895Y0192023D02*
X0123495Y0192023D01*
X0123495Y0190424D02*
X0137895Y0190424D01*
X0137895Y0188826D02*
X0123495Y0188826D01*
X0123495Y0187227D02*
X0137895Y0187227D01*
X0137895Y0185629D02*
X0123495Y0185629D01*
X0123495Y0184030D02*
X0137895Y0184030D01*
X0137895Y0182432D02*
X0125023Y0182432D01*
X0126622Y0180833D02*
X0138702Y0180833D01*
X0140301Y0179235D02*
X0134617Y0179235D01*
X0135448Y0177636D02*
X0141899Y0177636D01*
X0142645Y0176038D02*
X0135479Y0176038D01*
X0134691Y0174439D02*
X0142645Y0174439D01*
X0142645Y0172841D02*
X0134495Y0172841D01*
X0134495Y0171242D02*
X0142645Y0171242D01*
X0142645Y0169644D02*
X0134495Y0169644D01*
X0134495Y0168045D02*
X0142645Y0168045D01*
X0142645Y0166447D02*
X0134495Y0166447D01*
X0134495Y0164848D02*
X0142645Y0164848D01*
X0142645Y0163250D02*
X0134495Y0163250D01*
X0134495Y0161651D02*
X0142645Y0161651D01*
X0142645Y0160053D02*
X0134495Y0160053D01*
X0134495Y0158454D02*
X0142645Y0158454D01*
X0142645Y0156856D02*
X0134495Y0156856D01*
X0134495Y0155257D02*
X0142645Y0155257D01*
X0142645Y0153659D02*
X0134495Y0153659D01*
X0134495Y0152060D02*
X0142645Y0152060D01*
X0142645Y0150462D02*
X0134495Y0150462D01*
X0134495Y0148863D02*
X0142645Y0148863D01*
X0142645Y0147265D02*
X0134495Y0147265D01*
X0134495Y0145666D02*
X0142645Y0145666D01*
X0142645Y0144068D02*
X0134495Y0144068D01*
X0134495Y0142469D02*
X0142645Y0142469D01*
X0142645Y0140870D02*
X0134495Y0140870D01*
X0134495Y0139272D02*
X0142944Y0139272D01*
X0145445Y0140550D02*
X0146695Y0139300D01*
X0146695Y0116800D01*
X0151695Y0111800D01*
X0151695Y0101800D01*
X0147095Y0102506D02*
X0146295Y0102506D01*
X0146295Y0100908D02*
X0147095Y0100908D01*
X0147095Y0099309D02*
X0146295Y0099309D01*
X0146057Y0097711D02*
X0147333Y0097711D01*
X0148278Y0096112D02*
X0145113Y0096112D01*
X0141695Y0101800D02*
X0141695Y0109300D01*
X0136695Y0114300D01*
X0111695Y0114300D01*
X0105445Y0120550D01*
X0105445Y0175550D01*
X0111695Y0181800D01*
X0115394Y0180833D02*
X0118702Y0180833D01*
X0117895Y0182432D02*
X0115483Y0182432D01*
X0114821Y0184030D02*
X0117895Y0184030D01*
X0117895Y0185629D02*
X0110310Y0185629D01*
X0110483Y0187227D02*
X0117895Y0187227D01*
X0117895Y0188826D02*
X0109956Y0188826D01*
X0107842Y0190424D02*
X0117895Y0190424D01*
X0117895Y0192023D02*
X0009195Y0192023D01*
X0009195Y0193621D02*
X0064753Y0193621D01*
X0061539Y0195220D02*
X0046864Y0195220D01*
X0046794Y0195150D02*
X0050045Y0198401D01*
X0050045Y0200250D01*
X0044945Y0200250D01*
X0044945Y0195150D01*
X0046794Y0195150D01*
X0044945Y0195220D02*
X0044045Y0195220D01*
X0044045Y0195150D02*
X0044045Y0200250D01*
X0038945Y0200250D01*
X0038945Y0198401D01*
X0042196Y0195150D01*
X0044045Y0195150D01*
X0044045Y0196818D02*
X0044945Y0196818D01*
X0044945Y0198417D02*
X0044045Y0198417D01*
X0044045Y0200015D02*
X0044945Y0200015D01*
X0044945Y0200250D02*
X0044045Y0200250D01*
X0044045Y0201150D01*
X0038945Y0201150D01*
X0038945Y0202999D01*
X0042196Y0206250D01*
X0044045Y0206250D01*
X0044045Y0201150D01*
X0044945Y0201150D01*
X0044945Y0206250D01*
X0046794Y0206250D01*
X0050045Y0202999D01*
X0050045Y0201150D01*
X0044945Y0201150D01*
X0044945Y0200250D01*
X0044945Y0201614D02*
X0044045Y0201614D01*
X0044045Y0203212D02*
X0044945Y0203212D01*
X0044945Y0204811D02*
X0044045Y0204811D01*
X0040757Y0204811D02*
X0022633Y0204811D01*
X0021194Y0206250D02*
X0024445Y0202999D01*
X0024445Y0201150D01*
X0019345Y0201150D01*
X0018445Y0201150D01*
X0018445Y0200250D01*
X0013345Y0200250D01*
X0013345Y0198401D01*
X0016596Y0195150D01*
X0018445Y0195150D01*
X0018445Y0200250D01*
X0019345Y0200250D01*
X0019345Y0195150D01*
X0021194Y0195150D01*
X0024445Y0198401D01*
X0024445Y0200250D01*
X0019345Y0200250D01*
X0019345Y0201150D01*
X0019345Y0206250D01*
X0021194Y0206250D01*
X0019345Y0204811D02*
X0018445Y0204811D01*
X0018445Y0206250D02*
X0016596Y0206250D01*
X0013345Y0202999D01*
X0013345Y0201150D01*
X0018445Y0201150D01*
X0018445Y0206250D01*
X0018445Y0203212D02*
X0019345Y0203212D01*
X0019345Y0201614D02*
X0018445Y0201614D01*
X0018445Y0200015D02*
X0019345Y0200015D01*
X0019345Y0198417D02*
X0018445Y0198417D01*
X0018445Y0196818D02*
X0019345Y0196818D01*
X0019345Y0195220D02*
X0018445Y0195220D01*
X0016527Y0195220D02*
X0009195Y0195220D01*
X0009195Y0196818D02*
X0014928Y0196818D01*
X0013345Y0198417D02*
X0009195Y0198417D01*
X0009195Y0200015D02*
X0013345Y0200015D01*
X0013345Y0201614D02*
X0009195Y0201614D01*
X0009195Y0203212D02*
X0013559Y0203212D01*
X0015157Y0204811D02*
X0009195Y0204811D01*
X0009195Y0206409D02*
X0059622Y0206409D01*
X0058959Y0204811D02*
X0048233Y0204811D01*
X0049832Y0203212D02*
X0058396Y0203212D01*
X0058396Y0201614D02*
X0050045Y0201614D01*
X0050045Y0200015D02*
X0058451Y0200015D01*
X0059114Y0198417D02*
X0050045Y0198417D01*
X0048463Y0196818D02*
X0059940Y0196818D01*
X0068637Y0193621D02*
X0117895Y0193621D01*
X0117895Y0195220D02*
X0071852Y0195220D01*
X0073451Y0196818D02*
X0097827Y0196818D01*
X0096017Y0198417D02*
X0074277Y0198417D01*
X0074939Y0200015D02*
X0095265Y0200015D01*
X0094995Y0201614D02*
X0074994Y0201614D01*
X0074994Y0203212D02*
X0095111Y0203212D01*
X0095773Y0204811D02*
X0074431Y0204811D01*
X0073769Y0206409D02*
X0097244Y0206409D01*
X0104147Y0206409D02*
X0107682Y0206409D01*
X0106084Y0204811D02*
X0105618Y0204811D01*
X0110495Y0204811D02*
X0110895Y0204811D01*
X0110895Y0206409D02*
X0110495Y0206409D01*
X0110495Y0203212D02*
X0110895Y0203212D01*
X0113708Y0206409D02*
X0117244Y0206409D01*
X0115773Y0204811D02*
X0115306Y0204811D01*
X0120695Y0201800D02*
X0120695Y0182800D01*
X0127945Y0175550D01*
X0127945Y0140550D01*
X0126695Y0139300D01*
X0126695Y0126800D01*
X0131695Y0121800D01*
X0136695Y0121800D01*
X0141695Y0126800D01*
X0141695Y0131800D01*
X0137095Y0131279D02*
X0136295Y0131279D01*
X0136295Y0129681D02*
X0137095Y0129681D01*
X0137179Y0128082D02*
X0136211Y0128082D01*
X0135485Y0126484D02*
X0137419Y0126484D01*
X0135821Y0124885D02*
X0133299Y0124885D01*
X0129446Y0120090D02*
X0109865Y0120090D01*
X0108267Y0121688D02*
X0127847Y0121688D01*
X0126249Y0123287D02*
X0108245Y0123287D01*
X0108245Y0124885D02*
X0110091Y0124885D01*
X0113299Y0124885D02*
X0120810Y0124885D01*
X0121695Y0124885D02*
X0121695Y0124885D01*
X0122581Y0124885D02*
X0124650Y0124885D01*
X0121695Y0126484D02*
X0121695Y0126484D01*
X0121695Y0128082D02*
X0121695Y0128082D01*
X0121695Y0129681D02*
X0121695Y0129681D01*
X0121695Y0131279D02*
X0121695Y0131279D01*
X0121695Y0132878D02*
X0121695Y0132878D01*
X0121695Y0134476D02*
X0121695Y0134476D01*
X0121695Y0136075D02*
X0121695Y0136075D01*
X0121695Y0137673D02*
X0121695Y0137673D01*
X0123895Y0139272D02*
X0108245Y0139272D01*
X0108245Y0140870D02*
X0124315Y0140870D01*
X0123870Y0142469D02*
X0125145Y0142469D01*
X0121695Y0142469D02*
X0121695Y0142469D01*
X0121695Y0144068D02*
X0121695Y0144068D01*
X0121695Y0145666D02*
X0121695Y0145666D01*
X0121695Y0147265D02*
X0121695Y0147265D01*
X0121695Y0148863D02*
X0121695Y0148863D01*
X0121695Y0150462D02*
X0121695Y0150462D01*
X0118851Y0150462D02*
X0114822Y0150462D01*
X0116420Y0148863D02*
X0117253Y0148863D01*
X0117095Y0147265D02*
X0116495Y0147265D01*
X0116495Y0145666D02*
X0117095Y0145666D01*
X0117922Y0144068D02*
X0115751Y0144068D01*
X0114152Y0142469D02*
X0119521Y0142469D01*
X0118746Y0137673D02*
X0114927Y0137673D01*
X0115980Y0136075D02*
X0117613Y0136075D01*
X0117295Y0134476D02*
X0116295Y0134476D01*
X0116295Y0132878D02*
X0117295Y0132878D01*
X0117295Y0131279D02*
X0116295Y0131279D01*
X0116295Y0129681D02*
X0117295Y0129681D01*
X0117432Y0128082D02*
X0116211Y0128082D01*
X0115485Y0126484D02*
X0118230Y0126484D01*
X0111464Y0118491D02*
X0143895Y0118491D01*
X0143895Y0116893D02*
X0137752Y0116893D01*
X0139661Y0115294D02*
X0144288Y0115294D01*
X0145840Y0113696D02*
X0141259Y0113696D01*
X0142858Y0112097D02*
X0147438Y0112097D01*
X0148895Y0110499D02*
X0144229Y0110499D01*
X0144495Y0108900D02*
X0148895Y0108900D01*
X0148092Y0107302D02*
X0145299Y0107302D01*
X0146134Y0105703D02*
X0147256Y0105703D01*
X0147095Y0104105D02*
X0146295Y0104105D01*
X0138092Y0107302D02*
X0135299Y0107302D01*
X0136134Y0105703D02*
X0137256Y0105703D01*
X0137095Y0104105D02*
X0136295Y0104105D01*
X0136295Y0102506D02*
X0137095Y0102506D01*
X0137095Y0100908D02*
X0136295Y0100908D01*
X0136295Y0099309D02*
X0137095Y0099309D01*
X0137333Y0097711D02*
X0136057Y0097711D01*
X0135113Y0096112D02*
X0138278Y0096112D01*
X0131695Y0101800D02*
X0131695Y0106800D01*
X0127945Y0110550D01*
X0106695Y0110550D01*
X0101695Y0115550D01*
X0101695Y0181800D01*
X0106695Y0186800D01*
X0103435Y0188826D02*
X0009195Y0188826D01*
X0009195Y0190424D02*
X0105548Y0190424D01*
X0102908Y0187227D02*
X0048300Y0187227D01*
X0046877Y0188650D02*
X0042114Y0188650D01*
X0038745Y0185282D01*
X0038745Y0180518D01*
X0042114Y0177150D01*
X0046877Y0177150D01*
X0050245Y0180518D01*
X0050245Y0185282D01*
X0046877Y0188650D01*
X0049898Y0185629D02*
X0053453Y0185629D01*
X0054624Y0186800D02*
X0051695Y0183871D01*
X0051695Y0179729D01*
X0054624Y0176800D01*
X0058766Y0176800D01*
X0061695Y0179729D01*
X0061695Y0183871D01*
X0058766Y0186800D01*
X0054624Y0186800D01*
X0051855Y0184030D02*
X0050245Y0184030D01*
X0050245Y0182432D02*
X0051695Y0182432D01*
X0051695Y0180833D02*
X0050245Y0180833D01*
X0048962Y0179235D02*
X0052189Y0179235D01*
X0053788Y0177636D02*
X0047363Y0177636D01*
X0041627Y0177636D02*
X0021763Y0177636D01*
X0021277Y0177150D02*
X0024645Y0180518D01*
X0024645Y0185282D01*
X0021277Y0188650D01*
X0016514Y0188650D01*
X0013145Y0185282D01*
X0013145Y0180518D01*
X0016514Y0177150D01*
X0021277Y0177150D01*
X0023362Y0179235D02*
X0040029Y0179235D01*
X0038745Y0180833D02*
X0024645Y0180833D01*
X0024645Y0182432D02*
X0038745Y0182432D01*
X0038745Y0184030D02*
X0024645Y0184030D01*
X0024298Y0185629D02*
X0039092Y0185629D01*
X0040691Y0187227D02*
X0022700Y0187227D01*
X0015091Y0187227D02*
X0009195Y0187227D01*
X0009195Y0185629D02*
X0013492Y0185629D01*
X0013145Y0184030D02*
X0009195Y0184030D01*
X0009195Y0182432D02*
X0013145Y0182432D01*
X0013145Y0180833D02*
X0009195Y0180833D01*
X0009195Y0179235D02*
X0014429Y0179235D01*
X0016027Y0177636D02*
X0009195Y0177636D01*
X0009195Y0176038D02*
X0093498Y0176038D01*
X0091899Y0177636D02*
X0089603Y0177636D01*
X0091695Y0181800D02*
X0086695Y0181800D01*
X0091695Y0181800D02*
X0097945Y0175550D01*
X0097945Y0113050D01*
X0109195Y0101800D01*
X0111695Y0101800D01*
X0116295Y0102506D02*
X0117095Y0102506D01*
X0117095Y0100908D02*
X0116295Y0100908D01*
X0116295Y0099309D02*
X0117095Y0099309D01*
X0117333Y0097711D02*
X0116057Y0097711D01*
X0115113Y0096112D02*
X0118278Y0096112D01*
X0125113Y0096112D02*
X0128278Y0096112D01*
X0127333Y0097711D02*
X0126057Y0097711D01*
X0126295Y0099309D02*
X0127095Y0099309D01*
X0127095Y0100908D02*
X0126295Y0100908D01*
X0126295Y0102506D02*
X0127095Y0102506D01*
X0127095Y0104105D02*
X0126295Y0104105D01*
X0126134Y0105703D02*
X0127256Y0105703D01*
X0127234Y0107302D02*
X0125299Y0107302D01*
X0118092Y0107302D02*
X0115299Y0107302D01*
X0116134Y0105703D02*
X0117256Y0105703D01*
X0117095Y0104105D02*
X0116295Y0104105D01*
X0131956Y0110499D02*
X0136537Y0110499D01*
X0138135Y0108900D02*
X0133555Y0108900D01*
X0138945Y0120090D02*
X0143895Y0120090D01*
X0143895Y0121688D02*
X0140543Y0121688D01*
X0142142Y0123287D02*
X0143895Y0123287D01*
X0143895Y0124885D02*
X0143740Y0124885D01*
X0149495Y0124885D02*
X0150091Y0124885D01*
X0149495Y0123287D02*
X0153895Y0123287D01*
X0153895Y0124885D02*
X0153299Y0124885D01*
X0153895Y0121688D02*
X0149495Y0121688D01*
X0149495Y0120090D02*
X0153895Y0120090D01*
X0153895Y0118491D02*
X0149495Y0118491D01*
X0150562Y0116893D02*
X0153895Y0116893D01*
X0154288Y0115294D02*
X0152161Y0115294D01*
X0153759Y0113696D02*
X0155840Y0113696D01*
X0154495Y0112097D02*
X0157438Y0112097D01*
X0158895Y0110499D02*
X0154495Y0110499D01*
X0154495Y0108900D02*
X0158895Y0108900D01*
X0158092Y0107302D02*
X0155299Y0107302D01*
X0156134Y0105703D02*
X0157256Y0105703D01*
X0157095Y0104105D02*
X0156295Y0104105D01*
X0156295Y0102506D02*
X0157095Y0102506D01*
X0157095Y0100908D02*
X0156295Y0100908D01*
X0156295Y0099309D02*
X0157095Y0099309D01*
X0157333Y0097711D02*
X0156057Y0097711D01*
X0155113Y0096112D02*
X0158278Y0096112D01*
X0161695Y0101800D02*
X0161695Y0111800D01*
X0156695Y0116800D01*
X0156695Y0140550D01*
X0157945Y0141800D01*
X0157945Y0178050D01*
X0160695Y0180800D01*
X0160695Y0201800D01*
X0157244Y0206409D02*
X0154147Y0206409D01*
X0155618Y0204811D02*
X0155773Y0204811D01*
X0164147Y0206409D02*
X0165076Y0206409D01*
X0147827Y0196818D02*
X0143563Y0196818D01*
X0145373Y0198417D02*
X0146017Y0198417D01*
X0145773Y0204811D02*
X0145618Y0204811D01*
X0144147Y0206409D02*
X0147244Y0206409D01*
X0137244Y0206409D02*
X0134147Y0206409D01*
X0135618Y0204811D02*
X0135773Y0204811D01*
X0127244Y0206409D02*
X0124147Y0206409D01*
X0125618Y0204811D02*
X0125773Y0204811D01*
X0126017Y0198417D02*
X0125373Y0198417D01*
X0123563Y0196818D02*
X0127827Y0196818D01*
X0117827Y0196818D02*
X0113033Y0196818D01*
X0110895Y0196818D02*
X0110495Y0196818D01*
X0110495Y0198417D02*
X0110895Y0198417D01*
X0110895Y0200015D02*
X0110495Y0200015D01*
X0108357Y0196818D02*
X0103563Y0196818D01*
X0105373Y0198417D02*
X0106355Y0198417D01*
X0115036Y0198417D02*
X0116017Y0198417D01*
X0101564Y0185629D02*
X0089938Y0185629D01*
X0093425Y0184030D02*
X0099966Y0184030D01*
X0098926Y0182432D02*
X0095023Y0182432D01*
X0096622Y0180833D02*
X0098895Y0180833D01*
X0098895Y0179235D02*
X0098220Y0179235D01*
X0095096Y0174439D02*
X0009195Y0174439D01*
X0009195Y0172841D02*
X0009990Y0172841D01*
X0013519Y0172841D02*
X0014872Y0172841D01*
X0014872Y0171242D02*
X0013519Y0171242D01*
X0013519Y0169644D02*
X0014872Y0169644D01*
X0014872Y0168045D02*
X0051695Y0168045D01*
X0051695Y0168871D02*
X0051695Y0164729D01*
X0054624Y0161800D01*
X0058766Y0161800D01*
X0061695Y0164729D01*
X0061695Y0168871D01*
X0058766Y0171800D01*
X0054624Y0171800D01*
X0051695Y0168871D01*
X0052468Y0169644D02*
X0020279Y0169644D01*
X0019655Y0171242D02*
X0054066Y0171242D01*
X0059324Y0171242D02*
X0084066Y0171242D01*
X0089324Y0171242D02*
X0095145Y0171242D01*
X0095145Y0169644D02*
X0090923Y0169644D01*
X0091695Y0168045D02*
X0095145Y0168045D01*
X0095145Y0166447D02*
X0091695Y0166447D01*
X0091695Y0164848D02*
X0095145Y0164848D01*
X0095145Y0163250D02*
X0090216Y0163250D01*
X0095145Y0161651D02*
X0079138Y0161651D01*
X0077539Y0160053D02*
X0095145Y0160053D01*
X0095145Y0158454D02*
X0076545Y0158454D01*
X0076545Y0156856D02*
X0095145Y0156856D01*
X0095145Y0155257D02*
X0076545Y0155257D01*
X0076545Y0153659D02*
X0095145Y0153659D01*
X0095145Y0152060D02*
X0083891Y0152060D01*
X0086095Y0150462D02*
X0095145Y0150462D01*
X0095145Y0148863D02*
X0087010Y0148863D01*
X0087395Y0147265D02*
X0095145Y0147265D01*
X0095145Y0142469D02*
X0085425Y0142469D01*
X0081795Y0140870D02*
X0095145Y0140870D01*
X0095145Y0139272D02*
X0081795Y0139272D01*
X0081795Y0137673D02*
X0095145Y0137673D01*
X0095145Y0136075D02*
X0081795Y0136075D01*
X0081795Y0134476D02*
X0095145Y0134476D01*
X0095145Y0132878D02*
X0081795Y0132878D01*
X0081795Y0131279D02*
X0084386Y0131279D01*
X0084707Y0131600D02*
X0081895Y0128788D01*
X0081895Y0126800D01*
X0081895Y0124812D01*
X0084707Y0122000D01*
X0086695Y0122000D01*
X0086695Y0126800D01*
X0086695Y0126800D01*
X0081895Y0126800D01*
X0086695Y0126800D01*
X0086695Y0131600D01*
X0084707Y0131600D01*
X0086695Y0131600D02*
X0088683Y0131600D01*
X0091495Y0128788D01*
X0091495Y0126800D01*
X0086695Y0126800D01*
X0086695Y0126800D01*
X0086695Y0126800D01*
X0086695Y0131600D01*
X0086695Y0131279D02*
X0086695Y0131279D01*
X0086695Y0129681D02*
X0086695Y0129681D01*
X0086695Y0128082D02*
X0086695Y0128082D01*
X0086695Y0126800D02*
X0091495Y0126800D01*
X0091495Y0124812D01*
X0088683Y0122000D01*
X0086695Y0122000D01*
X0086695Y0126800D01*
X0086695Y0126800D01*
X0086695Y0126484D02*
X0086695Y0126484D01*
X0086695Y0124885D02*
X0086695Y0124885D01*
X0086695Y0123287D02*
X0086695Y0123287D01*
X0089970Y0123287D02*
X0095145Y0123287D01*
X0095145Y0124885D02*
X0091495Y0124885D01*
X0091495Y0126484D02*
X0095145Y0126484D01*
X0095145Y0128082D02*
X0091495Y0128082D01*
X0090603Y0129681D02*
X0095145Y0129681D01*
X0095145Y0131279D02*
X0089004Y0131279D01*
X0082788Y0129681D02*
X0081795Y0129681D01*
X0081795Y0128082D02*
X0081895Y0128082D01*
X0081895Y0126484D02*
X0081795Y0126484D01*
X0081795Y0124885D02*
X0081895Y0124885D01*
X0081795Y0123287D02*
X0083420Y0123287D01*
X0081795Y0121688D02*
X0095145Y0121688D01*
X0095145Y0120090D02*
X0081795Y0120090D01*
X0081795Y0118491D02*
X0095145Y0118491D01*
X0095145Y0116893D02*
X0081795Y0116893D01*
X0081795Y0115294D02*
X0083119Y0115294D01*
X0069345Y0115294D02*
X0060272Y0115294D01*
X0061695Y0113871D02*
X0058766Y0116800D01*
X0054624Y0116800D01*
X0051695Y0113871D01*
X0051695Y0109729D01*
X0054624Y0106800D01*
X0058766Y0106800D01*
X0061695Y0109729D01*
X0061695Y0113871D01*
X0061695Y0113696D02*
X0069345Y0113696D01*
X0069345Y0112097D02*
X0061695Y0112097D01*
X0061695Y0110499D02*
X0069345Y0110499D01*
X0069345Y0108900D02*
X0060867Y0108900D01*
X0059268Y0107302D02*
X0069345Y0107302D01*
X0069345Y0105703D02*
X0049824Y0105703D01*
X0048225Y0107302D02*
X0054122Y0107302D01*
X0052524Y0108900D02*
X0009195Y0108900D01*
X0009195Y0107302D02*
X0015165Y0107302D01*
X0013567Y0105703D02*
X0009195Y0105703D01*
X0009195Y0104105D02*
X0013145Y0104105D01*
X0013145Y0102506D02*
X0009195Y0102506D01*
X0009195Y0100908D02*
X0013145Y0100908D01*
X0014354Y0099309D02*
X0009195Y0099309D01*
X0009195Y0097711D02*
X0015953Y0097711D01*
X0016095Y0096112D02*
X0009195Y0096112D01*
X0009195Y0094514D02*
X0016095Y0094514D01*
X0016095Y0092915D02*
X0009195Y0092915D01*
X0009195Y0091317D02*
X0014707Y0091317D01*
X0013108Y0089718D02*
X0009195Y0089718D01*
X0009195Y0088120D02*
X0012095Y0088120D01*
X0012095Y0086521D02*
X0009195Y0086521D01*
X0009195Y0084923D02*
X0012095Y0084923D01*
X0013666Y0083324D02*
X0009195Y0083324D01*
X0009195Y0081726D02*
X0076595Y0081726D01*
X0076595Y0083324D02*
X0070008Y0083324D01*
X0068683Y0082000D02*
X0071495Y0084812D01*
X0071495Y0086800D01*
X0066695Y0086800D01*
X0066695Y0086800D01*
X0061895Y0086800D01*
X0061895Y0084812D01*
X0064707Y0082000D01*
X0066695Y0082000D01*
X0066695Y0086800D01*
X0061895Y0086800D01*
X0061895Y0088788D01*
X0064707Y0091600D01*
X0066695Y0091600D01*
X0066695Y0086800D01*
X0066695Y0086800D01*
X0066695Y0086800D01*
X0066695Y0091600D01*
X0068683Y0091600D01*
X0071495Y0088788D01*
X0071495Y0086800D01*
X0066695Y0086800D01*
X0066695Y0082000D01*
X0068683Y0082000D01*
X0066695Y0083324D02*
X0066695Y0083324D01*
X0066695Y0084923D02*
X0066695Y0084923D01*
X0066695Y0086521D02*
X0066695Y0086521D01*
X0066695Y0086800D02*
X0066695Y0086800D01*
X0066695Y0088120D02*
X0066695Y0088120D01*
X0066695Y0089718D02*
X0066695Y0089718D01*
X0066695Y0091317D02*
X0066695Y0091317D01*
X0064424Y0091317D02*
X0039250Y0091317D01*
X0038766Y0091800D02*
X0041695Y0088871D01*
X0041695Y0084729D01*
X0038766Y0081800D01*
X0034624Y0081800D01*
X0032424Y0084000D01*
X0030401Y0084000D01*
X0028601Y0082200D01*
X0024790Y0082200D01*
X0022095Y0084895D01*
X0022095Y0088705D01*
X0024790Y0091400D01*
X0028601Y0091400D01*
X0030401Y0089600D01*
X0032424Y0089600D01*
X0034624Y0091800D01*
X0038766Y0091800D01*
X0040848Y0089718D02*
X0062825Y0089718D01*
X0061895Y0088120D02*
X0041695Y0088120D01*
X0041695Y0086521D02*
X0061895Y0086521D01*
X0061895Y0084923D02*
X0041695Y0084923D01*
X0040290Y0083324D02*
X0063383Y0083324D01*
X0071495Y0084923D02*
X0077605Y0084923D01*
X0079204Y0086521D02*
X0071495Y0086521D01*
X0071495Y0088120D02*
X0085284Y0088120D01*
X0084187Y0086521D02*
X0086883Y0086521D01*
X0087323Y0084923D02*
X0085785Y0084923D01*
X0081695Y0084923D02*
X0081695Y0084923D01*
X0081695Y0086521D02*
X0081695Y0086521D01*
X0081695Y0083324D02*
X0081695Y0083324D01*
X0081695Y0081726D02*
X0081695Y0081726D01*
X0081695Y0080127D02*
X0081695Y0080127D01*
X0081695Y0078529D02*
X0081695Y0078529D01*
X0081695Y0076930D02*
X0081695Y0076930D01*
X0079353Y0076930D02*
X0009195Y0076930D01*
X0009195Y0075332D02*
X0093073Y0075332D01*
X0094671Y0073733D02*
X0009195Y0073733D01*
X0009195Y0072134D02*
X0096270Y0072134D01*
X0099870Y0070536D02*
X0069747Y0070536D01*
X0068683Y0071600D02*
X0071495Y0068788D01*
X0071495Y0066800D01*
X0066695Y0066800D01*
X0066695Y0066800D01*
X0061895Y0066800D01*
X0061895Y0064812D01*
X0064707Y0062000D01*
X0066695Y0062000D01*
X0066695Y0066800D01*
X0061895Y0066800D01*
X0061895Y0068788D01*
X0064707Y0071600D01*
X0066695Y0071600D01*
X0066695Y0066800D01*
X0066695Y0066800D01*
X0066695Y0066800D01*
X0066695Y0071600D01*
X0068683Y0071600D01*
X0066695Y0070536D02*
X0066695Y0070536D01*
X0066695Y0068937D02*
X0066695Y0068937D01*
X0066695Y0067339D02*
X0066695Y0067339D01*
X0066695Y0066800D02*
X0071495Y0066800D01*
X0071495Y0064812D01*
X0068683Y0062000D01*
X0066695Y0062000D01*
X0066695Y0066800D01*
X0066695Y0066800D01*
X0066695Y0065740D02*
X0066695Y0065740D01*
X0066695Y0064142D02*
X0066695Y0064142D01*
X0066695Y0062543D02*
X0066695Y0062543D01*
X0064164Y0062543D02*
X0039510Y0062543D01*
X0038766Y0061800D02*
X0041695Y0064729D01*
X0041695Y0068871D01*
X0038766Y0071800D01*
X0034624Y0071800D01*
X0032424Y0069600D01*
X0030401Y0069600D01*
X0028601Y0071400D01*
X0024790Y0071400D01*
X0022095Y0068705D01*
X0022095Y0064895D01*
X0024790Y0062200D01*
X0028601Y0062200D01*
X0030401Y0064000D01*
X0032424Y0064000D01*
X0034624Y0061800D01*
X0038766Y0061800D01*
X0033881Y0062543D02*
X0028944Y0062543D01*
X0024446Y0062543D02*
X0018944Y0062543D01*
X0018601Y0062200D02*
X0021295Y0064895D01*
X0021295Y0068705D01*
X0018601Y0071400D01*
X0014790Y0071400D01*
X0012095Y0068705D01*
X0012095Y0064895D01*
X0014790Y0062200D01*
X0018601Y0062200D01*
X0020543Y0064142D02*
X0022848Y0064142D01*
X0022095Y0065740D02*
X0021295Y0065740D01*
X0021295Y0067339D02*
X0022095Y0067339D01*
X0022327Y0068937D02*
X0021063Y0068937D01*
X0019465Y0070536D02*
X0023926Y0070536D01*
X0026695Y0066800D02*
X0036695Y0066800D01*
X0041695Y0067339D02*
X0061895Y0067339D01*
X0061895Y0065740D02*
X0041695Y0065740D01*
X0041108Y0064142D02*
X0062565Y0064142D01*
X0062045Y0068937D02*
X0041629Y0068937D01*
X0040030Y0070536D02*
X0063643Y0070536D01*
X0071346Y0068937D02*
X0093742Y0068937D01*
X0092143Y0067339D02*
X0071495Y0067339D01*
X0071495Y0065740D02*
X0078423Y0065740D01*
X0076825Y0064142D02*
X0070825Y0064142D01*
X0069227Y0062543D02*
X0076595Y0062543D01*
X0076595Y0060945D02*
X0009195Y0060945D01*
X0009195Y0062543D02*
X0014446Y0062543D01*
X0012848Y0064142D02*
X0009195Y0064142D01*
X0009195Y0065740D02*
X0012095Y0065740D01*
X0012095Y0067339D02*
X0009195Y0067339D01*
X0009195Y0068937D02*
X0012327Y0068937D01*
X0013926Y0070536D02*
X0009195Y0070536D01*
X0009195Y0078529D02*
X0077754Y0078529D01*
X0076595Y0080127D02*
X0009195Y0080127D01*
X0016695Y0086800D02*
X0018895Y0089000D01*
X0018895Y0102900D01*
X0044495Y0102900D01*
X0075595Y0102900D01*
X0076695Y0101800D01*
X0074095Y0099309D02*
X0049036Y0099309D01*
X0047438Y0097711D02*
X0075693Y0097711D01*
X0077292Y0096112D02*
X0021695Y0096112D01*
X0021695Y0094514D02*
X0078890Y0094514D01*
X0080489Y0092915D02*
X0021695Y0092915D01*
X0021695Y0091317D02*
X0024707Y0091317D01*
X0023108Y0089718D02*
X0021695Y0089718D01*
X0021561Y0088120D02*
X0022095Y0088120D01*
X0022095Y0086521D02*
X0021295Y0086521D01*
X0021295Y0084923D02*
X0022095Y0084923D01*
X0023666Y0083324D02*
X0019725Y0083324D01*
X0026695Y0086800D02*
X0036695Y0086800D01*
X0033100Y0083324D02*
X0029725Y0083324D01*
X0030283Y0089718D02*
X0032542Y0089718D01*
X0034141Y0091317D02*
X0028684Y0091317D01*
X0021838Y0097711D02*
X0041553Y0097711D01*
X0039954Y0099309D02*
X0023436Y0099309D01*
X0024224Y0105703D02*
X0039167Y0105703D01*
X0040765Y0107302D02*
X0022625Y0107302D01*
X0021277Y0114950D02*
X0016514Y0114950D01*
X0013145Y0118318D01*
X0013145Y0123082D01*
X0016514Y0126450D01*
X0021277Y0126450D01*
X0024645Y0123082D01*
X0024645Y0118318D01*
X0021277Y0114950D01*
X0021621Y0115294D02*
X0041769Y0115294D01*
X0042114Y0114950D02*
X0046877Y0114950D01*
X0050245Y0118318D01*
X0050245Y0123082D01*
X0046877Y0126450D01*
X0042114Y0126450D01*
X0038745Y0123082D01*
X0038745Y0118318D01*
X0042114Y0114950D01*
X0040171Y0116893D02*
X0023220Y0116893D01*
X0024645Y0118491D02*
X0038745Y0118491D01*
X0038745Y0120090D02*
X0024645Y0120090D01*
X0024645Y0121688D02*
X0038745Y0121688D01*
X0038950Y0123287D02*
X0024440Y0123287D01*
X0022842Y0124885D02*
X0040549Y0124885D01*
X0048442Y0124885D02*
X0051695Y0124885D01*
X0051695Y0124729D02*
X0054624Y0121800D01*
X0058766Y0121800D01*
X0061695Y0124729D01*
X0061695Y0128871D01*
X0058766Y0131800D01*
X0054624Y0131800D01*
X0051695Y0128871D01*
X0051695Y0124729D01*
X0051695Y0126484D02*
X0009195Y0126484D01*
X0009195Y0128082D02*
X0051695Y0128082D01*
X0052505Y0129681D02*
X0016764Y0129681D01*
X0016586Y0129590D02*
X0017460Y0130035D01*
X0018253Y0130612D01*
X0018947Y0131305D01*
X0019523Y0132098D01*
X0019968Y0132972D01*
X0020271Y0133904D01*
X0020395Y0134687D01*
X0014872Y0134687D01*
X0014872Y0129163D01*
X0015654Y0129287D01*
X0016586Y0129590D01*
X0014872Y0129681D02*
X0013519Y0129681D01*
X0013519Y0131279D02*
X0014872Y0131279D01*
X0014872Y0132878D02*
X0013519Y0132878D01*
X0013519Y0134476D02*
X0014872Y0134476D01*
X0014872Y0136075D02*
X0013519Y0136075D01*
X0013519Y0137673D02*
X0014872Y0137673D01*
X0014872Y0139272D02*
X0013519Y0139272D01*
X0013519Y0140870D02*
X0014872Y0140870D01*
X0017107Y0140870D02*
X0020911Y0140870D01*
X0021226Y0140109D02*
X0022682Y0138654D01*
X0024583Y0137866D01*
X0026642Y0137866D01*
X0028543Y0138654D01*
X0029999Y0140109D01*
X0030787Y0142011D01*
X0030787Y0144069D01*
X0029999Y0145971D01*
X0028543Y0147426D01*
X0026642Y0148214D01*
X0024583Y0148214D01*
X0022682Y0147426D01*
X0021226Y0145971D01*
X0020439Y0144069D01*
X0020439Y0142011D01*
X0021226Y0140109D01*
X0022064Y0139272D02*
X0019055Y0139272D01*
X0019994Y0137673D02*
X0069345Y0137673D01*
X0069345Y0136075D02*
X0020389Y0136075D01*
X0020362Y0134476D02*
X0069345Y0134476D01*
X0069345Y0132878D02*
X0019920Y0132878D01*
X0018921Y0131279D02*
X0054104Y0131279D01*
X0059287Y0131279D02*
X0069345Y0131279D01*
X0069345Y0129681D02*
X0060885Y0129681D01*
X0061695Y0128082D02*
X0069345Y0128082D01*
X0069345Y0126484D02*
X0061695Y0126484D01*
X0061695Y0124885D02*
X0069345Y0124885D01*
X0069345Y0123287D02*
X0060253Y0123287D01*
X0053137Y0123287D02*
X0050040Y0123287D01*
X0050245Y0121688D02*
X0069345Y0121688D01*
X0069345Y0120090D02*
X0050245Y0120090D01*
X0050245Y0118491D02*
X0069345Y0118491D01*
X0069345Y0116893D02*
X0048820Y0116893D01*
X0047221Y0115294D02*
X0053119Y0115294D01*
X0051695Y0113696D02*
X0009195Y0113696D01*
X0009195Y0115294D02*
X0016169Y0115294D01*
X0014571Y0116893D02*
X0009195Y0116893D01*
X0009195Y0118491D02*
X0013145Y0118491D01*
X0013145Y0120090D02*
X0009195Y0120090D01*
X0009195Y0121688D02*
X0013145Y0121688D01*
X0013350Y0123287D02*
X0009195Y0123287D01*
X0009195Y0124885D02*
X0014949Y0124885D01*
X0011626Y0129681D02*
X0009195Y0129681D01*
X0009195Y0131279D02*
X0009470Y0131279D01*
X0009336Y0139272D02*
X0009195Y0139272D01*
X0009195Y0140870D02*
X0011284Y0140870D01*
X0009195Y0142469D02*
X0020439Y0142469D01*
X0020439Y0144068D02*
X0009195Y0144068D01*
X0009195Y0145666D02*
X0021100Y0145666D01*
X0022520Y0147265D02*
X0009195Y0147265D01*
X0009195Y0148863D02*
X0056380Y0148863D01*
X0055995Y0147934D02*
X0055995Y0145666D01*
X0030125Y0145666D01*
X0030787Y0144068D02*
X0056657Y0144068D01*
X0056863Y0143571D02*
X0058466Y0141968D01*
X0060561Y0141100D01*
X0062829Y0141100D01*
X0064924Y0141968D01*
X0066527Y0143571D01*
X0067395Y0145666D01*
X0069345Y0145666D01*
X0069345Y0144068D02*
X0066733Y0144068D01*
X0067395Y0145666D02*
X0067395Y0147934D01*
X0066527Y0150029D01*
X0064924Y0151632D01*
X0062829Y0152500D01*
X0060561Y0152500D01*
X0058466Y0151632D01*
X0056863Y0150029D01*
X0055995Y0147934D01*
X0055995Y0147265D02*
X0028705Y0147265D01*
X0030787Y0142469D02*
X0057965Y0142469D01*
X0056863Y0143571D02*
X0055995Y0145666D01*
X0057296Y0150462D02*
X0009195Y0150462D01*
X0009195Y0152060D02*
X0059499Y0152060D01*
X0063891Y0152060D02*
X0069345Y0152060D01*
X0069345Y0150462D02*
X0066095Y0150462D01*
X0067010Y0148863D02*
X0069345Y0148863D01*
X0069345Y0147265D02*
X0067395Y0147265D01*
X0069345Y0142469D02*
X0065425Y0142469D01*
X0069345Y0140870D02*
X0030314Y0140870D01*
X0029162Y0139272D02*
X0069345Y0139272D01*
X0076545Y0150462D02*
X0077296Y0150462D01*
X0076545Y0152060D02*
X0079499Y0152060D01*
X0069345Y0153659D02*
X0009195Y0153659D01*
X0009195Y0155257D02*
X0069345Y0155257D01*
X0069345Y0156856D02*
X0029226Y0156856D01*
X0028543Y0156174D02*
X0029999Y0157629D01*
X0030787Y0159531D01*
X0030787Y0161589D01*
X0029999Y0163491D01*
X0028543Y0164946D01*
X0026642Y0165734D01*
X0024583Y0165734D01*
X0022682Y0164946D01*
X0021226Y0163491D01*
X0020439Y0161589D01*
X0020439Y0159531D01*
X0021226Y0157629D01*
X0022682Y0156174D01*
X0024583Y0155386D01*
X0026642Y0155386D01*
X0028543Y0156174D01*
X0030341Y0158454D02*
X0069345Y0158454D01*
X0069345Y0160053D02*
X0030787Y0160053D01*
X0030761Y0161651D02*
X0069505Y0161651D01*
X0070554Y0163250D02*
X0060216Y0163250D01*
X0061695Y0164848D02*
X0072152Y0164848D01*
X0073751Y0166447D02*
X0061695Y0166447D01*
X0061695Y0168045D02*
X0075349Y0168045D01*
X0076948Y0169644D02*
X0060923Y0169644D01*
X0051695Y0166447D02*
X0020163Y0166447D01*
X0020271Y0166778D02*
X0019968Y0165846D01*
X0019523Y0164972D01*
X0018947Y0164179D01*
X0018253Y0163486D01*
X0017460Y0162909D01*
X0016586Y0162464D01*
X0015654Y0162161D01*
X0014872Y0162037D01*
X0014872Y0167561D01*
X0020395Y0167561D01*
X0020271Y0166778D01*
X0019433Y0164848D02*
X0022584Y0164848D01*
X0021126Y0163250D02*
X0017928Y0163250D01*
X0020464Y0161651D02*
X0009195Y0161651D01*
X0009195Y0160053D02*
X0020439Y0160053D01*
X0020884Y0158454D02*
X0009195Y0158454D01*
X0009195Y0156856D02*
X0022000Y0156856D01*
X0014872Y0163250D02*
X0013519Y0163250D01*
X0013519Y0164848D02*
X0014872Y0164848D01*
X0014872Y0166447D02*
X0013519Y0166447D01*
X0010462Y0163250D02*
X0009195Y0163250D01*
X0018401Y0172841D02*
X0095145Y0172841D01*
X0083788Y0177636D02*
X0059603Y0177636D01*
X0061201Y0179235D02*
X0082189Y0179235D01*
X0081695Y0180833D02*
X0061695Y0180833D01*
X0061695Y0182432D02*
X0081695Y0182432D01*
X0081855Y0184030D02*
X0061536Y0184030D01*
X0059938Y0185629D02*
X0083453Y0185629D01*
X0108294Y0174439D02*
X0125096Y0174439D01*
X0125145Y0172841D02*
X0108245Y0172841D01*
X0108245Y0171242D02*
X0125145Y0171242D01*
X0125145Y0169644D02*
X0108245Y0169644D01*
X0108245Y0168045D02*
X0125145Y0168045D01*
X0125145Y0166447D02*
X0108245Y0166447D01*
X0108245Y0164848D02*
X0125145Y0164848D01*
X0125145Y0163250D02*
X0108245Y0163250D01*
X0108245Y0161651D02*
X0125145Y0161651D01*
X0125145Y0160053D02*
X0108245Y0160053D01*
X0108245Y0158454D02*
X0125145Y0158454D01*
X0125145Y0156856D02*
X0108245Y0156856D01*
X0108245Y0155257D02*
X0125145Y0155257D01*
X0125145Y0153659D02*
X0108245Y0153659D01*
X0108245Y0152060D02*
X0125145Y0152060D01*
X0125145Y0150462D02*
X0124539Y0150462D01*
X0109238Y0142469D02*
X0108245Y0142469D01*
X0108245Y0137673D02*
X0108463Y0137673D01*
X0108569Y0150462D02*
X0108245Y0150462D01*
X0131695Y0131800D02*
X0131695Y0176800D01*
X0128774Y0179235D02*
X0128220Y0179235D01*
X0123498Y0176038D02*
X0109893Y0176038D01*
X0111491Y0177636D02*
X0121899Y0177636D01*
X0120301Y0179235D02*
X0114486Y0179235D01*
X0151695Y0181800D02*
X0151695Y0131800D01*
X0159495Y0124885D02*
X0160091Y0124885D01*
X0159495Y0123287D02*
X0163895Y0123287D01*
X0163895Y0124885D02*
X0163299Y0124885D01*
X0163895Y0121688D02*
X0159495Y0121688D01*
X0159495Y0120090D02*
X0163895Y0120090D01*
X0163895Y0118491D02*
X0159495Y0118491D01*
X0160562Y0116893D02*
X0163895Y0116893D01*
X0164288Y0115294D02*
X0162161Y0115294D01*
X0163759Y0113696D02*
X0165840Y0113696D01*
X0164495Y0112097D02*
X0167438Y0112097D01*
X0168895Y0110499D02*
X0164495Y0110499D01*
X0164495Y0108900D02*
X0168895Y0108900D01*
X0168092Y0107302D02*
X0165299Y0107302D01*
X0166134Y0105703D02*
X0167256Y0105703D01*
X0167095Y0104105D02*
X0166295Y0104105D01*
X0166295Y0102506D02*
X0167095Y0102506D01*
X0167095Y0100908D02*
X0166295Y0100908D01*
X0166295Y0099309D02*
X0167095Y0099309D01*
X0167333Y0097711D02*
X0166057Y0097711D01*
X0165113Y0096112D02*
X0168278Y0096112D01*
X0179803Y0086521D02*
X0182722Y0086521D01*
X0182595Y0086215D02*
X0182595Y0084385D01*
X0183296Y0082694D01*
X0184590Y0081400D01*
X0186280Y0080700D01*
X0188110Y0080700D01*
X0189801Y0081400D01*
X0191095Y0082694D01*
X0191795Y0084385D01*
X0191795Y0086215D01*
X0191095Y0087906D01*
X0189801Y0089200D01*
X0188110Y0089900D01*
X0186280Y0089900D01*
X0184590Y0089200D01*
X0183296Y0087906D01*
X0182595Y0086215D01*
X0182595Y0084923D02*
X0128664Y0084923D01*
X0130262Y0083324D02*
X0183035Y0083324D01*
X0184264Y0081726D02*
X0131861Y0081726D01*
X0133459Y0080127D02*
X0233517Y0080127D01*
X0234790Y0081400D02*
X0232095Y0078705D01*
X0232095Y0076800D01*
X0232095Y0074895D01*
X0234790Y0072200D01*
X0236695Y0072200D01*
X0236695Y0076800D01*
X0236695Y0076800D01*
X0232095Y0076800D01*
X0236695Y0076800D01*
X0236695Y0081400D01*
X0234790Y0081400D01*
X0236695Y0081400D02*
X0236695Y0076800D01*
X0236695Y0076800D01*
X0236695Y0076800D01*
X0236695Y0072200D01*
X0238601Y0072200D01*
X0241295Y0074895D01*
X0241295Y0076800D01*
X0241295Y0078705D01*
X0238601Y0081400D01*
X0236695Y0081400D01*
X0236695Y0080127D02*
X0236695Y0080127D01*
X0236695Y0078529D02*
X0236695Y0078529D01*
X0236695Y0076930D02*
X0236695Y0076930D01*
X0236695Y0076800D02*
X0241295Y0076800D01*
X0236695Y0076800D01*
X0236695Y0076800D01*
X0236695Y0075332D02*
X0236695Y0075332D01*
X0236695Y0073733D02*
X0236695Y0073733D01*
X0233257Y0073733D02*
X0215050Y0073733D01*
X0213683Y0075100D02*
X0209707Y0075100D01*
X0206895Y0072288D01*
X0206895Y0068312D01*
X0209707Y0065500D01*
X0213683Y0065500D01*
X0216495Y0068312D01*
X0216495Y0072288D01*
X0213683Y0075100D01*
X0216495Y0072134D02*
X0246395Y0072134D01*
X0246395Y0070536D02*
X0216495Y0070536D01*
X0216495Y0068937D02*
X0246395Y0068937D01*
X0246395Y0067339D02*
X0215522Y0067339D01*
X0213924Y0065740D02*
X0246395Y0065740D01*
X0246395Y0064142D02*
X0135295Y0064142D01*
X0135295Y0065740D02*
X0179749Y0065740D01*
X0179790Y0065700D02*
X0181695Y0065700D01*
X0181695Y0070300D01*
X0181695Y0070300D01*
X0177095Y0070300D01*
X0177095Y0068395D01*
X0179790Y0065700D01*
X0181695Y0065700D02*
X0183601Y0065700D01*
X0186295Y0068395D01*
X0186295Y0070300D01*
X0186295Y0072205D01*
X0183601Y0074900D01*
X0181695Y0074900D01*
X0179790Y0074900D01*
X0177095Y0072205D01*
X0177095Y0070300D01*
X0181695Y0070300D01*
X0181695Y0074900D01*
X0181695Y0070300D01*
X0181695Y0070300D01*
X0181695Y0070300D01*
X0181695Y0065700D01*
X0181695Y0065740D02*
X0181695Y0065740D01*
X0181695Y0067339D02*
X0181695Y0067339D01*
X0181695Y0068937D02*
X0181695Y0068937D01*
X0181695Y0070300D02*
X0181695Y0070300D01*
X0186295Y0070300D01*
X0181695Y0070300D01*
X0181695Y0070536D02*
X0181695Y0070536D01*
X0181695Y0072134D02*
X0181695Y0072134D01*
X0181695Y0073733D02*
X0181695Y0073733D01*
X0178623Y0073733D02*
X0135295Y0073733D01*
X0135295Y0072134D02*
X0177095Y0072134D01*
X0177095Y0070536D02*
X0135295Y0070536D01*
X0135295Y0068937D02*
X0177095Y0068937D01*
X0178151Y0067339D02*
X0135295Y0067339D01*
X0135295Y0062543D02*
X0246395Y0062543D01*
X0246395Y0060945D02*
X0135295Y0060945D01*
X0135295Y0059346D02*
X0246395Y0059346D01*
X0246395Y0057748D02*
X0135295Y0057748D01*
X0135295Y0056149D02*
X0246395Y0056149D01*
X0246395Y0054551D02*
X0134537Y0054551D01*
X0132939Y0052952D02*
X0246395Y0052952D01*
X0246395Y0051354D02*
X0131340Y0051354D01*
X0129742Y0049755D02*
X0245691Y0049755D01*
X0246695Y0046800D02*
X0249195Y0049300D01*
X0249195Y0089300D01*
X0251695Y0091800D01*
X0251695Y0114300D01*
X0241695Y0124300D01*
X0241695Y0131800D01*
X0246295Y0131279D02*
X0274195Y0131279D01*
X0274195Y0129681D02*
X0246295Y0129681D01*
X0246211Y0128082D02*
X0274195Y0128082D01*
X0274195Y0126484D02*
X0245485Y0126484D01*
X0245070Y0124885D02*
X0274195Y0124885D01*
X0274195Y0123287D02*
X0246668Y0123287D01*
X0248267Y0121688D02*
X0274195Y0121688D01*
X0274195Y0120090D02*
X0249865Y0120090D01*
X0251464Y0118491D02*
X0274195Y0118491D01*
X0274195Y0116893D02*
X0270295Y0116893D01*
X0272262Y0115294D02*
X0274195Y0115294D01*
X0274195Y0113696D02*
X0273080Y0113696D01*
X0273395Y0112097D02*
X0274195Y0112097D01*
X0274195Y0110499D02*
X0273326Y0110499D01*
X0272664Y0108900D02*
X0274195Y0108900D01*
X0274195Y0107302D02*
X0271258Y0107302D01*
X0270853Y0105703D02*
X0274195Y0105703D01*
X0274195Y0104105D02*
X0271910Y0104105D01*
X0272395Y0102506D02*
X0274195Y0102506D01*
X0274195Y0100908D02*
X0272395Y0100908D01*
X0271833Y0099309D02*
X0274195Y0099309D01*
X0274195Y0097711D02*
X0270667Y0097711D01*
X0271444Y0096112D02*
X0274195Y0096112D01*
X0274195Y0094514D02*
X0272741Y0094514D01*
X0273395Y0092915D02*
X0274195Y0092915D01*
X0274195Y0091317D02*
X0273395Y0091317D01*
X0273003Y0089718D02*
X0274195Y0089718D01*
X0274195Y0088120D02*
X0272076Y0088120D01*
X0274195Y0086521D02*
X0269846Y0086521D01*
X0271225Y0084923D02*
X0274195Y0084923D01*
X0274195Y0083324D02*
X0271983Y0083324D01*
X0274195Y0081726D02*
X0266895Y0081726D01*
X0266495Y0081726D02*
X0260581Y0081726D01*
X0261195Y0081600D02*
X0261195Y0081367D01*
X0261331Y0080512D01*
X0261598Y0079689D01*
X0261991Y0078917D01*
X0262500Y0078217D01*
X0263112Y0077605D01*
X0263813Y0077096D01*
X0264584Y0076703D01*
X0264614Y0076693D01*
X0264466Y0076632D01*
X0262863Y0075029D01*
X0261995Y0072934D01*
X0261995Y0070666D01*
X0262863Y0068571D01*
X0264411Y0067023D01*
X0263466Y0066632D01*
X0261863Y0065029D01*
X0261685Y0064600D01*
X0261138Y0064600D01*
X0260109Y0064174D01*
X0259495Y0063560D01*
X0259495Y0080640D01*
X0261215Y0082360D01*
X0261195Y0082233D01*
X0261195Y0082000D01*
X0266495Y0082000D01*
X0266495Y0081600D01*
X0261195Y0081600D01*
X0261456Y0080127D02*
X0259495Y0080127D01*
X0259495Y0078529D02*
X0262274Y0078529D01*
X0264138Y0076930D02*
X0259495Y0076930D01*
X0259495Y0075332D02*
X0263166Y0075332D01*
X0262326Y0073733D02*
X0259495Y0073733D01*
X0259495Y0072134D02*
X0261995Y0072134D01*
X0262049Y0070536D02*
X0259495Y0070536D01*
X0259495Y0068937D02*
X0262711Y0068937D01*
X0264095Y0067339D02*
X0259495Y0067339D01*
X0259495Y0065740D02*
X0262575Y0065740D01*
X0260077Y0064142D02*
X0259495Y0064142D01*
X0261695Y0061800D02*
X0266695Y0061800D01*
X0261695Y0061800D02*
X0260445Y0060550D01*
X0260445Y0045550D01*
X0246695Y0031800D01*
X0224195Y0031800D01*
X0217945Y0038050D01*
X0135445Y0038050D01*
X0134195Y0036800D01*
X0130687Y0035369D02*
X0119632Y0035369D01*
X0118601Y0036400D02*
X0116695Y0036400D01*
X0114790Y0036400D01*
X0112095Y0033705D01*
X0112095Y0031800D01*
X0112095Y0029895D01*
X0114790Y0027200D01*
X0116695Y0027200D01*
X0116695Y0031800D01*
X0116695Y0031800D01*
X0112095Y0031800D01*
X0116695Y0031800D01*
X0116695Y0036400D01*
X0116695Y0031800D01*
X0116695Y0031800D01*
X0116695Y0031800D01*
X0116695Y0027200D01*
X0118601Y0027200D01*
X0121295Y0029895D01*
X0121295Y0031800D01*
X0121295Y0033705D01*
X0118601Y0036400D01*
X0116695Y0035369D02*
X0116695Y0035369D01*
X0116695Y0033770D02*
X0116695Y0033770D01*
X0116695Y0032172D02*
X0116695Y0032172D01*
X0116695Y0031800D02*
X0121295Y0031800D01*
X0116695Y0031800D01*
X0116695Y0031800D01*
X0116695Y0030573D02*
X0116695Y0030573D01*
X0116695Y0028975D02*
X0116695Y0028975D01*
X0116695Y0027376D02*
X0116695Y0027376D01*
X0114614Y0027376D02*
X0108268Y0027376D01*
X0108295Y0027201D02*
X0108170Y0027994D01*
X0107922Y0028758D01*
X0107557Y0029473D01*
X0107085Y0030122D01*
X0106518Y0030690D01*
X0105868Y0031162D01*
X0105153Y0031526D01*
X0104390Y0031774D01*
X0103597Y0031900D01*
X0103195Y0031900D01*
X0102794Y0031900D01*
X0102001Y0031774D01*
X0101238Y0031526D01*
X0100522Y0031162D01*
X0099873Y0030690D01*
X0099305Y0030122D01*
X0098833Y0029473D01*
X0098469Y0028758D01*
X0098221Y0027994D01*
X0098095Y0027201D01*
X0098095Y0026800D01*
X0098095Y0026399D01*
X0098221Y0025606D01*
X0098469Y0024842D01*
X0098833Y0024127D01*
X0099305Y0023478D01*
X0099873Y0022910D01*
X0100522Y0022438D01*
X0101238Y0022074D01*
X0102001Y0021826D01*
X0102794Y0021700D01*
X0103195Y0021700D01*
X0103195Y0026800D01*
X0103195Y0026800D01*
X0098095Y0026800D01*
X0103195Y0026800D01*
X0103195Y0031900D01*
X0103195Y0026800D01*
X0103195Y0026800D01*
X0103195Y0026800D01*
X0103195Y0021700D01*
X0103597Y0021700D01*
X0104390Y0021826D01*
X0105153Y0022074D01*
X0105868Y0022438D01*
X0106518Y0022910D01*
X0107085Y0023478D01*
X0107557Y0024127D01*
X0107922Y0024842D01*
X0108170Y0025606D01*
X0108295Y0026399D01*
X0108295Y0026800D01*
X0103195Y0026800D01*
X0108295Y0026800D01*
X0108295Y0027201D01*
X0108197Y0025778D02*
X0123582Y0025778D01*
X0121983Y0024179D02*
X0107584Y0024179D01*
X0106064Y0022581D02*
X0120385Y0022581D01*
X0118786Y0020982D02*
X0100604Y0020982D01*
X0100326Y0022581D02*
X0099006Y0022581D01*
X0098807Y0024179D02*
X0097795Y0024179D01*
X0097795Y0025778D02*
X0098194Y0025778D01*
X0098123Y0027376D02*
X0097795Y0027376D01*
X0097795Y0028975D02*
X0098579Y0028975D01*
X0097795Y0030573D02*
X0099756Y0030573D01*
X0097795Y0032172D02*
X0112095Y0032172D01*
X0112095Y0030573D02*
X0106635Y0030573D01*
X0107811Y0028975D02*
X0113015Y0028975D01*
X0112160Y0033770D02*
X0097795Y0033770D01*
X0097649Y0035369D02*
X0113759Y0035369D01*
X0116695Y0041800D02*
X0229695Y0041800D01*
X0235195Y0046800D01*
X0246695Y0046800D01*
X0246695Y0041800D02*
X0236695Y0041800D01*
X0230767Y0046558D02*
X0126545Y0046558D01*
X0124946Y0044960D02*
X0229009Y0044960D01*
X0232525Y0048157D02*
X0128143Y0048157D01*
X0130826Y0038566D02*
X0120249Y0038566D01*
X0121230Y0033770D02*
X0131867Y0033770D01*
X0130407Y0036967D02*
X0105378Y0036967D01*
X0101013Y0036967D02*
X0096619Y0036967D01*
X0095021Y0038566D02*
X0098934Y0038566D01*
X0098136Y0040164D02*
X0093422Y0040164D01*
X0086362Y0046558D02*
X0075557Y0046558D01*
X0071930Y0048157D02*
X0087961Y0048157D01*
X0088095Y0049755D02*
X0070331Y0049755D01*
X0068733Y0051354D02*
X0088095Y0051354D01*
X0088095Y0052952D02*
X0061604Y0052952D01*
X0059413Y0054551D02*
X0088095Y0054551D01*
X0088095Y0056149D02*
X0009195Y0056149D01*
X0009195Y0054551D02*
X0054977Y0054551D01*
X0052787Y0052952D02*
X0009195Y0052952D01*
X0009195Y0051354D02*
X0051876Y0051354D01*
X0051495Y0049755D02*
X0009195Y0049755D01*
X0009195Y0048157D02*
X0051499Y0048157D01*
X0052161Y0046558D02*
X0032398Y0046558D01*
X0033725Y0044960D02*
X0053474Y0044960D01*
X0060916Y0044960D02*
X0064944Y0044960D01*
X0066543Y0043361D02*
X0034405Y0043361D01*
X0024045Y0043361D02*
X0022889Y0043361D01*
X0022889Y0044960D02*
X0024045Y0044960D01*
X0024045Y0046558D02*
X0022889Y0046558D01*
X0022889Y0040164D02*
X0024045Y0040164D01*
X0024045Y0038566D02*
X0022889Y0038566D01*
X0022889Y0036967D02*
X0024045Y0036967D01*
X0024045Y0035369D02*
X0022889Y0035369D01*
X0032187Y0027376D02*
X0050180Y0027376D01*
X0048582Y0025778D02*
X0033786Y0025778D01*
X0033434Y0017785D02*
X0055944Y0017785D01*
X0054529Y0016187D02*
X0031689Y0016187D01*
X0053396Y0012990D02*
X0009195Y0012990D01*
X0009195Y0014588D02*
X0053867Y0014588D01*
X0053396Y0011391D02*
X0009195Y0011391D01*
X0009195Y0009793D02*
X0053544Y0009793D01*
X0054206Y0008194D02*
X0009195Y0008194D01*
X0009195Y0006596D02*
X0055163Y0006596D01*
X0056761Y0004997D02*
X0009413Y0004997D01*
X0055567Y0022581D02*
X0069919Y0022581D01*
X0067447Y0017785D02*
X0093619Y0017785D01*
X0095217Y0016187D02*
X0068861Y0016187D01*
X0069523Y0014588D02*
X0096816Y0014588D01*
X0092020Y0019384D02*
X0065074Y0019384D01*
X0069994Y0012990D02*
X0131018Y0012990D01*
X0130995Y0012934D02*
X0130995Y0010666D01*
X0131863Y0008571D01*
X0133466Y0006968D01*
X0135561Y0006100D01*
X0137829Y0006100D01*
X0139924Y0006968D01*
X0141527Y0008571D01*
X0141695Y0008976D01*
X0141863Y0008571D01*
X0143466Y0006968D01*
X0145561Y0006100D01*
X0147829Y0006100D01*
X0149924Y0006968D01*
X0151527Y0008571D01*
X0151695Y0008976D01*
X0151863Y0008571D01*
X0153466Y0006968D01*
X0155561Y0006100D01*
X0157829Y0006100D01*
X0159924Y0006968D01*
X0161527Y0008571D01*
X0161815Y0009264D01*
X0161991Y0008917D01*
X0162500Y0008217D01*
X0163112Y0007605D01*
X0163813Y0007096D01*
X0164584Y0006703D01*
X0165407Y0006435D01*
X0166262Y0006300D01*
X0166495Y0006300D01*
X0166495Y0011600D01*
X0166895Y0011600D01*
X0166895Y0012000D01*
X0166495Y0012000D01*
X0166495Y0017300D01*
X0166262Y0017300D01*
X0165407Y0017165D01*
X0164584Y0016897D01*
X0163813Y0016504D01*
X0163112Y0015995D01*
X0162500Y0015383D01*
X0161991Y0014683D01*
X0161815Y0014336D01*
X0161527Y0015029D01*
X0159924Y0016632D01*
X0157829Y0017500D01*
X0155561Y0017500D01*
X0153466Y0016632D01*
X0151863Y0015029D01*
X0151695Y0014624D01*
X0151527Y0015029D01*
X0149924Y0016632D01*
X0147829Y0017500D01*
X0145561Y0017500D01*
X0143466Y0016632D01*
X0141863Y0015029D01*
X0141695Y0014624D01*
X0141527Y0015029D01*
X0139924Y0016632D01*
X0137829Y0017500D01*
X0135561Y0017500D01*
X0133466Y0016632D01*
X0131863Y0015029D01*
X0130995Y0012934D01*
X0130995Y0011391D02*
X0069994Y0011391D01*
X0069847Y0009793D02*
X0131357Y0009793D01*
X0132240Y0008194D02*
X0069185Y0008194D01*
X0068228Y0006596D02*
X0134365Y0006596D01*
X0139025Y0006596D02*
X0144365Y0006596D01*
X0142240Y0008194D02*
X0141150Y0008194D01*
X0149025Y0006596D02*
X0154365Y0006596D01*
X0152240Y0008194D02*
X0151150Y0008194D01*
X0159025Y0006596D02*
X0164915Y0006596D01*
X0166495Y0006596D02*
X0166895Y0006596D01*
X0168476Y0006596D02*
X0174915Y0006596D01*
X0176495Y0006596D02*
X0176895Y0006596D01*
X0178476Y0006596D02*
X0184365Y0006596D01*
X0182240Y0008194D02*
X0180867Y0008194D01*
X0176895Y0008194D02*
X0176495Y0008194D01*
X0176495Y0009793D02*
X0176895Y0009793D01*
X0176895Y0011391D02*
X0176495Y0011391D01*
X0176495Y0012000D02*
X0166895Y0012000D01*
X0166895Y0017300D01*
X0167128Y0017300D01*
X0167983Y0017165D01*
X0168807Y0016897D01*
X0169578Y0016504D01*
X0170278Y0015995D01*
X0170890Y0015383D01*
X0171399Y0014683D01*
X0171695Y0014102D01*
X0171991Y0014683D01*
X0172500Y0015383D01*
X0173112Y0015995D01*
X0173813Y0016504D01*
X0174584Y0016897D01*
X0175407Y0017165D01*
X0176262Y0017300D01*
X0176495Y0017300D01*
X0176495Y0012000D01*
X0176495Y0012990D02*
X0176895Y0012990D01*
X0176895Y0014588D02*
X0176495Y0014588D01*
X0176495Y0016187D02*
X0176895Y0016187D01*
X0180015Y0016187D02*
X0183021Y0016187D01*
X0183095Y0017785D02*
X0125772Y0017785D01*
X0127370Y0019384D02*
X0181520Y0019384D01*
X0186907Y0024179D02*
X0263407Y0024179D01*
X0260981Y0025778D02*
X0185309Y0025778D01*
X0183676Y0027376D02*
X0259545Y0027376D01*
X0258883Y0028975D02*
X0120375Y0028975D01*
X0121295Y0030573D02*
X0221462Y0030573D01*
X0219864Y0032172D02*
X0121295Y0032172D01*
X0118777Y0027376D02*
X0125215Y0027376D01*
X0124173Y0016187D02*
X0133021Y0016187D01*
X0131681Y0014588D02*
X0122575Y0014588D01*
X0140370Y0016187D02*
X0143021Y0016187D01*
X0150370Y0016187D02*
X0153021Y0016187D01*
X0160370Y0016187D02*
X0163376Y0016187D01*
X0161943Y0014588D02*
X0161710Y0014588D01*
X0166495Y0014588D02*
X0166895Y0014588D01*
X0166895Y0012990D02*
X0166495Y0012990D01*
X0166495Y0011391D02*
X0166895Y0011391D01*
X0166895Y0009793D02*
X0166495Y0009793D01*
X0166495Y0008194D02*
X0166895Y0008194D01*
X0162523Y0008194D02*
X0161150Y0008194D01*
X0166495Y0016187D02*
X0166895Y0016187D01*
X0170015Y0016187D02*
X0173376Y0016187D01*
X0171943Y0014588D02*
X0171447Y0014588D01*
X0170867Y0008194D02*
X0172523Y0008194D01*
X0181447Y0014588D02*
X0181681Y0014588D01*
X0190370Y0016187D02*
X0203021Y0016187D01*
X0203466Y0016632D02*
X0201863Y0015029D01*
X0200995Y0012934D01*
X0200995Y0010666D01*
X0201863Y0008571D01*
X0203466Y0006968D01*
X0205561Y0006100D01*
X0207829Y0006100D01*
X0209924Y0006968D01*
X0211527Y0008571D01*
X0211695Y0008976D01*
X0211863Y0008571D01*
X0213466Y0006968D01*
X0215561Y0006100D01*
X0217829Y0006100D01*
X0219924Y0006968D01*
X0221527Y0008571D01*
X0221695Y0008976D01*
X0221863Y0008571D01*
X0223466Y0006968D01*
X0225561Y0006100D01*
X0227829Y0006100D01*
X0229924Y0006968D01*
X0231527Y0008571D01*
X0231695Y0008976D01*
X0231863Y0008571D01*
X0233466Y0006968D01*
X0235561Y0006100D01*
X0237829Y0006100D01*
X0239924Y0006968D01*
X0241527Y0008571D01*
X0241695Y0008976D01*
X0241863Y0008571D01*
X0243466Y0006968D01*
X0245561Y0006100D01*
X0247829Y0006100D01*
X0249924Y0006968D01*
X0251527Y0008571D01*
X0251695Y0008976D01*
X0251863Y0008571D01*
X0253466Y0006968D01*
X0255561Y0006100D01*
X0257829Y0006100D01*
X0259924Y0006968D01*
X0261527Y0008571D01*
X0262395Y0010666D01*
X0262395Y0012934D01*
X0261527Y0015029D01*
X0259924Y0016632D01*
X0257829Y0017500D01*
X0255561Y0017500D01*
X0253466Y0016632D01*
X0251863Y0015029D01*
X0251695Y0014624D01*
X0251527Y0015029D01*
X0249924Y0016632D01*
X0247829Y0017500D01*
X0245561Y0017500D01*
X0243466Y0016632D01*
X0241863Y0015029D01*
X0241695Y0014624D01*
X0241527Y0015029D01*
X0239924Y0016632D01*
X0237829Y0017500D01*
X0235561Y0017500D01*
X0233466Y0016632D01*
X0231863Y0015029D01*
X0231695Y0014624D01*
X0231527Y0015029D01*
X0229924Y0016632D01*
X0227829Y0017500D01*
X0225561Y0017500D01*
X0223466Y0016632D01*
X0221863Y0015029D01*
X0221695Y0014624D01*
X0221527Y0015029D01*
X0219924Y0016632D01*
X0217829Y0017500D01*
X0215561Y0017500D01*
X0213466Y0016632D01*
X0211863Y0015029D01*
X0211695Y0014624D01*
X0211527Y0015029D01*
X0209924Y0016632D01*
X0207829Y0017500D01*
X0205561Y0017500D01*
X0203466Y0016632D01*
X0201681Y0014588D02*
X0191710Y0014588D01*
X0192372Y0012990D02*
X0201018Y0012990D01*
X0200995Y0011391D02*
X0192395Y0011391D01*
X0192033Y0009793D02*
X0201357Y0009793D01*
X0202240Y0008194D02*
X0191150Y0008194D01*
X0189025Y0006596D02*
X0204365Y0006596D01*
X0209025Y0006596D02*
X0214365Y0006596D01*
X0212240Y0008194D02*
X0211150Y0008194D01*
X0219025Y0006596D02*
X0224365Y0006596D01*
X0222240Y0008194D02*
X0221150Y0008194D01*
X0229025Y0006596D02*
X0234365Y0006596D01*
X0232240Y0008194D02*
X0231150Y0008194D01*
X0239025Y0006596D02*
X0244365Y0006596D01*
X0242240Y0008194D02*
X0241150Y0008194D01*
X0249025Y0006596D02*
X0254365Y0006596D01*
X0252240Y0008194D02*
X0251150Y0008194D01*
X0259025Y0006596D02*
X0264195Y0006596D01*
X0264195Y0008194D02*
X0261150Y0008194D01*
X0262033Y0009793D02*
X0264195Y0009793D01*
X0264195Y0011391D02*
X0262395Y0011391D01*
X0262372Y0012990D02*
X0264482Y0012990D01*
X0265279Y0013919D02*
X0265279Y0013919D01*
X0265948Y0014588D02*
X0261710Y0014588D01*
X0260370Y0016187D02*
X0267546Y0016187D01*
X0269145Y0017785D02*
X0190295Y0017785D01*
X0190295Y0019384D02*
X0270743Y0019384D01*
X0272342Y0020982D02*
X0189895Y0020982D01*
X0188506Y0022581D02*
X0273940Y0022581D01*
X0274195Y0024179D02*
X0269984Y0024179D01*
X0272410Y0025778D02*
X0274195Y0025778D01*
X0274195Y0027376D02*
X0273846Y0027376D01*
X0274195Y0036967D02*
X0273265Y0036967D01*
X0274195Y0038566D02*
X0271666Y0038566D01*
X0274195Y0040164D02*
X0259019Y0040164D01*
X0257421Y0038566D02*
X0261724Y0038566D01*
X0260126Y0036967D02*
X0255822Y0036967D01*
X0254224Y0035369D02*
X0259190Y0035369D01*
X0258528Y0033770D02*
X0252625Y0033770D01*
X0251027Y0032172D02*
X0258396Y0032172D01*
X0258396Y0030573D02*
X0249428Y0030573D01*
X0246695Y0036800D02*
X0226695Y0036800D01*
X0218265Y0033770D02*
X0136524Y0033770D01*
X0114665Y0046558D02*
X0105557Y0046558D01*
X0088095Y0057748D02*
X0084856Y0057748D01*
X0086454Y0059346D02*
X0086975Y0059346D01*
X0081695Y0059346D02*
X0081695Y0059346D01*
X0081695Y0057748D02*
X0081695Y0057748D01*
X0078535Y0057748D02*
X0009195Y0057748D01*
X0009195Y0059346D02*
X0076936Y0059346D01*
X0081695Y0060945D02*
X0081695Y0060945D01*
X0081695Y0062543D02*
X0081695Y0062543D01*
X0081695Y0064142D02*
X0081695Y0064142D01*
X0081695Y0065740D02*
X0081695Y0065740D01*
X0084967Y0065740D02*
X0088140Y0065740D01*
X0086929Y0064142D02*
X0086566Y0064142D01*
X0097530Y0062543D02*
X0100391Y0062543D01*
X0089603Y0076930D02*
X0084038Y0076930D01*
X0085636Y0078529D02*
X0087471Y0078529D01*
X0083686Y0089718D02*
X0070565Y0089718D01*
X0068967Y0091317D02*
X0082087Y0091317D01*
X0051695Y0110499D02*
X0009195Y0110499D01*
X0009195Y0112097D02*
X0051695Y0112097D01*
X0033360Y0070536D02*
X0029465Y0070536D01*
X0014535Y0046558D02*
X0009195Y0046558D01*
X0009195Y0044960D02*
X0013209Y0044960D01*
X0012529Y0043361D02*
X0009195Y0043361D01*
X0066629Y0004997D02*
X0263977Y0004997D01*
X0253021Y0016187D02*
X0250370Y0016187D01*
X0243021Y0016187D02*
X0240370Y0016187D01*
X0233021Y0016187D02*
X0230370Y0016187D01*
X0223021Y0016187D02*
X0220370Y0016187D01*
X0213021Y0016187D02*
X0210370Y0016187D01*
X0246695Y0036800D02*
X0256695Y0046800D01*
X0256695Y0081800D01*
X0266695Y0091800D01*
X0267695Y0091800D01*
X0260245Y0099309D02*
X0254495Y0099309D01*
X0254495Y0097711D02*
X0258646Y0097711D01*
X0257048Y0096112D02*
X0254495Y0096112D01*
X0254495Y0094514D02*
X0255449Y0094514D01*
X0248851Y0092915D02*
X0248020Y0092915D01*
X0247609Y0091674D02*
X0247609Y0091674D01*
X0247252Y0091317D02*
X0246422Y0091317D01*
X0246395Y0089718D02*
X0240565Y0089718D01*
X0241495Y0088120D02*
X0246395Y0088120D01*
X0246395Y0086521D02*
X0241495Y0086521D01*
X0241495Y0084923D02*
X0246395Y0084923D01*
X0246395Y0083324D02*
X0240008Y0083324D01*
X0239874Y0080127D02*
X0246395Y0080127D01*
X0246395Y0078529D02*
X0241295Y0078529D01*
X0241295Y0076930D02*
X0246395Y0076930D01*
X0246395Y0075332D02*
X0241295Y0075332D01*
X0240134Y0073733D02*
X0246395Y0073733D01*
X0246395Y0081726D02*
X0209126Y0081726D01*
X0208801Y0081400D02*
X0210095Y0082694D01*
X0210795Y0084385D01*
X0210795Y0086215D01*
X0210095Y0087906D01*
X0208801Y0089200D01*
X0207110Y0089900D01*
X0205280Y0089900D01*
X0203590Y0089200D01*
X0202296Y0087906D01*
X0201595Y0086215D01*
X0201595Y0084385D01*
X0202296Y0082694D01*
X0203590Y0081400D01*
X0205280Y0080700D01*
X0207110Y0080700D01*
X0208801Y0081400D01*
X0210356Y0083324D02*
X0233383Y0083324D01*
X0231895Y0084923D02*
X0210795Y0084923D01*
X0210668Y0086521D02*
X0231895Y0086521D01*
X0231895Y0088120D02*
X0209881Y0088120D01*
X0207549Y0089718D02*
X0232825Y0089718D01*
X0244195Y0093050D02*
X0247945Y0096800D01*
X0247945Y0110550D01*
X0236695Y0121800D01*
X0236695Y0161800D01*
X0256695Y0181800D01*
X0256695Y0201800D01*
X0262395Y0201614D02*
X0264195Y0201614D01*
X0264195Y0203212D02*
X0262395Y0203212D01*
X0262395Y0204811D02*
X0264149Y0204811D01*
X0262550Y0206409D02*
X0262314Y0206409D01*
X0260952Y0208008D02*
X0072224Y0208008D01*
X0061166Y0208008D02*
X0009210Y0208008D01*
X0024232Y0203212D02*
X0039159Y0203212D01*
X0038945Y0201614D02*
X0024445Y0201614D01*
X0024445Y0200015D02*
X0038945Y0200015D01*
X0038945Y0198417D02*
X0024445Y0198417D01*
X0022863Y0196818D02*
X0040528Y0196818D01*
X0042127Y0195220D02*
X0021264Y0195220D01*
X0028641Y0164848D02*
X0051695Y0164848D01*
X0053175Y0163250D02*
X0030099Y0163250D01*
X0134927Y0137673D02*
X0138463Y0137673D01*
X0137410Y0136075D02*
X0135980Y0136075D01*
X0136295Y0134476D02*
X0137095Y0134476D01*
X0137095Y0132878D02*
X0136295Y0132878D01*
X0154495Y0142469D02*
X0154654Y0142469D01*
X0154495Y0144068D02*
X0155145Y0144068D01*
X0155145Y0145666D02*
X0154495Y0145666D01*
X0154495Y0147265D02*
X0155145Y0147265D01*
X0155145Y0148863D02*
X0154495Y0148863D01*
X0154495Y0150462D02*
X0155145Y0150462D01*
X0155145Y0152060D02*
X0154495Y0152060D01*
X0154495Y0153659D02*
X0155145Y0153659D01*
X0155145Y0155257D02*
X0154495Y0155257D01*
X0154495Y0156856D02*
X0155145Y0156856D01*
X0155145Y0158454D02*
X0154495Y0158454D01*
X0154495Y0160053D02*
X0155145Y0160053D01*
X0155145Y0161651D02*
X0154495Y0161651D01*
X0154495Y0163250D02*
X0155145Y0163250D01*
X0155145Y0164848D02*
X0154495Y0164848D01*
X0154495Y0166447D02*
X0155145Y0166447D01*
X0155145Y0168045D02*
X0154495Y0168045D01*
X0154495Y0169644D02*
X0155145Y0169644D01*
X0155145Y0171242D02*
X0154495Y0171242D01*
X0154495Y0172841D02*
X0155145Y0172841D01*
X0155145Y0174439D02*
X0154495Y0174439D01*
X0154495Y0176038D02*
X0155145Y0176038D01*
X0155145Y0177636D02*
X0154495Y0177636D01*
X0154495Y0179235D02*
X0155405Y0179235D01*
X0155394Y0180833D02*
X0156769Y0180833D01*
X0157895Y0182432D02*
X0155483Y0182432D01*
X0154821Y0184030D02*
X0157895Y0184030D01*
X0160745Y0148863D02*
X0163895Y0148863D01*
X0163895Y0147265D02*
X0160745Y0147265D01*
X0160745Y0145666D02*
X0163895Y0145666D01*
X0163895Y0144068D02*
X0160745Y0144068D01*
X0160745Y0142469D02*
X0163895Y0142469D01*
X0163895Y0140870D02*
X0160591Y0140870D01*
X0159495Y0139272D02*
X0163895Y0139272D01*
X0169495Y0124885D02*
X0170091Y0124885D01*
X0169495Y0123287D02*
X0203895Y0123287D01*
X0203895Y0124885D02*
X0202581Y0124885D01*
X0201695Y0124885D02*
X0201695Y0124885D01*
X0200810Y0124885D02*
X0193299Y0124885D01*
X0195485Y0126484D02*
X0198230Y0126484D01*
X0197432Y0128082D02*
X0196211Y0128082D01*
X0196295Y0129681D02*
X0197295Y0129681D01*
X0197295Y0131279D02*
X0196295Y0131279D01*
X0196295Y0132878D02*
X0197295Y0132878D01*
X0197295Y0134476D02*
X0196295Y0134476D01*
X0195980Y0136075D02*
X0197613Y0136075D01*
X0198746Y0137673D02*
X0194927Y0137673D01*
X0194495Y0139272D02*
X0203895Y0139272D01*
X0203895Y0140870D02*
X0194495Y0140870D01*
X0188463Y0137673D02*
X0184927Y0137673D01*
X0185980Y0136075D02*
X0187410Y0136075D01*
X0187095Y0134476D02*
X0186295Y0134476D01*
X0186295Y0132878D02*
X0187095Y0132878D01*
X0201695Y0132878D02*
X0201695Y0132878D01*
X0201695Y0134476D02*
X0201695Y0134476D01*
X0201695Y0136075D02*
X0201695Y0136075D01*
X0201695Y0137673D02*
X0201695Y0137673D01*
X0203870Y0142469D02*
X0203895Y0142469D01*
X0214495Y0142469D02*
X0218895Y0142469D01*
X0218895Y0140870D02*
X0214495Y0140870D01*
X0214495Y0139272D02*
X0218895Y0139272D01*
X0218463Y0137673D02*
X0214927Y0137673D01*
X0215980Y0136075D02*
X0217410Y0136075D01*
X0217095Y0134476D02*
X0216295Y0134476D01*
X0216295Y0132878D02*
X0217095Y0132878D01*
X0221695Y0131800D02*
X0221695Y0176800D01*
X0226695Y0181800D01*
X0226695Y0201800D01*
X0229495Y0196790D02*
X0229924Y0196968D01*
X0231527Y0198571D01*
X0231695Y0198976D01*
X0231863Y0198571D01*
X0233466Y0196968D01*
X0233895Y0196790D01*
X0233895Y0182960D01*
X0225109Y0174174D01*
X0224495Y0173560D01*
X0224495Y0175640D01*
X0229069Y0180214D01*
X0229495Y0181243D01*
X0229495Y0196790D01*
X0229563Y0196818D02*
X0233827Y0196818D01*
X0233895Y0195220D02*
X0229495Y0195220D01*
X0229495Y0193621D02*
X0233895Y0193621D01*
X0233895Y0192023D02*
X0229495Y0192023D01*
X0229495Y0190424D02*
X0233895Y0190424D01*
X0233895Y0188826D02*
X0229495Y0188826D01*
X0229495Y0187227D02*
X0233895Y0187227D01*
X0233895Y0185629D02*
X0229495Y0185629D01*
X0229495Y0184030D02*
X0233895Y0184030D01*
X0233367Y0182432D02*
X0229495Y0182432D01*
X0229326Y0180833D02*
X0231769Y0180833D01*
X0230170Y0179235D02*
X0228090Y0179235D01*
X0228572Y0177636D02*
X0226491Y0177636D01*
X0226973Y0176038D02*
X0224893Y0176038D01*
X0224495Y0174439D02*
X0225375Y0174439D01*
X0226695Y0171800D02*
X0226695Y0124300D01*
X0241695Y0109300D01*
X0241695Y0101800D01*
X0254495Y0102506D02*
X0260995Y0102506D01*
X0260995Y0100908D02*
X0254495Y0100908D01*
X0254495Y0104105D02*
X0261480Y0104105D01*
X0262537Y0105703D02*
X0254495Y0105703D01*
X0254495Y0107302D02*
X0264132Y0107302D01*
X0262727Y0108900D02*
X0254495Y0108900D01*
X0254495Y0110499D02*
X0262065Y0110499D01*
X0261995Y0112097D02*
X0254495Y0112097D01*
X0254495Y0113696D02*
X0262311Y0113696D01*
X0263129Y0115294D02*
X0254314Y0115294D01*
X0253062Y0116893D02*
X0265096Y0116893D01*
X0266695Y0101800D02*
X0252945Y0088050D01*
X0252945Y0048050D01*
X0246695Y0041800D01*
X0260618Y0041763D02*
X0274195Y0041763D01*
X0274195Y0043361D02*
X0262216Y0043361D01*
X0263231Y0044960D02*
X0274195Y0044960D01*
X0274195Y0046558D02*
X0263245Y0046558D01*
X0263245Y0048157D02*
X0274195Y0048157D01*
X0274195Y0049755D02*
X0263245Y0049755D01*
X0263245Y0051354D02*
X0274195Y0051354D01*
X0274195Y0052952D02*
X0263245Y0052952D01*
X0263245Y0054551D02*
X0274195Y0054551D01*
X0274195Y0056149D02*
X0267948Y0056149D01*
X0265442Y0056149D02*
X0263245Y0056149D01*
X0270704Y0057748D02*
X0274195Y0057748D01*
X0274195Y0059346D02*
X0271849Y0059346D01*
X0272395Y0060945D02*
X0274195Y0060945D01*
X0274195Y0062543D02*
X0272395Y0062543D01*
X0271895Y0064142D02*
X0274195Y0064142D01*
X0274195Y0065740D02*
X0270816Y0065740D01*
X0271295Y0067339D02*
X0274195Y0067339D01*
X0274195Y0068937D02*
X0272679Y0068937D01*
X0273341Y0070536D02*
X0274195Y0070536D01*
X0274195Y0072134D02*
X0273395Y0072134D01*
X0273064Y0073733D02*
X0274195Y0073733D01*
X0274195Y0075332D02*
X0272225Y0075332D01*
X0274195Y0076930D02*
X0270205Y0076930D01*
X0271117Y0078529D02*
X0274195Y0078529D01*
X0274195Y0080127D02*
X0271935Y0080127D01*
X0232095Y0078529D02*
X0134876Y0078529D01*
X0135295Y0076930D02*
X0232095Y0076930D01*
X0232095Y0075332D02*
X0135295Y0075332D01*
X0174495Y0110499D02*
X0208895Y0110499D01*
X0207438Y0112097D02*
X0174495Y0112097D01*
X0173759Y0113696D02*
X0205840Y0113696D01*
X0204288Y0115294D02*
X0172161Y0115294D01*
X0170562Y0116893D02*
X0203895Y0116893D01*
X0203895Y0118491D02*
X0169495Y0118491D01*
X0169495Y0120090D02*
X0203895Y0120090D01*
X0203895Y0121688D02*
X0169495Y0121688D01*
X0195299Y0107302D02*
X0198092Y0107302D01*
X0197256Y0105703D02*
X0196134Y0105703D01*
X0196295Y0104105D02*
X0197095Y0104105D01*
X0197095Y0102506D02*
X0196295Y0102506D01*
X0196295Y0100908D02*
X0197095Y0100908D01*
X0197095Y0099309D02*
X0196295Y0099309D01*
X0196057Y0097711D02*
X0197333Y0097711D01*
X0198278Y0096112D02*
X0195113Y0096112D01*
X0190881Y0088120D02*
X0202510Y0088120D01*
X0201722Y0086521D02*
X0191668Y0086521D01*
X0191795Y0084923D02*
X0201595Y0084923D01*
X0202035Y0083324D02*
X0191356Y0083324D01*
X0190126Y0081726D02*
X0203264Y0081726D01*
X0203601Y0074900D02*
X0201695Y0074900D01*
X0199790Y0074900D01*
X0197095Y0072205D01*
X0197095Y0070300D01*
X0197095Y0068395D01*
X0199790Y0065700D01*
X0201695Y0065700D01*
X0201695Y0070300D01*
X0201695Y0070300D01*
X0197095Y0070300D01*
X0201695Y0070300D01*
X0201695Y0074900D01*
X0201695Y0070300D01*
X0201695Y0070300D01*
X0201695Y0070300D01*
X0201695Y0065700D01*
X0203601Y0065700D01*
X0206295Y0068395D01*
X0206295Y0070300D01*
X0206295Y0072205D01*
X0203601Y0074900D01*
X0204768Y0073733D02*
X0208340Y0073733D01*
X0206895Y0072134D02*
X0206295Y0072134D01*
X0206295Y0070536D02*
X0206895Y0070536D01*
X0206295Y0070300D02*
X0201695Y0070300D01*
X0201695Y0070300D01*
X0206295Y0070300D01*
X0206295Y0068937D02*
X0206895Y0068937D01*
X0207868Y0067339D02*
X0205240Y0067339D01*
X0203641Y0065740D02*
X0209467Y0065740D01*
X0201695Y0065740D02*
X0201695Y0065740D01*
X0201695Y0067339D02*
X0201695Y0067339D01*
X0201695Y0068937D02*
X0201695Y0068937D01*
X0201695Y0070536D02*
X0201695Y0070536D01*
X0201695Y0072134D02*
X0201695Y0072134D01*
X0201695Y0073733D02*
X0201695Y0073733D01*
X0198623Y0073733D02*
X0195050Y0073733D01*
X0193683Y0075100D02*
X0189707Y0075100D01*
X0186895Y0072288D01*
X0186895Y0068312D01*
X0189707Y0065500D01*
X0193683Y0065500D01*
X0196495Y0068312D01*
X0196495Y0072288D01*
X0193683Y0075100D01*
X0196495Y0072134D02*
X0197095Y0072134D01*
X0197095Y0070536D02*
X0196495Y0070536D01*
X0196495Y0068937D02*
X0197095Y0068937D01*
X0198151Y0067339D02*
X0195522Y0067339D01*
X0193924Y0065740D02*
X0199749Y0065740D01*
X0189467Y0065740D02*
X0183641Y0065740D01*
X0185240Y0067339D02*
X0187868Y0067339D01*
X0186895Y0068937D02*
X0186295Y0068937D01*
X0186295Y0070536D02*
X0186895Y0070536D01*
X0186895Y0072134D02*
X0186295Y0072134D01*
X0184768Y0073733D02*
X0188340Y0073733D01*
X0183510Y0088120D02*
X0181975Y0088120D01*
X0183573Y0089718D02*
X0185841Y0089718D01*
X0188549Y0089718D02*
X0204841Y0089718D01*
X0205113Y0096112D02*
X0207048Y0096112D01*
X0207333Y0097711D02*
X0206057Y0097711D01*
X0206295Y0099309D02*
X0207095Y0099309D01*
X0207095Y0100908D02*
X0206295Y0100908D01*
X0206295Y0102506D02*
X0207095Y0102506D01*
X0207095Y0104105D02*
X0206295Y0104105D01*
X0206134Y0105703D02*
X0207256Y0105703D01*
X0208092Y0107302D02*
X0205299Y0107302D01*
X0201695Y0126484D02*
X0201695Y0126484D01*
X0201695Y0128082D02*
X0201695Y0128082D01*
X0201695Y0129681D02*
X0201695Y0129681D01*
X0201695Y0131279D02*
X0201695Y0131279D01*
X0214495Y0144068D02*
X0218895Y0144068D01*
X0218895Y0145666D02*
X0214495Y0145666D01*
X0214495Y0147265D02*
X0218895Y0147265D01*
X0218895Y0148863D02*
X0214495Y0148863D01*
X0214495Y0150462D02*
X0218895Y0150462D01*
X0218895Y0152060D02*
X0214495Y0152060D01*
X0214495Y0153659D02*
X0218895Y0153659D01*
X0218895Y0155257D02*
X0214495Y0155257D01*
X0214495Y0156856D02*
X0218895Y0156856D01*
X0218895Y0158454D02*
X0214495Y0158454D01*
X0214495Y0160053D02*
X0218895Y0160053D01*
X0218895Y0161651D02*
X0214495Y0161651D01*
X0214495Y0163250D02*
X0218895Y0163250D01*
X0218895Y0164848D02*
X0214495Y0164848D01*
X0214495Y0166447D02*
X0218895Y0166447D01*
X0218895Y0168045D02*
X0214495Y0168045D01*
X0214495Y0169644D02*
X0218895Y0169644D01*
X0218895Y0171242D02*
X0214495Y0171242D01*
X0214495Y0172841D02*
X0218895Y0172841D01*
X0218895Y0174439D02*
X0214495Y0174439D01*
X0214893Y0176038D02*
X0218895Y0176038D01*
X0219011Y0177636D02*
X0216491Y0177636D01*
X0218090Y0179235D02*
X0220170Y0179235D01*
X0220109Y0179174D02*
X0220109Y0179174D01*
X0219326Y0180833D02*
X0221769Y0180833D01*
X0223367Y0182432D02*
X0219495Y0182432D01*
X0219495Y0184030D02*
X0223895Y0184030D01*
X0223895Y0185629D02*
X0219495Y0185629D01*
X0219495Y0187227D02*
X0223895Y0187227D01*
X0223895Y0188826D02*
X0219495Y0188826D01*
X0219495Y0190424D02*
X0223895Y0190424D01*
X0223895Y0192023D02*
X0219495Y0192023D01*
X0219495Y0193621D02*
X0223895Y0193621D01*
X0223895Y0195220D02*
X0219495Y0195220D01*
X0219563Y0196818D02*
X0223827Y0196818D01*
X0222017Y0198417D02*
X0221373Y0198417D01*
X0221618Y0204811D02*
X0221773Y0204811D01*
X0223244Y0206409D02*
X0220147Y0206409D01*
X0230147Y0206409D02*
X0233244Y0206409D01*
X0231773Y0204811D02*
X0231618Y0204811D01*
X0236695Y0201800D02*
X0236695Y0181800D01*
X0226695Y0171800D01*
X0229495Y0170640D02*
X0239069Y0180214D01*
X0239495Y0181243D01*
X0239495Y0196790D01*
X0239924Y0196968D01*
X0241527Y0198571D01*
X0241695Y0198976D01*
X0241863Y0198571D01*
X0243466Y0196968D01*
X0243895Y0196790D01*
X0243895Y0182960D01*
X0230109Y0169174D01*
X0229495Y0168560D01*
X0229495Y0170640D01*
X0230097Y0171242D02*
X0232178Y0171242D01*
X0231696Y0172841D02*
X0233776Y0172841D01*
X0233294Y0174439D02*
X0235375Y0174439D01*
X0234893Y0176038D02*
X0236973Y0176038D01*
X0236491Y0177636D02*
X0238572Y0177636D01*
X0238090Y0179235D02*
X0240170Y0179235D01*
X0239326Y0180833D02*
X0241769Y0180833D01*
X0243367Y0182432D02*
X0239495Y0182432D01*
X0239495Y0184030D02*
X0243895Y0184030D01*
X0243895Y0185629D02*
X0239495Y0185629D01*
X0239495Y0187227D02*
X0243895Y0187227D01*
X0243895Y0188826D02*
X0239495Y0188826D01*
X0239495Y0190424D02*
X0243895Y0190424D01*
X0243895Y0192023D02*
X0239495Y0192023D01*
X0239495Y0193621D02*
X0243895Y0193621D01*
X0243895Y0195220D02*
X0239495Y0195220D01*
X0239563Y0196818D02*
X0243827Y0196818D01*
X0242017Y0198417D02*
X0241373Y0198417D01*
X0246695Y0201800D02*
X0246695Y0181800D01*
X0231695Y0166800D01*
X0231695Y0131800D01*
X0239495Y0139272D02*
X0258759Y0139272D01*
X0258396Y0140870D02*
X0239495Y0140870D01*
X0239495Y0142469D02*
X0258396Y0142469D01*
X0258652Y0144068D02*
X0239495Y0144068D01*
X0239495Y0145666D02*
X0259314Y0145666D01*
X0260423Y0147265D02*
X0239495Y0147265D01*
X0239495Y0148863D02*
X0262060Y0148863D01*
X0268703Y0155257D02*
X0239495Y0155257D01*
X0239495Y0153659D02*
X0270301Y0153659D01*
X0271900Y0152060D02*
X0239495Y0152060D01*
X0239495Y0150462D02*
X0273498Y0150462D01*
X0274195Y0148863D02*
X0271330Y0148863D01*
X0272968Y0147265D02*
X0274195Y0147265D01*
X0274195Y0145666D02*
X0274077Y0145666D01*
X0273969Y0137673D02*
X0274195Y0137673D01*
X0274195Y0136075D02*
X0272707Y0136075D01*
X0274195Y0134476D02*
X0270702Y0134476D01*
X0274195Y0132878D02*
X0246295Y0132878D01*
X0246295Y0134476D02*
X0262689Y0134476D01*
X0260683Y0136075D02*
X0245980Y0136075D01*
X0244927Y0137673D02*
X0259422Y0137673D01*
X0267104Y0156856D02*
X0239495Y0156856D01*
X0239495Y0158454D02*
X0265506Y0158454D01*
X0264299Y0160053D02*
X0239495Y0160053D01*
X0240506Y0161651D02*
X0264195Y0161651D01*
X0264195Y0163250D02*
X0242105Y0163250D01*
X0243703Y0164848D02*
X0264195Y0164848D01*
X0264195Y0166447D02*
X0245302Y0166447D01*
X0246900Y0168045D02*
X0264195Y0168045D01*
X0264195Y0169644D02*
X0248499Y0169644D01*
X0250097Y0171242D02*
X0264195Y0171242D01*
X0264195Y0172841D02*
X0251696Y0172841D01*
X0253294Y0174439D02*
X0264195Y0174439D01*
X0264195Y0176038D02*
X0254893Y0176038D01*
X0256491Y0177636D02*
X0264195Y0177636D01*
X0264195Y0179235D02*
X0258090Y0179235D01*
X0259326Y0180833D02*
X0264195Y0180833D01*
X0264195Y0182432D02*
X0259495Y0182432D01*
X0259495Y0184030D02*
X0264195Y0184030D01*
X0264195Y0185629D02*
X0259495Y0185629D01*
X0259495Y0187227D02*
X0264195Y0187227D01*
X0264195Y0188826D02*
X0259495Y0188826D01*
X0259495Y0190424D02*
X0264195Y0190424D01*
X0264195Y0192023D02*
X0259495Y0192023D01*
X0259495Y0193621D02*
X0264195Y0193621D01*
X0264195Y0195220D02*
X0259495Y0195220D01*
X0261942Y0196818D02*
X0264195Y0196818D01*
X0264195Y0198417D02*
X0262395Y0198417D01*
X0262395Y0200015D02*
X0264195Y0200015D01*
X0253895Y0196100D02*
X0253895Y0182960D01*
X0235109Y0164174D01*
X0234495Y0163560D01*
X0234495Y0165640D01*
X0249069Y0180214D01*
X0249495Y0181243D01*
X0249495Y0196790D01*
X0249924Y0196968D01*
X0250995Y0198039D01*
X0250995Y0197272D01*
X0252167Y0196100D01*
X0253895Y0196100D01*
X0253895Y0195220D02*
X0249495Y0195220D01*
X0249495Y0193621D02*
X0253895Y0193621D01*
X0253895Y0192023D02*
X0249495Y0192023D01*
X0249495Y0190424D02*
X0253895Y0190424D01*
X0253895Y0188826D02*
X0249495Y0188826D01*
X0249495Y0187227D02*
X0253895Y0187227D01*
X0253895Y0185629D02*
X0249495Y0185629D01*
X0249495Y0184030D02*
X0253895Y0184030D01*
X0253367Y0182432D02*
X0249495Y0182432D01*
X0249326Y0180833D02*
X0251769Y0180833D01*
X0250170Y0179235D02*
X0248090Y0179235D01*
X0248572Y0177636D02*
X0246491Y0177636D01*
X0246973Y0176038D02*
X0244893Y0176038D01*
X0245375Y0174439D02*
X0243294Y0174439D01*
X0243776Y0172841D02*
X0241696Y0172841D01*
X0242178Y0171242D02*
X0240097Y0171242D01*
X0240579Y0169644D02*
X0238499Y0169644D01*
X0238981Y0168045D02*
X0236900Y0168045D01*
X0237382Y0166447D02*
X0235302Y0166447D01*
X0235784Y0164848D02*
X0234495Y0164848D01*
X0230579Y0169644D02*
X0229495Y0169644D01*
X0213895Y0182960D02*
X0210109Y0179174D01*
X0209495Y0178560D01*
X0209495Y0196790D01*
X0209924Y0196968D01*
X0211527Y0198571D01*
X0211695Y0198976D01*
X0211863Y0198571D01*
X0213466Y0196968D01*
X0213895Y0196790D01*
X0213895Y0182960D01*
X0213367Y0182432D02*
X0209495Y0182432D01*
X0209495Y0184030D02*
X0213895Y0184030D01*
X0213895Y0185629D02*
X0209495Y0185629D01*
X0209495Y0187227D02*
X0213895Y0187227D01*
X0213895Y0188826D02*
X0209495Y0188826D01*
X0209495Y0190424D02*
X0213895Y0190424D01*
X0213895Y0192023D02*
X0209495Y0192023D01*
X0209495Y0193621D02*
X0213895Y0193621D01*
X0213895Y0195220D02*
X0209495Y0195220D01*
X0209563Y0196818D02*
X0213827Y0196818D01*
X0212017Y0198417D02*
X0211373Y0198417D01*
X0211769Y0180833D02*
X0209495Y0180833D01*
X0209495Y0179235D02*
X0210170Y0179235D01*
X0231373Y0198417D02*
X0232017Y0198417D01*
X0241618Y0204811D02*
X0241773Y0204811D01*
X0243244Y0206409D02*
X0240147Y0206409D01*
X0250147Y0206409D02*
X0251076Y0206409D01*
X0251448Y0196818D02*
X0249563Y0196818D01*
X0103195Y0030573D02*
X0103195Y0030573D01*
X0103195Y0028975D02*
X0103195Y0028975D01*
X0103195Y0027376D02*
X0103195Y0027376D01*
X0103195Y0026800D02*
X0103195Y0026800D01*
X0103195Y0025778D02*
X0103195Y0025778D01*
X0103195Y0024179D02*
X0103195Y0024179D01*
X0103195Y0022581D02*
X0103195Y0022581D01*
D27*
X0124195Y0009300D03*
X0156695Y0031800D03*
X0151695Y0048050D03*
X0135445Y0049300D03*
X0079195Y0009300D03*
X0196695Y0026800D03*
X0211695Y0018050D03*
X0221695Y0018050D03*
X0231695Y0018050D03*
X0241695Y0018050D03*
X0251695Y0029300D03*
X0236695Y0041800D03*
X0226695Y0036800D03*
X0266695Y0046800D03*
X0227945Y0114300D03*
X0247945Y0126800D03*
X0266695Y0126800D03*
X0251695Y0156800D03*
X0216695Y0146800D03*
X0179195Y0147050D03*
X0176695Y0171800D03*
X0151695Y0181800D03*
X0139195Y0171800D03*
X0131695Y0176800D03*
X0116695Y0171800D03*
X0111695Y0181800D03*
X0106695Y0186800D03*
X0081695Y0196800D03*
X0064195Y0158050D03*
X0090445Y0155550D03*
X0139195Y0146800D03*
X0101695Y0101800D03*
X0054195Y0119300D03*
X0036695Y0139050D03*
X0135445Y0195550D03*
X0145445Y0195550D03*
X0155445Y0195550D03*
X0165445Y0195550D03*
X0191695Y0195550D03*
X0201695Y0195550D03*
X0211695Y0195550D03*
X0221695Y0195550D03*
X0231695Y0195550D03*
X0241695Y0195550D03*
X0251695Y0195550D03*
D28*
X0134195Y0036800D03*
M02*
