%
M48
M72
T01C0.01575
T02C0.01577
T03C0.03150
T04C0.03200
T05C0.03346
T06C0.04000
T07C0.05000
T08C0.05512
T09C0.05906
T10C0.12598
%
T01
X81695Y196800
X106695Y186800
X111695Y181800
X116695Y171800
X131695Y176800
X139195Y171800
X151695Y181800
X155445Y195550
X145445Y195550
X135445Y195550
X165445Y195550
X191695Y195550
X201695Y195550
X211695Y195550
X221695Y195550
X231695Y195550
X241695Y195550
X251695Y195550
X251695Y156800
X266695Y126800
X247945Y126800
X227945Y114300
X216695Y146800
X179195Y147050
X176695Y171800
X139195Y146800
X90445Y155550
X64195Y158050
X36695Y139050
X54195Y119300
X101695Y101800
X135445Y49300
X151695Y48050
X156695Y31800
X124195Y9300
X79195Y9300
X196695Y26800
X211695Y18050
X221695Y18050
X231695Y18050
X241695Y18050
X251695Y29300
X266695Y46800
X236695Y41800
X226695Y36800
T02
X134195Y36800
T03
X61695Y146800
X81695Y146800
X57195Y49300
X57195Y29300
T04
X56695Y181800
X56695Y166800
X86695Y166800
X86695Y181800
X56695Y126800
X56695Y111800
X86695Y111800
X86695Y126800
X111695Y131800
X121695Y131800
X131695Y131800
X141695Y131800
X151695Y131800
X161695Y131800
X171695Y131800
X181695Y131800
X191695Y131800
X201695Y131800
X211695Y131800
X221695Y131800
X231695Y131800
X241695Y131800
X241695Y101800
X231695Y101800
X221695Y101800
X211695Y101800
X201695Y101800
X191695Y101800
X181695Y101800
X171695Y101800
X161695Y101800
X151695Y101800
X141695Y101800
X131695Y101800
X121695Y101800
X111695Y101800
X91695Y81800
X81695Y81800
X66695Y86800
X66695Y66800
X81695Y61800
X91695Y61800
X104195Y66800
X111695Y61800
X111695Y71800
X116695Y41800
X103195Y41800
X116695Y31800
X103195Y26800
X73195Y26800
X73195Y41800
X36695Y66800
X26695Y66800
X16695Y66800
X16695Y86800
X26695Y86800
X36695Y86800
X111695Y146800
X121695Y146800
X191695Y146800
X201695Y146800
X236695Y86800
X236695Y76800
X211695Y70300
X201695Y70300
X191695Y70300
X181695Y70300
X187195Y85300
X206195Y85300
T05
X25613Y160560
X25613Y143040
T06
X100695Y201800
X110695Y201800
X120695Y201800
X130695Y201800
X140695Y201800
X150695Y201800
X160695Y201800
X170695Y201800
X186695Y201800
X196695Y201800
X206695Y201800
X216695Y201800
X226695Y201800
X236695Y201800
X246695Y201800
X256695Y201800
X267695Y111800
X266695Y101800
X267695Y91800
X266695Y81800
X267695Y71800
X266695Y61800
X256695Y11800
X246695Y11800
X236695Y11800
X226695Y11800
X216695Y11800
X206695Y11800
X186695Y11800
X176695Y11800
X166695Y11800
X156695Y11800
X146695Y11800
X136695Y11800
T07
X18895Y200700
X18895Y182900
X44495Y182900
X44495Y200700
X18895Y120700
X18895Y102900
X44495Y102900
X44495Y120700
T08
X23467Y41643
X23467Y21957
T09
X14195Y168237
X14195Y135363
T10
X66695Y201800
X61695Y11800
X266695Y31800
X266695Y141800
M30
